<svg xmlns="http://www.w3.org/2000/svg" xmlns:xlink="http://www.w3.org/1999/xlink" width="380" height="254" viewBox="0 0 380 254">
  <defs>
    <linearGradient id="linear-gradient" x1="0.5" y1="1" x2="0.5" gradientUnits="objectBoundingBox">
      <stop offset="0" stop-color="#ffdee9"/>
      <stop offset="1" stop-color="#5b679a"/>
    </linearGradient>
    <radialGradient id="radial-gradient" cx="0.5" cy="0.5" r="0.701" gradientTransform="translate(0.144 -0.1) scale(0.713 0.713)" gradientUnits="objectBoundingBox">
      <stop offset="0" stop-color="#feb2ca"/>
      <stop offset="0.12" stop-color="#d092a5"/>
      <stop offset="0.301" stop-color="#926674"/>
      <stop offset="0.475" stop-color="#5d414a"/>
      <stop offset="0.636" stop-color="#35252a"/>
      <stop offset="0.782" stop-color="#181013"/>
      <stop offset="0.908" stop-color="#060405"/>
      <stop offset="1"/>
    </radialGradient>
    <radialGradient id="radial-gradient-2" cy="0.5" r="0.5" gradientTransform="matrix(0, 1, -1, 0, -2.792, -3.117)" xlink:href="#radial-gradient"/>
    <radialGradient id="radial-gradient-3" cy="0.5" r="0.5" gradientTransform="matrix(0, 1, -1, 0, -2.841, -3.263)" xlink:href="#radial-gradient"/>
    <radialGradient id="radial-gradient-4" cy="0.5" r="0.701" gradientTransform="translate(0.07 2.04) scale(0.713 0.713)" xlink:href="#radial-gradient"/>
    <radialGradient id="radial-gradient-5" cy="0.5" r="0.5" gradientTransform="translate(0)" xlink:href="#radial-gradient"/>
    <clipPath id="clip-grade_1">
      <rect width="380" height="254"/>
    </clipPath>
  </defs>
  <g id="grade_1" data-name="grade 1" clip-path="url(#clip-grade_1)">
    <rect width="380" height="254" fill="#fff"/>
    <g id="Group_692" data-name="Group 692" transform="translate(-175.045 1943.275)">
      <rect id="Rectangle_1" data-name="Rectangle 1" width="1277.621" height="385.952" transform="translate(-658.019 -2230.838)" fill="url(#linear-gradient)"/>
      <rect id="Rectangle_2" data-name="Rectangle 2" width="1256.813" height="214.574" transform="translate(-598.902 -1903.89)" fill="#efa8c1"/>
      <g id="Group_39" data-name="Group 39" transform="translate(-501.408 -2216.374)" opacity="0.81" style="mix-blend-mode: screen;isolation: isolate">
        <ellipse id="Ellipse_229" data-name="Ellipse 229" cx="0.629" cy="0.629" rx="0.629" ry="0.629" transform="translate(621.118 74.579)" fill="#a7dee3"/>
        <ellipse id="Ellipse_230" data-name="Ellipse 230" cx="0.629" cy="0.629" rx="0.629" ry="0.629" transform="translate(749.648 20.296)" fill="#a7dee3"/>
        <path id="Path_1804" data-name="Path 1804" d="M1940.849,501.944a.629.629,0,1,0,.629-.629A.629.629,0,0,0,1940.849,501.944Z" transform="translate(-1119.387 -466.602)" fill="#a7dee3"/>
        <ellipse id="Ellipse_231" data-name="Ellipse 231" cx="0.629" cy="0.629" rx="0.629" ry="0.629" transform="translate(505.053 184.461)" fill="#a7dee3"/>
        <path id="Path_1805" data-name="Path 1805" d="M826.423,953.468a.629.629,0,1,0,.629-.629A.629.629,0,0,0,826.423,953.468Z" transform="translate(-463.589 -732.307)" fill="#a7dee3"/>
        <path id="Path_1806" data-name="Path 1806" d="M1313.343,955a.629.629,0,1,0,.629-.629A.629.629,0,0,0,1313.343,955Z" transform="translate(-750.123 -733.206)" fill="#a7dee3"/>
        <path id="Path_1807" data-name="Path 1807" d="M650.183,809.629a.629.629,0,1,0,.629-.629A.629.629,0,0,0,650.183,809.629Z" transform="translate(-359.879 -647.663)" fill="#a7dee3"/>
        <path id="Path_1808" data-name="Path 1808" d="M688.142,1026.425a.629.629,0,1,0,.629-.629A.629.629,0,0,0,688.142,1026.425Z" transform="translate(-382.216 -775.239)" fill="#a7dee3"/>
        <path id="Path_1809" data-name="Path 1809" d="M762.774,759.945a.629.629,0,1,0,.629-.629A.629.629,0,0,0,762.774,759.945Z" transform="translate(-426.134 -618.426)" fill="#a7dee3"/>
        <path id="Path_1810" data-name="Path 1810" d="M1862.5,1198.734a.629.629,0,1,0,.629-.629A.629.629,0,0,0,1862.5,1198.734Z" transform="translate(-1073.279 -876.637)" fill="#a7dee3"/>
        <path id="Path_1811" data-name="Path 1811" d="M1710.308,1061.247a.629.629,0,1,0,.629-.629A.628.628,0,0,0,1710.308,1061.247Z" transform="translate(-983.722 -795.731)" fill="#a7dee3"/>
        <path id="Path_1812" data-name="Path 1812" d="M1724.214,1271.69a.629.629,0,1,0,.629-.629A.629.629,0,0,0,1724.214,1271.69Z" transform="translate(-991.905 -919.569)" fill="#a7dee3"/>
        <path id="Path_1813" data-name="Path 1813" d="M1798.846,1005.212a.629.629,0,1,0,.629-.629A.629.629,0,0,0,1798.846,1005.212Z" transform="translate(-1035.823 -762.756)" fill="#a7dee3"/>
        <path id="Path_1814" data-name="Path 1814" d="M1812.639,770.123a.629.629,0,1,0,.629-.629A.629.629,0,0,0,1812.639,770.123Z" transform="translate(-1043.94 -624.415)" fill="#a7dee3"/>
        <path id="Path_1815" data-name="Path 1815" d="M1031.306,868.809a.629.629,0,1,0,.629-.629A.629.629,0,0,0,1031.306,868.809Z" transform="translate(-584.155 -682.488)" fill="#a7dee3"/>
        <path id="Path_1816" data-name="Path 1816" d="M880.6,949.856a.629.629,0,1,0,.629-.629A.629.629,0,0,0,880.6,949.856Z" transform="translate(-495.468 -730.181)" fill="#a7dee3"/>
        <path id="Path_1817" data-name="Path 1817" d="M459.69,835.665a.629.629,0,1,0,.629-.629A.629.629,0,0,0,459.69,835.665Z" transform="translate(-247.781 -662.984)" fill="#a7dee3"/>
        <path id="Path_1818" data-name="Path 1818" d="M321.409,908.622a.629.629,0,1,0,.629-.629A.629.629,0,0,0,321.409,908.622Z" transform="translate(-166.408 -705.917)" fill="#a7dee3"/>
        <ellipse id="Ellipse_232" data-name="Ellipse 232" cx="0.629" cy="0.629" rx="0.629" ry="0.629" transform="translate(234.203 170.565)" fill="#a7dee3"/>
        <path id="Path_1819" data-name="Path 1819" d="M982.694,478.679a1.028,1.028,0,1,0,1.028-1.028A1.028,1.028,0,0,0,982.694,478.679Z" transform="translate(-555.549 -452.677)" fill="#a7dee3"/>
        <path id="Path_1820" data-name="Path 1820" d="M1272,417.994a1.028,1.028,0,1,0,1.027-1.028A1.028,1.028,0,0,0,1272,417.994Z" transform="translate(-725.797 -416.966)" fill="#a7dee3"/>
        <path id="Path_1821" data-name="Path 1821" d="M1123.9,634.143a1.028,1.028,0,1,0,1.028-1.028A1.028,1.028,0,0,0,1123.9,634.143Z" transform="translate(-638.644 -544.162)" fill="#a7dee3"/>
        <circle id="Ellipse_233" data-name="Ellipse 233" cx="1.028" cy="1.028" r="1.028" transform="translate(232.665 121.491)" fill="#a7dee3"/>
        <path id="Path_1822" data-name="Path 1822" d="M1483.608,651.976a1.028,1.028,0,1,0,1.028-1.028A1.028,1.028,0,0,0,1483.608,651.976Z" transform="translate(-850.317 -554.656)" fill="#a7dee3"/>
        <ellipse id="Ellipse_234" data-name="Ellipse 234" cx="0.629" cy="0.629" rx="0.629" ry="0.629" transform="translate(193.973 76.635)" fill="#a7dee3"/>
        <circle id="Ellipse_235" data-name="Ellipse 235" cx="1.028" cy="1.028" r="1.028" transform="translate(0 27.03)" fill="#a7dee3"/>
        <ellipse id="Ellipse_236" data-name="Ellipse 236" cx="1.028" cy="1.028" rx="1.028" ry="1.028" transform="translate(119.062 2.056)" fill="#a7dee3"/>
        <circle id="Ellipse_237" data-name="Ellipse 237" cx="1.028" cy="1.028" r="1.028" transform="translate(58.112 91.009)" fill="#a7dee3"/>
        <circle id="Ellipse_238" data-name="Ellipse 238" cx="1.028" cy="1.028" r="1.028" transform="translate(206.145 98.348)" fill="#a7dee3"/>
      </g>
      <path id="Path_78" data-name="Path 78" d="M2006.442,1154.659l-536.209,34.735,112.4,5.734,20.631-3.5,123.281,2.036-81.48,6.035,108.64,3.491,249.687-2.848Z" transform="translate(-1343.855 -3067.444)" fill="#5b679a" opacity="0.19" style="mix-blend-mode: multiply;isolation: isolate"/>
      <path id="Path_79" data-name="Path 79" d="M901.849,1170.825l99.049,11-93.218,3.363,95.181,4.137,46.893.227,14.222-2.32,50.746,1.629-79.086,5.468-26.549,1.092,24.192,4.4,21.613,1.813,37.314-.894,145.193,3.577-63.926-5.8-13.7-1.841,49.547-2.535,38.292-1.521,19.9-1.133,47.874-3.05,8.012-9.076-9.332-6.515Z" transform="translate(-1009.383 -3076.957)" fill="#5b679a" opacity="0.22" style="mix-blend-mode: multiply;isolation: isolate"/>
      <g id="Group_43" data-name="Group 43" transform="translate(-119.732 -1943.154)" opacity="0.24">
        <path id="Path_793" data-name="Path 793" d="M718.157,625.6c-.029.024-.057.043-.085.067a4.107,4.107,0,0,1-1.018.4c-3.052.875-10.9,1.545-12.361,1.673a53.23,53.23,0,0,1-14.928-1.474c-.856-.271-1.151-.513-.608-.67C691.381,624.952,719.431,624.5,718.157,625.6Z" transform="translate(-688.883 -624.932)" fill="#af6ba7" opacity="0.24"/>
        <path id="Path_794" data-name="Path 794" d="M718.157,625.6c-.029.024-.057.043-.085.067l-1.018.4a11.916,11.916,0,0,0-2.425-.742c-.59,0-12.18-.357-16.459,0s-8.368.946-8.368.946l-.038,0c-.856-.271-1.151-.513-.608-.67C691.381,624.952,719.431,624.5,718.157,625.6Z" transform="translate(-688.883 -624.932)" fill="#af6ba7"/>
      </g>
      <g id="Group_44" data-name="Group 44" transform="translate(-160.065 -1942.92)" opacity="0.24">
        <path id="Path_795" data-name="Path 795" d="M619.144,626.652a12.426,12.426,0,0,1-3.576.62,13.964,13.964,0,0,1-3.556-.681l-.038-.012c-.637-.255-.922-.553-.333-.864.97-.511,6.846-.45,7.807.292C619.752,626.245,619.572,626.464,619.144,626.652Z" transform="translate(-611.319 -625.383)" fill="#af6ba7" opacity="0.24"/>
        <path id="Path_796" data-name="Path 796" d="M619.144,626.652a15.32,15.32,0,0,0-2.092-.322,23.388,23.388,0,0,0-5.039.261l-.038-.012c-.637-.255-.922-.553-.333-.864.97-.511,6.846-.45,7.807.292C619.752,626.245,619.572,626.464,619.144,626.652Z" transform="translate(-611.319 -625.383)" fill="#af6ba7"/>
      </g>
      <g id="Group_41" data-name="Group 41" transform="translate(-707.319 -2103.548)">
        <path id="Path_2148" data-name="Path 2148" d="M237.843,832.358c-21.791-14.8-192.37-70.763-192.37-70.763l-18.414-28.26-4.738,1.078-7.249-22.358H5.113L-34.709,612.041l-9.959-4.979-8.711-29.65-26.132-23.167c-24.117-13.222-58.151-24.514-60.265-25.209l-.1-.029s-13.137,11.132-17.957,19.365L-171.189,602l-7.464,8.041-11.426,65.19-4.148,2.126-21.6,50.887-6.847,7.054-14.219,7.189V872.455l71.86-.331S-45.888,855.2-19.756,853.667c10.966-.639,34.374-1.206,65.23-1.717,135.907-2.2,416.4-3.093,416.4-3.093Z" transform="translate(236.895 -515.281)" fill="#feb2ca"/>
        <path id="Path_2149" data-name="Path 2149" d="M433.556,1063.62l5.261,1.655,2.778-1.655Z" transform="translate(-148.091 -822.266)" fill="#fff" opacity="0.2" style="mix-blend-mode: overlay;isolation: isolate"/>
        <path id="Path_2150" data-name="Path 2150" d="M475.2,1084.492l9.93-10.876,39.068,11.822,9.956,15.852,3.549,5.547s-45.051-1.537-49.994-4.847S475.2,1084.492,475.2,1084.492Z" transform="translate(-172.006 -828.006)" fill="#feb2ca"/>
        <path id="Path_2151" data-name="Path 2151" d="M629.476,1195.9l13.727-65.977s19.227-4.128,30.673-3.182,21.356,14.364,22.962,16.876,0,35.842,0,35.842h3.669l3.258,13.923s-25.734,5.592-32.019,5.947S629.476,1195.9,629.476,1195.9Z" transform="translate(-260.591 -858.427)" fill="#feb2ca"/>
        <path id="Path_2152" data-name="Path 2152" d="M28.919,569.254l10.286,5.32L-9.03,566.913V529.007l.1.029c2.114.695,36.148,11.987,60.265,25.209l26.132,23.167Z" transform="translate(106.051 -515.281)" fill="#a7dee3" opacity="0.51" style="mix-blend-mode: soft-light;isolation: isolate"/>
        <path id="Path_2153" data-name="Path 2153" d="M104.83,712.328,91.552,725.947l-43.978,9.694H61.051l-37.594,11.94,78.381-17.627,12.952-12.647Z" transform="translate(87.397 -620.547)" fill="#a7dee3" opacity="0.51" style="mix-blend-mode: soft-light;isolation: isolate"/>
        <path id="Path_2154" data-name="Path 2154" d="M144.1,959.221h5.206l13.577,3.649-73.16,9.592H51.777l24.515-5.906H93.514Z" transform="translate(71.134 -762.318)" fill="#a7dee3" opacity="0.51" style="mix-blend-mode: soft-light;isolation: isolate"/>
        <path id="Path_2155" data-name="Path 2155" d="M337.24,958.921,324.16,962.7l3.121-3.777Z" transform="translate(-85.273 -762.146)" fill="#a7dee3" opacity="0.51" style="mix-blend-mode: soft-light;isolation: isolate"/>
        <path id="Path_2156" data-name="Path 2156" d="M281.676,1009.971l-13.794,4.729-20.017,4.256H258.5l-17.97,7.33-25.772,4.019,41.713-4.256L286.4,1008.9Z" transform="translate(-22.455 -790.842)" fill="#a7dee3" opacity="0.51" style="mix-blend-mode: soft-light;isolation: isolate"/>
        <path id="Path_2157" data-name="Path 2157" d="M426.282,1075.271l8.536,9.167,12.295,3.133,2.28-4.625Z" transform="translate(-143.914 -828.956)" fill="#a7dee3" opacity="0.51" style="mix-blend-mode: soft-light;isolation: isolate"/>
        <path id="Path_2158" data-name="Path 2158" d="M498.528,1073.616l2.579,9.872s10.44,9.989,35.614,9.516l.875-7.566Z" transform="translate(-185.399 -828.006)" fill="#a7dee3" opacity="0.51" style="mix-blend-mode: soft-light;isolation: isolate"/>
        <path id="Path_2159" data-name="Path 2159" d="M661.716,1129.857a45.376,45.376,0,0,0,7.835,8.64c4.492,3.663,29.155,9.63,34.911,9.19s10.889-4.135,10.889-4.135-7.585-12.659-18.821-16S661.716,1129.857,661.716,1129.857Z" transform="translate(-279.104 -858.367)" fill="#a7dee3" opacity="0.51" style="mix-blend-mode: soft-light;isolation: isolate"/>
        <path id="Path_2160" data-name="Path 2160" d="M237.809,1155.708l16.925-4.071,34.521,2.186-9.694,1.885,33.338,3.377,38.839,9.8-76.433,2.5,4.492-2.128-21.28-7.1-43.033-6.442h-33.23l33.939-1.885Z" transform="translate(-3.788 -872.807)" fill="#a7dee3" opacity="0.51" style="mix-blend-mode: soft-light;isolation: isolate"/>
        <path id="Path_2161" data-name="Path 2161" d="M854.732,1241.466l-17.318,5.236,126.233,3.916Z" transform="translate(-379.993 -924.388)" fill="#a7dee3" opacity="0.51" style="mix-blend-mode: soft-light;isolation: isolate"/>
        <path id="Path_2162" data-name="Path 2162" d="M14.293,829.277h15.96l42.678,6.266-29.319,9.339-13.359-9.576Z" transform="translate(92.658 -687.702)" fill="#a7dee3" opacity="0.51" style="mix-blend-mode: soft-light;isolation: isolate"/>
        <path id="Path_2163" data-name="Path 2163" d="M674.286,1134.239s18.084-4.968,27.9-2.157,17.379,13.152,17.379,14.1-13.359,2.955-21.162.946a183.115,183.115,0,0,1-20.807-7.211C676.769,1139.441,674.286,1134.239,674.286,1134.239Z" transform="translate(-286.322 -861.083)" fill="#fdcbdb"/>
        <path id="Path_2164" data-name="Path 2164" d="M509.24,1080.927c.123,1.348,1.159,6.03,2.2,6.852s7.1,4.971,12.676,6.06,14.184.467,14.807,0-.043-1.434,0-3.163S509.24,1080.927,509.24,1080.927Z" transform="translate(-191.55 -832.204)" fill="#fdcbdb"/>
        <path id="Path_2165" data-name="Path 2165" d="M388.382,969.387l-3.015-48.943s-.807-3.37-6.331-3.724-9.452,5.88-9.452,5.88l-.059,34.433-1.773,23.053s21.162,12.295,33.457,13.3l-4.138-12.472Z" transform="translate(-110.305 -737.904)" fill="#feb2ca"/>
        <path id="Path_2166" data-name="Path 2166" d="M372.055,923.224a10.541,10.541,0,0,0,7.98,2.1,11.572,11.572,0,0,0,7.8-4.256s-1.73-4.081-7.655-3.133A11.2,11.2,0,0,0,372.055,923.224Z" transform="translate(-112.776 -738.529)" fill="#a7dee3" opacity="0.51" style="mix-blend-mode: soft-light;isolation: isolate"/>
        <path id="Path_2167" data-name="Path 2167" d="M376.359,925.2a10.005,10.005,0,0,1,5.143-3.752c3.251-.887,7.448,1.3,7.448,1.3a8.211,8.211,0,0,1-6.532,3.665C378.073,926.476,376.359,925.2,376.359,925.2Z" transform="translate(-115.247 -740.509)" fill="#5b679a"/>
        <path id="Path_2168" data-name="Path 2168" d="M687.367,1153.863s10.7-.032,15.9.352,19.211,6.2,19.211,6.2-8.083,1.653-15.218,0S687.367,1153.863,687.367,1153.863Z" transform="translate(-293.834 -874.085)" fill="#ffdede"/>
        <path id="Path_2169" data-name="Path 2169" d="M514.4,1097.02s8.73-.034,13.695.912,11.023,5.587,11.023,5.587-7.285.716-11.2-.293S517.639,1099.655,514.4,1097.02Z" transform="translate(-194.512 -841.444)" fill="#ffdede"/>
        <path id="Path_2170" data-name="Path 2170" d="M-82.576,653.121l31.315-35.086,43.248,51.876L-3.027,625.7l-10.285-5.32,17.039,2.863,8.759,52.571-24.5,5.4L.165,681.5l-37.594,11.94-13.832,7.093L-79.808,695.7v-31.92Z" transform="translate(148.282 -566.403)" fill="#6776a5" opacity="0.29" style="mix-blend-mode: multiply;isolation: isolate"/>
        <path id="Path_2171" data-name="Path 2171" d="M130.43,1024.371c-30.856.511-54.264,1.078-65.23,1.717-26.132,1.532-119.713,14.624-119.713,14.624L-41.086,952.7h0a64.367,64.367,0,0,0-30.488-6.762l-17.37-98.963,43.956-17.7,15.96,6.03,13.364,9.576-11.619,58.165-1.745-40.262-5.568,25.69-6.491,9.37,1.668,12.886-5.569,25.7L26.528,970.6H59.753l19.038,39.042,3.291-34.871,20.713,2.27,21.28,7.107-4.5,2.128.946,16.783,5.629,6.293Z" transform="translate(151.938 -687.702)" fill="#6776a5" opacity="0.29" style="mix-blend-mode: multiply;isolation: isolate"/>
        <path id="Path_2172" data-name="Path 2172" d="M260.591,1049.182v47.695l-21.616-1.885-17.046-41.865Z" transform="translate(-26.571 -813.975)" fill="#364472" opacity="0.29" style="mix-blend-mode: multiply;isolation: isolate"/>
        <path id="Path_2173" data-name="Path 2173" d="M360.815,966.585l-8.335,4.777,6.5,16.675,7.684-25.772-1.974-29.86-3.878-1.854Z" transform="translate(-101.536 -745.855)" fill="#364472" opacity="0.3" style="mix-blend-mode: multiply;isolation: isolate"/>
        <path id="Path_2174" data-name="Path 2174" d="M485.136,1073.616,477.485,1082l-2.28,4.625,6.088,11.522,6.421-14.655Z" transform="translate(-172.006 -828.006)" fill="#364472" opacity="0.5" style="mix-blend-mode: multiply;isolation: isolate"/>
        <path id="Path_2175" data-name="Path 2175" d="M643.2,1134.4l-13.727,65.977,24.649,2.373,2.944-24.848-2.944-3.126v-13.292l-3.087-18.443Z" transform="translate(-260.591 -862.909)" fill="#364472" opacity="0.26" style="mix-blend-mode: multiply;isolation: isolate"/>
        <path id="Path_2176" data-name="Path 2176" d="M583.214,1119.166l3.01,3.11-.875-3.124Z" transform="translate(-234.027 -854.153)" fill="#3b4b7f"/>
        <path id="Path_2177" data-name="Path 2177" d="M413.724,1040.436l-1.838,5.425,4.5,2.555,6.029,3.547Z" transform="translate(-135.647 -808.953)" fill="#a7dee3" opacity="0.51" style="mix-blend-mode: soft-light;isolation: isolate"/>
        <path id="Path_2178" data-name="Path 2178" d="M79.062,862.989l1.328,3.344,3.121-2.955Z" transform="translate(55.466 -707.06)" fill="#3b4b7f"/>
        <path id="Path_2179" data-name="Path 2179" d="M-32.494,536.626S-6.6,545.168,1.908,548s33.959,21.014,34.757,22.61-28.019.976-39.191-.62-47.368-5.689-47.368-5.689C-48.753,553.267-42.4,546.662-32.494,536.626Z" transform="translate(129.515 -519.656)" fill="#fdcbdb"/>
        <path id="Path_2180" data-name="Path 2180" d="M-32.494,565.638c9.185.21,29.808,9.576,34.588,12.413s12.31,9.9,12.31,9.9a133.149,133.149,0,0,1-19.958-1.738c-11.739-1.834-44.338-5.245-44.338-5.245S-41.558,565.432-32.494,565.638Z" transform="translate(129.515 -536.314)" fill="#ffdede"/>
        <g id="Group_682" data-name="Group 682" transform="translate(382.581 289.902)" opacity="0.5">
          <path id="Path_2181" data-name="Path 2181" d="M661.665,1179.781a5.852,5.852,0,0,1,.211-2.119l.515-.022q-.125,1.116-.171,2.239l-.447-.2Z" transform="translate(-661.645 -1177.64)" fill="#364472" opacity="0.15" style="mix-blend-mode: multiply;isolation: isolate"/>
        </g>
        <path id="Path_2182" data-name="Path 2182" d="M759.98,1220.159v-23.421l2.231-4.1-1.323-19.8,4.74-3.178,6.149-3.1V1202.4l-3,3.2Z" transform="translate(-335.529 -881.377)" fill="#a7dee3" opacity="0.51" style="mix-blend-mode: soft-light;isolation: isolate"/>
        <path id="Path_2183" data-name="Path 2183" d="M540.732,1192.306l16.85-.167,3.484,26.379h-3.8l-4.125-.8-6.384-3.856" transform="translate(-209.633 -896.064)" fill="#a7dee3" opacity="0.16" style="mix-blend-mode: soft-light;isolation: isolate"/>
        <ellipse id="Ellipse_376" data-name="Ellipse 376" cx="51.568" cy="36.764" rx="51.568" ry="36.764" transform="translate(64.937)" fill="url(#radial-gradient)" style="mix-blend-mode: screen;isolation: isolate"/>
        <ellipse id="Ellipse_377" data-name="Ellipse 377" cx="28.098" cy="39.413" rx="28.098" ry="39.413" transform="matrix(0.153, -0.988, 0.988, 0.153, 294.006, 277.287)" fill="url(#radial-gradient-2)" style="mix-blend-mode: screen;isolation: isolate"/>
        <ellipse id="Ellipse_378" data-name="Ellipse 378" cx="28.098" cy="39.413" rx="28.098" ry="39.413" transform="translate(367.837 302.304) rotate(-81.196)" fill="url(#radial-gradient-3)" style="mix-blend-mode: screen;isolation: isolate"/>
        <path id="Path_2184" data-name="Path 2184" d="M-136.686,874.557l14.528,5.951,8.207,18.84-5.109-21.528-13.477-5.389Z" transform="translate(179.353 -712.481)" fill="#a7dee3" opacity="0.51" style="mix-blend-mode: soft-light;isolation: isolate"/>
        <path id="Path_2185" data-name="Path 2185" d="M-215.829,996.939l8.016,18.52-1.419,5.763-8.039-5.763-6.857,24.092-12.768,9.44v-37.809l14.219-7.19Z" transform="translate(236.895 -783.976)" fill="#a7dee3" opacity="0.51" style="mix-blend-mode: soft-light;isolation: isolate"/>
        <path id="Path_2186" data-name="Path 2186" d="M-121.945,1111.589s23.3-8.558,31.421-8.324c18.587.536,30.488,6.762,30.488,6.762l-27.415,12.266Z" transform="translate(170.889 -845.028)" fill="#a7dee3" opacity="0.51" style="mix-blend-mode: soft-light;isolation: isolate"/>
        <path id="Path_2187" data-name="Path 2187" d="M-92.643,700.44l2.768,10.66-10.232-2.62Z" transform="translate(158.349 -613.721)" fill="#a7dee3" opacity="0.51" style="mix-blend-mode: soft-light;isolation: isolate"/>
        <path id="Path_2188" data-name="Path 2188" d="M-75.3,1194.762l34.013,20.013-5.392,35.8-25.566,3.833,1.063-17.179-1.063-4.066v-15.125Z" transform="translate(144.103 -897.57)" fill="#a7dee3" opacity="0.16" style="mix-blend-mode: soft-light;isolation: isolate"/>
        <path id="Path_2189" data-name="Path 2189" d="M-57.145,1114.978s-1.135.454-2.937,1.121c-4.27,1.589-12.271,4.455-17.634,5.576-4.88,1.021-15.038-1.263-21.734-3.037-3.788-1.007-6.469-1.844-6.469-1.844s6.866-4.8,23.294-6.3S-57.145,1114.978-57.145,1114.978Z" transform="translate(161.686 -849.043)" fill="#fdcbdb"/>
        <path id="Path_2190" data-name="Path 2190" d="M-51.382,1121.162l-.014.014c-4.27,1.589-12.271,4.455-17.634,5.576-4.88,1.021-15.038-1.263-21.734-3.036l-.029-.014s6.668-4.2,21.223-4.568S-51.382,1121.162-51.382,1121.162Z" transform="translate(153 -854.12)" fill="#ffdede"/>
        <ellipse id="Ellipse_379" data-name="Ellipse 379" cx="39.413" cy="28.098" rx="39.413" ry="28.098" transform="translate(36.329 251.396) rotate(-10.957)" fill="url(#radial-gradient-4)" style="mix-blend-mode: screen;isolation: isolate"/>
      </g>
      <rect id="Rectangle_3" data-name="Rectangle 3" width="1234.081" height="548.48" transform="translate(-576.17 -2318.19)" fill="none"/>
      <g id="Group_42" data-name="Group 42" transform="translate(15.062 -1924.716)">
        <g id="Group_691" data-name="Group 691" transform="translate(0 0.079)">
          <path id="Path_2205" data-name="Path 2205" d="M1681.495,1117.6l53.569,4.06,43.377-1.966-21.927-3.293,25.235-2.188H1913.72l-50.688-4.259-10.206-11.713-18.085-3.773-8.832-1.953-13.879-2.691,6.187-63.193-1.45-4.5v-43.5l-21.475-21.388-7.025,20.4-14.088,11.477-12.617,56.022s-20.176,5.047-31.747,18.505l0,29.028-5.472,5.571-3.574,12.3-7.585,1.779Z" transform="translate(-1573.992 -957.234)" fill="#feb2ca"/>
          <path id="Path_2206" data-name="Path 2206" d="M1798.9,1215.791l6.174,8.326v8.816l7.358,3.058,0,27.917-11.824-5.562-1.712-13.526Z" transform="translate(-1643.08 -1109.385)" fill="#364472" opacity="0.22" style="mix-blend-mode: multiply;isolation: isolate"/>
          <path id="Path_2207" data-name="Path 2207" d="M1876.048,1090.718l14.647,6.174,4.011,43.768,3.677-65.821v-32.516l-9.717-7.627Z" transform="translate(-1688.479 -1002.817)" fill="#364472" opacity="0.3" style="mix-blend-mode: multiply;isolation: isolate"/>
          <path id="Path_2208" data-name="Path 2208" d="M1940.941,994.523l4.653,1.379-2.326,38.326,7.014-39.775-6.382-8.523Z" transform="translate(-1726.666 -974.121)" fill="#364472" opacity="0.2" style="mix-blend-mode: multiply;isolation: isolate"/>
          <path id="Path_2209" data-name="Path 2209" d="M1805.079,1197.656s6.127,1.138,18.328-2.2S1845.3,1177,1845.3,1177l-14.647-6.173s-15.973,2.356-31.747,18.505Z" transform="translate(-1643.083 -1082.924)" fill="#a7dee3" opacity="0.51" style="mix-blend-mode: soft-light;isolation: isolate"/>
          <path id="Path_2210" data-name="Path 2210" d="M1916.424,1025.912l4.372-3.547v-2.312l4.653-11.866-4.653-1.379-14.089,11.476Z" transform="translate(-1706.521 -986.407)" fill="#a7dee3" opacity="0.51" style="mix-blend-mode: soft-light;isolation: isolate"/>
          <path id="Path_2211" data-name="Path 2211" d="M1948.13,969.044l6.382,8.523,8.876,1.448,1.144-1.379h1.98l7.16.986L1952.2,957.234Z" transform="translate(-1730.896 -957.234)" fill="#a7dee3" opacity="0.51" style="mix-blend-mode: soft-light;isolation: isolate"/>
          <path id="Path_2212" data-name="Path 2212" d="M1973.873,1117.368l-5.331,6.295-15.572,2-4.84,4.159,6.382-2.156h15.123v4.792l5.486-11.6Z" transform="translate(-1730.896 -1051.467)" fill="#a7dee3" opacity="0.51" style="mix-blend-mode: soft-light;isolation: isolate"/>
          <path id="Path_2213" data-name="Path 2213" d="M1844.936,1182.581s-2.651,9.324-10.807,14.038-22.06,4.011-22.06,4.011-4.258-2.44-4.122-6.122,20.946-14.267,25.18-14.823S1844.936,1182.581,1844.936,1182.581Z" transform="translate(-1648.402 -1088.102)" fill="#fdcbdb"/>
          <path id="Path_2214" data-name="Path 2214" d="M1821.208,1211.222a38.778,38.778,0,0,1,13.038-10.518,27.338,27.338,0,0,1,16.461-2.865s-1.565,4.856-8.772,9.339S1821.208,1211.222,1821.208,1211.222Z" transform="translate(-1656.207 -1098.66)" fill="#ffdede"/>
          <path id="Path_2215" data-name="Path 2215" d="M1831.786,1252.793l21.833-4.136,13.237-4.313,1.8,19.685-26.477,11.118-8.841-6.763Z" transform="translate(-1662.432 -1126.188)" fill="#a7dee3" opacity="0.16" style="mix-blend-mode: soft-light;isolation: isolate"/>
          <path id="Path_2216" data-name="Path 2216" d="M1963.387,1008.09l-1.762,21-7.114,9.359-6.382,6.239,6.382-38.048Z" transform="translate(-1730.896 -986.308)" fill="#a7dee3" opacity="0.16" style="mix-blend-mode: soft-light;isolation: isolate"/>
          <path id="Path_2217" data-name="Path 2217" d="M1480.195,1333.071l-19.266.762s-12.086,1-19.587,1.457h-.013a40.962,40.962,0,0,1-5.776.174c-.909-.388-13.436-2.18-15.281-2.621,0,0,9.653-6.818,15.054-10.014a12.715,12.715,0,0,1,3.329-1.618c2.18-.174,16.712.829,18.637,1.5.762.268,1.5,1.792,2.112,3.516a49.083,49.083,0,0,1,1.524,5.615Z" transform="translate(-1420.272 -1171.41)" fill="#feb2ca"/>
          <path id="Path_2218" data-name="Path 2218" d="M1441.329,1335.319a40.919,40.919,0,0,1-5.776.174c-.909-.388-13.436-2.179-15.281-2.62,0,0,9.653-6.818,15.054-10.014l3.329-1.618-1.564,5.829,1.564,1.083-.775,3.77Z" transform="translate(-1420.272 -1171.438)" fill="#364472" opacity="0.26" style="mix-blend-mode: multiply;isolation: isolate"/>
          <path id="Path_2219" data-name="Path 2219" d="M1483.454,1326.226c-7.379,1.1-22.314.816-22.314.816l1.564-5.83c2.18-.174,16.712.829,18.637,1.5C1482.1,1322.978,1482.839,1324.5,1483.454,1326.226Z" transform="translate(-1444.321 -1171.41)" fill="#a7dee3" opacity="0.51" style="mix-blend-mode: soft-light;isolation: isolate"/>
        </g>
        <ellipse id="Ellipse_380" data-name="Ellipse 380" cx="31.068" cy="31.068" rx="31.068" ry="31.068" transform="translate(147.163)" fill="url(#radial-gradient-5)" style="mix-blend-mode: screen;isolation: isolate"/>
      </g>
      <rect id="Rectangle_4" data-name="Rectangle 4" width="1028.249" height="580.73" transform="translate(-477.951 -2390.956)" fill="none"/>
    </g>
    <g id="Group_6" data-name="Group 6" transform="translate(83.934 -2.427)">
      <g id="Objects" transform="translate(33.954 30.593)">
        <g id="Group_1" data-name="Group 1" transform="translate(66.453 177.934)">
          <path id="Path_1" data-name="Path 1" d="M81.664,160.516a.784.784,0,0,1-.754-.566c-1.1-3.784-1.193-14.877-1.2-15.347a.788.788,0,0,1,.781-.792h0a.786.786,0,0,1,.786.781c0,.113.093,11.342,1.133,14.919a.785.785,0,0,1-.536.973A.749.749,0,0,1,81.664,160.516Z" transform="translate(-74.251 -143.811)" fill="#434040"/>
          <path id="Path_2" data-name="Path 2" d="M84.407,153.742a4.3,4.3,0,0,0-2.882-.842,6.889,6.889,0,0,0-4.544,1.48,2.411,2.411,0,0,0-.743,1.73c0,.487.261,1.617,2.587,1.617h0c2.057,0,5.931-1.009,6-2.937A1.415,1.415,0,0,0,84.407,153.742Z" transform="translate(-76.238 -138.616)" fill="#434040"/>
        </g>
        <g id="Group_2" data-name="Group 2" transform="translate(90.635 176.926)">
          <path id="Path_3" data-name="Path 3" d="M97.05,159.875a.787.787,0,0,1-.754-.566c-1.1-3.784-1.193-14.877-1.194-15.347a.786.786,0,0,1,.78-.792h.006a.787.787,0,0,1,.786.781c0,.113.091,11.342,1.132,14.918a.786.786,0,0,1-.534.974A.818.818,0,0,1,97.05,159.875Z" transform="translate(-89.638 -143.17)" fill="#434040"/>
          <path id="Path_4" data-name="Path 4" d="M99.793,153.1a4.3,4.3,0,0,0-2.881-.842,6.885,6.885,0,0,0-4.544,1.479,2.418,2.418,0,0,0-.743,1.732c0,.486.261,1.617,2.585,1.617h0c2.059,0,5.931-1.009,6-2.939A1.405,1.405,0,0,0,99.793,153.1Z" transform="translate(-91.625 -137.975)" fill="#434040"/>
        </g>
        <path id="Path_5" data-name="Path 5" d="M143.944,201.563c-6.286,9.87-35.33,10.986-44.854,5.831-2.876-1.556-4.621-24.328-6.349-50.087-.377-5.878-.77-11.913-1.179-17.869-.346-5.155-.707-10.263-1.084-15.2-.487-6.365-.99-12.4-1.556-17.853-.723-6.946-1.524-12.9-2.452-17.225-.88-4.243-1.917-6.915-3.08-7.449C76,78.349,62.268,102,51.77,103.919c-7.4,1.336-18.168-13.8-17.806-22.207.346-8.754,25.916-35.644,39.007-45.749,7.4-5.7,37-8.062,45.749-1.006,4.338,3.5,9.508,26.623,14.1,54.6.739,4.6,1.477,9.351,2.2,14.176.707,4.762,1.4,9.6,2.043,14.443.849,6.129,1.634,12.274,2.357,18.278.88,7.135,1.666,14.066,2.326,20.6C144.243,180.944,145.311,199.379,143.944,201.563Z" transform="translate(-33.954 -30.593)" fill="#a7dee3"/>
        <g id="Group_3" data-name="Group 3" transform="translate(71.793 66.521)">
          <ellipse id="Ellipse_1" data-name="Ellipse 1" cx="6.324" cy="5.188" rx="6.324" ry="5.188" transform="translate(0 0.001)" fill="#123535"/>
          <path id="Path_6" data-name="Path 6" d="M80.914,74.316l1.609,2.144c.7.938,1.911.506,2.163-.775l.542-2.761A7.007,7.007,0,0,0,80.914,74.316Z" transform="translate(-78.905 -72.919)" fill="#fff"/>
          <path id="Path_7" data-name="Path 7" d="M88.265,74.556l-1.9,1.9c-.7.938-1.911.506-2.163-.775l-.544-2.761A6.793,6.793,0,0,1,88.265,74.556Z" transform="translate(-77.336 -72.92)" fill="#fff"/>
        </g>
        <g id="Group_4" data-name="Group 4" transform="translate(55.295 70.764)">
          <path id="Path_8" data-name="Path 8" d="M77.956,92.025c-.223,0-.451-.008-.682-.024a8.3,8.3,0,0,1-6-2.769c-2.6-3.06-2.1-7.464-2.081-7.649a.633.633,0,0,1,1.257.143c0,.039-.449,4.078,1.8,6.726a7.076,7.076,0,0,0,5.116,2.318c7.922.591,9.816-10.737,9.835-10.852a.631.631,0,0,1,.723-.514.618.618,0,0,1,.526.7C88.432,80.23,86.449,92.025,77.956,92.025Z" transform="translate(-69.138 -73.459)" fill="#1c100a"/>
          <path id="Path_9" data-name="Path 9" d="M80.474,81.5c.852.853,2.582,1.526,3.654.786s2.793-3.712,2.4-4.353c-.6-.989-2.26,1.636-2.26,1.636s1.469-2.961.918-3.311c-.946-.6-2.463,2.455-2.463,2.455s-.222-2.959-.842-3.047-1.045,3.72-1.045,3.72-.853-2.593-1.425-1.853S79.553,80.579,80.474,81.5Z" transform="translate(-63.382 -75.596)" fill="#1e120d"/>
          <path id="Path_10" data-name="Path 10" d="M97.006,92.379c-9.095,0-10.241-12.537-10.25-12.662a.621.621,0,0,1,.58-.663.631.631,0,0,1,.682.564c.009.115,1.059,11.529,8.988,11.529a7.1,7.1,0,0,0,5.281-1.95c2.452-2.493,2.306-6.538,2.3-6.577a.624.624,0,0,1,.605-.643.64.64,0,0,1,.658.591c.008.187.168,4.614-2.654,7.481A8.329,8.329,0,0,1,97.006,92.379Z" transform="translate(-59.069 -73.658)" fill="#1c100a"/>
          <path id="Path_11" data-name="Path 11" d="M90.779,81.437c-.841.864-2.56,1.561-3.645.836S84.29,78.6,84.67,77.952c.585-1,2.282,1.6,2.282,1.6s-1.069-3.274-.448-3.487c1.278-.438,1.98,2.61,1.98,2.61s.178-2.981.8-3.055c1.128-.14,1.1,3.7,1.1,3.7s.817-2.6,1.4-1.872S91.684,80.5,90.779,81.437Z" transform="translate(-60.291 -75.62)" fill="#1e120d"/>
        </g>
      </g>
      <g id="Designed_by_Freepik" data-name="Designed by Freepik" transform="translate(45.333 36.716)">
        <g id="Group_5" data-name="Group 5" transform="translate(32.727)">
          <circle id="Ellipse_2" data-name="Ellipse 2" cx="20.412" cy="20.412" r="20.412" fill="#fff"/>
          <path id="Path_12" data-name="Path 12" d="M94.322,37.954A20.407,20.407,0,0,1,65.483,66.793,20.407,20.407,0,1,0,94.322,37.954Z" transform="translate(-60.037 -32.509)" fill="#8ecbce"/>
          <circle id="Ellipse_3" data-name="Ellipse 3" cx="12.393" cy="12.393" r="12.393" transform="translate(7.654 8.383)" fill="#123535"/>
          <circle id="Ellipse_4" data-name="Ellipse 4" cx="4.192" cy="4.192" r="4.192" transform="translate(23.692 10.206)" fill="#fff"/>
          <circle id="Ellipse_5" data-name="Ellipse 5" cx="1.276" cy="1.276" r="1.276" transform="translate(18.954 17.131)" fill="#fff"/>
        </g>
        <circle id="Ellipse_6" data-name="Ellipse 6" cx="1.942" cy="1.942" r="1.942" transform="translate(0 32.03)" fill="#8ecbce"/>
        <circle id="Ellipse_7" data-name="Ellipse 7" cx="1.942" cy="1.942" r="1.942" transform="translate(10.243 45.943)" fill="#8ecbce"/>
        <circle id="Ellipse_8" data-name="Ellipse 8" cx="3.544" cy="3.544" r="3.544" transform="translate(15.412 35.622)" fill="#8ecbce"/>
        <circle id="Ellipse_9" data-name="Ellipse 9" cx="1.136" cy="1.136" r="1.136" transform="translate(8.258 38.639)" fill="#8ecbce"/>
      </g>
    </g>
  </g>
</svg>
