<svg xmlns="http://www.w3.org/2000/svg" xmlns:xlink="http://www.w3.org/1999/xlink" width="380" height="254" viewBox="0 0 380 254">
  <defs>
    <linearGradient id="linear-gradient" x1="0.5" y1="1" x2="0.5" gradientUnits="objectBoundingBox">
      <stop offset="0" stop-color="#ffdee9"/>
      <stop offset="1" stop-color="#5b679a"/>
    </linearGradient>
    <radialGradient id="radial-gradient" cx="0.5" cy="0.5" r="0.701" gradientTransform="translate(0.144 -0.1) scale(0.713 0.713)" gradientUnits="objectBoundingBox">
      <stop offset="0" stop-color="#feb2ca"/>
      <stop offset="0.12" stop-color="#d092a5"/>
      <stop offset="0.301" stop-color="#926674"/>
      <stop offset="0.475" stop-color="#5d414a"/>
      <stop offset="0.636" stop-color="#35252a"/>
      <stop offset="0.782" stop-color="#181013"/>
      <stop offset="0.908" stop-color="#060405"/>
      <stop offset="1"/>
    </radialGradient>
    <radialGradient id="radial-gradient-2" cy="0.5" r="0.5" gradientTransform="matrix(0, 1, -1, 0, -2.792, -3.117)" xlink:href="#radial-gradient"/>
    <radialGradient id="radial-gradient-3" cy="0.5" r="0.5" gradientTransform="matrix(0, 1, -1, 0, -2.841, -3.263)" xlink:href="#radial-gradient"/>
    <radialGradient id="radial-gradient-4" cy="0.5" r="0.701" gradientTransform="translate(0.07 2.04) scale(0.713 0.713)" xlink:href="#radial-gradient"/>
    <radialGradient id="radial-gradient-5" cy="0.5" r="0.5" gradientTransform="translate(0)" xlink:href="#radial-gradient"/>
    <linearGradient id="linear-gradient-2" x1="-0.212" y1="0.11" x2="0.751" y2="0.966" gradientUnits="objectBoundingBox">
      <stop offset="0" stop-color="#a7dee3"/>
      <stop offset="1" stop-color="#d0d3fa"/>
    </linearGradient>
    <linearGradient id="linear-gradient-3" x1="0.5" y1="1" x2="0.5" y2="0" xlink:href="#linear-gradient-2"/>
    <clipPath id="clip-path">
      <path id="Path_35" data-name="Path 35" d="M174.227,37,204.773-1l2.552,52.1S182.859,55.871,174.227,37Z" transform="translate(-174.227 1)" fill="none"/>
    </clipPath>
    <linearGradient id="linear-gradient-4" x1="0" y1="0.5" x2="1" y2="0.5" xlink:href="#linear-gradient-2"/>
    <clipPath id="clip-grade_2">
      <rect width="380" height="254"/>
    </clipPath>
  </defs>
  <g id="grade_2" data-name="grade 2" clip-path="url(#clip-grade_2)">
    <rect width="380" height="254" fill="#fff"/>
    <g id="Group_696" data-name="Group 696" transform="translate(245.955 2068.833)">
      <rect id="Rectangle_1" data-name="Rectangle 1" width="1048.99" height="316.886" transform="translate(-666.841 -2259.491)" fill="url(#linear-gradient)"/>
      <rect id="Rectangle_2" data-name="Rectangle 2" width="1031.906" height="176.176" transform="translate(-618.303 -1991.05)" fill="#efa8c1"/>
      <g id="Group_39" data-name="Group 39" transform="translate(-538.256 -2247.615)" opacity="0.81" style="mix-blend-mode: screen;isolation: isolate">
        <ellipse id="Ellipse_229" data-name="Ellipse 229" cx="0.516" cy="0.516" rx="0.516" ry="0.516" transform="translate(509.969 61.233)" fill="#a7dee3"/>
        <ellipse id="Ellipse_230" data-name="Ellipse 230" cx="0.516" cy="0.516" rx="0.516" ry="0.516" transform="translate(615.499 16.664)" fill="#a7dee3"/>
        <path id="Path_1804" data-name="Path 1804" d="M1940.849,501.831a.516.516,0,1,0,.516-.516A.517.517,0,0,0,1940.849,501.831Z" transform="translate(-1266.387 -472.814)" fill="#a7dee3"/>
        <ellipse id="Ellipse_231" data-name="Ellipse 231" cx="0.516" cy="0.516" rx="0.516" ry="0.516" transform="translate(414.674 151.452)" fill="#a7dee3"/>
        <path id="Path_1805" data-name="Path 1805" d="M826.423,953.355a.516.516,0,1,0,.517-.516A.517.517,0,0,0,826.423,953.355Z" transform="translate(-528.518 -771.771)" fill="#a7dee3"/>
        <path id="Path_1806" data-name="Path 1806" d="M1313.343,954.884a.517.517,0,1,0,.516-.517A.516.516,0,0,0,1313.343,954.884Z" transform="translate(-850.911 -772.783)" fill="#a7dee3"/>
        <path id="Path_1807" data-name="Path 1807" d="M650.183,809.516A.516.516,0,1,0,650.7,809,.517.517,0,0,0,650.183,809.516Z" transform="translate(-411.829 -676.534)" fill="#a7dee3"/>
        <path id="Path_1808" data-name="Path 1808" d="M688.142,1026.312a.517.517,0,1,0,.516-.516A.517.517,0,0,0,688.142,1026.312Z" transform="translate(-436.962 -820.076)" fill="#a7dee3"/>
        <path id="Path_1809" data-name="Path 1809" d="M762.774,759.832a.517.517,0,1,0,.516-.516A.516.516,0,0,0,762.774,759.832Z" transform="translate(-486.376 -643.638)" fill="#a7dee3"/>
        <path id="Path_1810" data-name="Path 1810" d="M1862.5,1198.621a.517.517,0,1,0,.516-.517A.516.516,0,0,0,1862.5,1198.621Z" transform="translate(-1214.509 -934.163)" fill="#a7dee3"/>
        <path id="Path_1811" data-name="Path 1811" d="M1710.308,1061.134a.516.516,0,1,0,.516-.516A.516.516,0,0,0,1710.308,1061.134Z" transform="translate(-1113.745 -843.132)" fill="#a7dee3"/>
        <path id="Path_1812" data-name="Path 1812" d="M1724.214,1271.578a.516.516,0,1,0,.517-.516A.517.517,0,0,0,1724.214,1271.578Z" transform="translate(-1122.952 -982.469)" fill="#a7dee3"/>
        <path id="Path_1813" data-name="Path 1813" d="M1798.846,1005.1a.516.516,0,1,0,.516-.516A.517.517,0,0,0,1798.846,1005.1Z" transform="translate(-1172.366 -806.031)" fill="#a7dee3"/>
        <path id="Path_1814" data-name="Path 1814" d="M1812.639,770.01a.517.517,0,1,0,.516-.516A.516.516,0,0,0,1812.639,770.01Z" transform="translate(-1181.499 -650.377)" fill="#a7dee3"/>
        <path id="Path_1815" data-name="Path 1815" d="M1031.306,868.7a.517.517,0,1,0,.516-.516A.516.516,0,0,0,1031.306,868.7Z" transform="translate(-664.173 -715.718)" fill="#a7dee3"/>
        <path id="Path_1816" data-name="Path 1816" d="M880.6,949.743a.516.516,0,1,0,.516-.517A.516.516,0,0,0,880.6,949.743Z" transform="translate(-564.387 -769.38)" fill="#a7dee3"/>
        <path id="Path_1817" data-name="Path 1817" d="M459.69,835.552a.517.517,0,1,0,.517-.517A.517.517,0,0,0,459.69,835.552Z" transform="translate(-285.702 -693.773)" fill="#a7dee3"/>
        <path id="Path_1818" data-name="Path 1818" d="M321.409,908.509a.516.516,0,1,0,.516-.516A.516.516,0,0,0,321.409,908.509Z" transform="translate(-194.145 -742.078)" fill="#a7dee3"/>
        <ellipse id="Ellipse_232" data-name="Ellipse 232" cx="0.516" cy="0.516" rx="0.516" ry="0.516" transform="translate(192.293 140.043)" fill="#a7dee3"/>
        <path id="Path_1819" data-name="Path 1819" d="M982.694,478.495a.844.844,0,1,0,.844-.844A.844.844,0,0,0,982.694,478.495Z" transform="translate(-631.986 -457.146)" fill="#a7dee3"/>
        <path id="Path_1820" data-name="Path 1820" d="M1272,417.81a.844.844,0,1,0,.844-.844A.844.844,0,0,0,1272,417.81Z" transform="translate(-823.541 -416.966)" fill="#a7dee3"/>
        <path id="Path_1821" data-name="Path 1821" d="M1123.9,633.959a.844.844,0,1,0,.844-.844A.844.844,0,0,0,1123.9,633.959Z" transform="translate(-725.481 -560.08)" fill="#a7dee3"/>
        <circle id="Ellipse_233" data-name="Ellipse 233" cx="0.844" cy="0.844" r="0.844" transform="translate(191.029 99.75)" fill="#a7dee3"/>
        <path id="Path_1822" data-name="Path 1822" d="M1483.608,651.793a.844.844,0,1,0,.844-.844A.844.844,0,0,0,1483.608,651.793Z" transform="translate(-963.645 -571.888)" fill="#a7dee3"/>
        <ellipse id="Ellipse_234" data-name="Ellipse 234" cx="0.516" cy="0.516" rx="0.516" ry="0.516" transform="translate(159.262 62.921)" fill="#a7dee3"/>
        <circle id="Ellipse_235" data-name="Ellipse 235" cx="0.844" cy="0.844" r="0.844" transform="translate(0 22.193)" fill="#a7dee3"/>
        <ellipse id="Ellipse_236" data-name="Ellipse 236" cx="0.844" cy="0.844" rx="0.844" ry="0.844" transform="translate(97.756 1.688)" fill="#a7dee3"/>
        <circle id="Ellipse_237" data-name="Ellipse 237" cx="0.844" cy="0.844" r="0.844" transform="translate(47.713 74.723)" fill="#a7dee3"/>
        <circle id="Ellipse_238" data-name="Ellipse 238" cx="0.844" cy="0.844" r="0.844" transform="translate(169.255 80.749)" fill="#a7dee3"/>
      </g>
      <path id="Path_78" data-name="Path 78" d="M1910.488,1154.659l-440.254,28.52,92.282,4.708,16.939-2.873,101.22,1.671-66.9,4.955,89.2,2.867,205.006-2.338Z" transform="translate(-1493.045 -3153.013)" fill="#5b679a" opacity="0.19" style="mix-blend-mode: multiply;isolation: isolate"/>
      <path id="Path_79" data-name="Path 79" d="M901.849,1170.825l81.324,9.036-76.537,2.761,78.148,3.4,38.5.186,11.677-1.9,41.665,1.337-64.933,4.49-21.8.9,19.863,3.611,17.745,1.488,30.637-.734,119.21,2.937-52.486-4.763-11.245-1.512,40.681-2.081,31.439-1.249,16.337-.929,39.307-2.5,6.578-7.452-7.662-5.349Z" transform="translate(-1116.714 -3163.716)" fill="#5b679a" opacity="0.22" style="mix-blend-mode: multiply;isolation: isolate"/>
      <g id="Group_43" data-name="Group 43" transform="translate(-224.881 -2023.288)" opacity="0.24">
        <path id="Path_793" data-name="Path 793" d="M712.919,625.479c-.024.02-.047.035-.07.055a3.37,3.37,0,0,1-.836.332,80.045,80.045,0,0,1-10.149,1.374,43.692,43.692,0,0,1-12.257-1.21c-.7-.223-.945-.421-.5-.55C690.934,624.948,713.964,624.574,712.919,625.479Z" transform="translate(-688.883 -624.932)" fill="#af6ba7" opacity="0.24"/>
        <path id="Path_794" data-name="Path 794" d="M712.919,625.479c-.024.02-.047.035-.07.055l-.836.332a9.785,9.785,0,0,0-1.991-.609c-.484,0-10-.293-13.514,0s-6.87.777-6.87.777l-.031,0c-.7-.223-.945-.421-.5-.55C690.934,624.948,713.964,624.574,712.919,625.479Z" transform="translate(-688.883 -624.932)" fill="#af6ba7"/>
      </g>
      <g id="Group_44" data-name="Group 44" transform="translate(-257.996 -2023.096)" opacity="0.24">
        <path id="Path_795" data-name="Path 795" d="M617.744,626.425a10.2,10.2,0,0,1-2.936.509,11.466,11.466,0,0,1-2.919-.559l-.031-.01c-.523-.21-.757-.454-.273-.709.8-.42,5.621-.37,6.41.24C618.243,626.091,618.095,626.27,617.744,626.425Z" transform="translate(-611.32 -625.383)" fill="#af6ba7" opacity="0.24"/>
        <path id="Path_796" data-name="Path 796" d="M617.744,626.425a12.592,12.592,0,0,0-1.718-.264,19.2,19.2,0,0,0-4.138.214l-.031-.01c-.523-.21-.757-.454-.273-.709.8-.42,5.621-.37,6.41.24C618.243,626.091,618.095,626.27,617.744,626.425Z" transform="translate(-611.32 -625.383)" fill="#af6ba7"/>
      </g>
      <g id="Group_41" data-name="Group 41" transform="translate(-707.319 -2154.979)">
        <path id="Path_2148" data-name="Path 2148" d="M152.889,778.074C135,765.925-5.057,719.974-5.057,719.974l-15.119-23.2-3.89.885L-30.018,679.3h-8.177l-32.7-82.117-8.177-4.088-7.152-24.344-21.456-19.021c-19.8-10.856-47.745-20.127-49.48-20.7l-.081-.023s-10.786,9.14-14.744,15.9l-10.967,44.031-6.129,6.6-9.382,53.524-3.406,1.746L-219.6,692.59l-5.622,5.791-11.674,5.9V811l59-.272s97.826-13.9,119.281-15.154c9-.524,28.223-.99,53.557-1.409,111.587-1.805,341.889-2.539,341.889-2.539Z" transform="translate(236.895 -517.737)" fill="#feb2ca"/>
        <path id="Path_2149" data-name="Path 2149" d="M433.557,1063.62l4.319,1.359,2.281-1.359Z" transform="translate(-199.175 -865.456)" fill="#fff" opacity="0.2" style="mix-blend-mode: overlay;isolation: isolate"/>
        <path id="Path_2150" data-name="Path 2150" d="M475.2,1082.546l8.153-8.93,32.077,9.707,8.175,13.015,2.914,4.554s-36.989-1.262-41.048-3.98S475.2,1082.546,475.2,1082.546Z" transform="translate(-226.264 -871.958)" fill="#feb2ca"/>
        <path id="Path_2151" data-name="Path 2151" d="M629.476,1183.494l11.271-54.17s15.787-3.39,25.185-2.613,17.535,11.793,18.853,13.856,0,29.427,0,29.427H687.8l2.675,11.432s-21.129,4.591-26.29,4.883S629.476,1183.494,629.476,1183.494Z" transform="translate(-326.603 -906.416)" fill="#feb2ca"/>
        <path id="Path_2152" data-name="Path 2152" d="M22.128,562.052l8.445,4.367-39.6-6.29V529.007l.081.023c1.736.571,29.679,9.842,49.48,20.7l21.456,19.021Z" transform="translate(88.689 -517.737)" fill="#a7dee3" opacity="0.51" style="mix-blend-mode: soft-light;isolation: isolate"/>
        <path id="Path_2153" data-name="Path 2153" d="M90.268,712.328l-10.9,11.182-36.108,7.959H54.323l-30.867,9.8L87.811,726.8l10.635-10.384Z" transform="translate(67.559 -636.971)" fill="#a7dee3" opacity="0.51" style="mix-blend-mode: soft-light;isolation: isolate"/>
        <path id="Path_2154" data-name="Path 2154" d="M127.582,959.221h4.275l11.147,3-60.068,7.875H51.777l20.128-4.849h14.14Z" transform="translate(49.139 -797.554)" fill="#a7dee3" opacity="0.51" style="mix-blend-mode: soft-light;isolation: isolate"/>
        <path id="Path_2155" data-name="Path 2155" d="M334.9,958.921l-10.739,3.1,2.563-3.1Z" transform="translate(-128.022 -797.359)" fill="#a7dee3" opacity="0.51" style="mix-blend-mode: soft-light;isolation: isolate"/>
        <path id="Path_2156" data-name="Path 2156" d="M269.7,1009.779l-11.326,3.883-16.435,3.494h8.736l-14.754,6.018-21.16,3.3,34.249-3.495,24.573-14.083Z" transform="translate(-56.869 -829.863)" fill="#a7dee3" opacity="0.51" style="mix-blend-mode: soft-light;isolation: isolate"/>
        <path id="Path_2157" data-name="Path 2157" d="M426.282,1075.271l7.008,7.527,10.095,2.572,1.872-3.8Z" transform="translate(-194.444 -873.034)" fill="#a7dee3" opacity="0.51" style="mix-blend-mode: soft-light;isolation: isolate"/>
        <path id="Path_2158" data-name="Path 2158" d="M498.528,1073.616l2.118,8.105s8.571,8.2,29.241,7.814l.719-6.212Z" transform="translate(-241.433 -871.958)" fill="#a7dee3" opacity="0.51" style="mix-blend-mode: soft-light;isolation: isolate"/>
        <path id="Path_2159" data-name="Path 2159" d="M661.716,1129.255a37.257,37.257,0,0,0,6.433,7.094c3.689,3.008,23.938,7.907,28.664,7.545a20.192,20.192,0,0,0,8.941-3.4s-6.228-10.393-15.453-13.14S661.716,1129.255,661.716,1129.255Z" transform="translate(-347.573 -906.347)" fill="#a7dee3" opacity="0.51" style="mix-blend-mode: soft-light;isolation: isolate"/>
        <path id="Path_2160" data-name="Path 2160" d="M227.867,1154.98l13.9-3.342,28.343,1.8-7.959,1.547,27.373,2.773,31.889,8.043-62.755,2.051,3.689-1.747-17.472-5.831-35.332-5.29H182.254l27.866-1.547Z" transform="translate(-35.725 -922.704)" fill="#a7dee3" opacity="0.51" style="mix-blend-mode: soft-light;isolation: isolate"/>
        <path id="Path_2161" data-name="Path 2161" d="M851.633,1241.466l-14.219,4.3,103.643,3.215Z" transform="translate(-461.849 -981.129)" fill="#a7dee3" opacity="0.51" style="mix-blend-mode: soft-light;isolation: isolate"/>
        <path id="Path_2162" data-name="Path 2162" d="M14.293,829.277H27.4l35.041,5.145L38.366,842.09,27.4,834.228Z" transform="translate(73.519 -713.037)" fill="#a7dee3" opacity="0.51" style="mix-blend-mode: soft-light;isolation: isolate"/>
        <path id="Path_2163" data-name="Path 2163" d="M674.286,1133.7s14.848-4.078,22.908-1.771,14.269,10.8,14.269,11.575-10.969,2.426-17.375.776A150.31,150.31,0,0,1,677,1138.358C676.324,1137.97,674.286,1133.7,674.286,1133.7Z" transform="translate(-355.748 -909.424)" fill="#fdcbdb"/>
        <path id="Path_2164" data-name="Path 2164" d="M509.24,1080.927c.1,1.107.952,4.951,1.8,5.626s5.83,4.081,10.408,4.975,11.646.383,12.157,0-.035-1.177,0-2.6S509.24,1080.927,509.24,1080.927Z" transform="translate(-248.4 -876.713)" fill="#fdcbdb"/>
        <path id="Path_2165" data-name="Path 2165" d="M384.69,959.96l-2.475-40.185s-.663-2.766-5.2-3.058-7.76,4.828-7.76,4.828l-.048,28.271-1.456,18.928s17.375,10.095,27.47,10.92l-3.4-10.241Z" transform="translate(-156.375 -769.9)" fill="#feb2ca"/>
        <path id="Path_2166" data-name="Path 2166" d="M372.055,922.252a8.655,8.655,0,0,0,6.552,1.724,9.5,9.5,0,0,0,6.406-3.494s-1.421-3.35-6.285-2.572A9.193,9.193,0,0,0,372.055,922.252Z" transform="translate(-159.174 -770.608)" fill="#a7dee3" opacity="0.51" style="mix-blend-mode: soft-light;isolation: isolate"/>
        <path id="Path_2167" data-name="Path 2167" d="M376.359,924.495a8.215,8.215,0,0,1,4.222-3.081c2.669-.728,6.115,1.068,6.115,1.068a6.742,6.742,0,0,1-5.363,3.009C377.767,925.54,376.359,924.495,376.359,924.495Z" transform="translate(-161.973 -772.851)" fill="#5b679a"/>
        <path id="Path_2168" data-name="Path 2168" d="M687.367,1153.863s8.788-.026,13.052.289,15.773,5.095,15.773,5.095a33.935,33.935,0,0,1-12.495,0C697.839,1157.89,687.367,1153.863,687.367,1153.863Z" transform="translate(-364.256 -924.151)" fill="#ffdede"/>
        <path id="Path_2169" data-name="Path 2169" d="M514.4,1097.02a77.765,77.765,0,0,1,11.244.748c4.077.776,9.05,4.588,9.05,4.588s-5.981.588-9.192-.24S517.059,1099.183,514.4,1097.02Z" transform="translate(-251.756 -887.18)" fill="#ffdede"/>
        <path id="Path_2170" data-name="Path 2170" d="M-82.576,646.843l25.711-28.808,35.509,42.593,4.094-36.3-8.445-4.368,13.989,2.351,7.191,43.164L-24.64,669.9l10,.235-30.867,9.8-11.357,5.824L-80.3,681.8V655.6Z" transform="translate(136.524 -575.642)" fill="#6776a5" opacity="0.29" style="mix-blend-mode: multiply;isolation: isolate"/>
        <path id="Path_2171" data-name="Path 2171" d="M91.173,989.459c-25.334.419-44.553.885-53.557,1.41-21.456,1.258-98.29,12.007-98.29,12.007l11.024-72.262h0a52.847,52.847,0,0,0-25.032-5.552l-14.261-81.254,36.09-14.531,13.1,4.951,10.973,7.862-9.54,47.756-1.433-33.057-4.571,21.093-5.329,7.693,1.369,10.58-4.573,21.1,58.717,28.06H33.143l15.631,32.055,2.7-28.63L68.483,950.6l17.472,5.836-3.692,1.747.776,13.779,4.622,5.167Z" transform="translate(140.665 -713.037)" fill="#6776a5" opacity="0.29" style="mix-blend-mode: multiply;isolation: isolate"/>
        <path id="Path_2172" data-name="Path 2172" d="M253.673,1049.182v39.16l-17.747-1.548-14-34.373Z" transform="translate(-61.53 -856.066)" fill="#364472" opacity="0.29" style="mix-blend-mode: multiply;isolation: isolate"/>
        <path id="Path_2173" data-name="Path 2173" d="M359.324,960.136l-6.843,3.922,5.339,13.691,6.309-21.161-1.621-24.516-3.184-1.522Z" transform="translate(-146.442 -778.906)" fill="#364472" opacity="0.3" style="mix-blend-mode: multiply;isolation: isolate"/>
        <path id="Path_2174" data-name="Path 2174" d="M483.359,1073.616l-6.281,6.88-1.872,3.8,5,9.461,5.272-12.033Z" transform="translate(-226.264 -871.958)" fill="#364472" opacity="0.5" style="mix-blend-mode: multiply;isolation: isolate"/>
        <path id="Path_2175" data-name="Path 2175" d="M640.746,1134.4l-11.271,54.17,20.238,1.948,2.417-20.4-2.417-2.567v-10.914l-2.535-15.142Z" transform="translate(-326.603 -911.493)" fill="#364472" opacity="0.26" style="mix-blend-mode: multiply;isolation: isolate"/>
        <path id="Path_2176" data-name="Path 2176" d="M583.214,1119.164l2.472,2.553-.718-2.565Z" transform="translate(-296.514 -901.575)" fill="#3b4b7f"/>
        <path id="Path_2177" data-name="Path 2177" d="M413.4,1040.436l-1.509,4.454,3.693,2.1,4.95,2.912Z" transform="translate(-185.08 -850.377)" fill="#a7dee3" opacity="0.51" style="mix-blend-mode: soft-light;isolation: isolate"/>
        <path id="Path_2178" data-name="Path 2178" d="M79.062,862.989l1.091,2.745,2.563-2.426Z" transform="translate(31.392 -734.963)" fill="#3b4b7f"/>
        <path id="Path_2179" data-name="Path 2179" d="M-35.608,536.626s21.257,7.013,28.246,9.342,27.882,17.253,28.537,18.564-23,.8-32.177-.509-38.891-4.671-38.891-4.671C-48.957,550.289-43.744,544.866-35.608,536.626Z" transform="translate(115.267 -522.693)" fill="#fdcbdb"/>
        <path id="Path_2180" data-name="Path 2180" d="M-35.608,565.638c7.541.172,24.474,7.862,28.4,10.192S2.9,583.954,2.9,583.954a109.282,109.282,0,0,1-16.387-1.427c-9.638-1.506-36.4-4.306-36.4-4.306S-43.05,565.468-35.608,565.638Z" transform="translate(115.267 -541.561)" fill="#ffdede"/>
        <g id="Group_682" data-name="Group 682" transform="translate(314.118 238.024)" opacity="0.5">
          <path id="Path_2181" data-name="Path 2181" d="M661.662,1179.4a4.8,4.8,0,0,1,.174-1.74l.423-.018c-.069.611-.115,1.225-.14,1.838l-.367-.165Z" transform="translate(-661.645 -1177.64)" fill="#364472" opacity="0.15" style="mix-blend-mode: multiply;isolation: isolate"/>
        </g>
        <path id="Path_2182" data-name="Path 2182" d="M759.98,1210.568v-19.23l1.831-3.367-1.086-16.258,3.892-2.609,5.048-2.542v29.427l-2.467,2.628Z" transform="translate(-411.485 -932.411)" fill="#a7dee3" opacity="0.51" style="mix-blend-mode: soft-light;isolation: isolate"/>
        <path id="Path_2183" data-name="Path 2183" d="M540.732,1192.276l13.835-.137,2.861,21.659h-3.117l-3.386-.658-5.242-3.166" transform="translate(-268.883 -949.046)" fill="#a7dee3" opacity="0.16" style="mix-blend-mode: soft-light;isolation: isolate"/>
        <ellipse id="Ellipse_376" data-name="Ellipse 376" cx="42.34" cy="30.185" rx="42.34" ry="30.185" transform="translate(53.316)" fill="url(#radial-gradient)" style="mix-blend-mode: screen;isolation: isolate"/>
        <ellipse id="Ellipse_377" data-name="Ellipse 377" cx="23.07" cy="32.36" rx="23.07" ry="32.36" transform="matrix(0.153, -0.988, 0.988, 0.153, 241.394, 227.666)" fill="url(#radial-gradient-2)" style="mix-blend-mode: screen;isolation: isolate"/>
        <ellipse id="Ellipse_378" data-name="Ellipse 378" cx="23.07" cy="32.36" rx="23.07" ry="32.36" transform="translate(302.013 248.206) rotate(-81.196)" fill="url(#radial-gradient-3)" style="mix-blend-mode: screen;isolation: isolate"/>
        <path id="Path_2184" data-name="Path 2184" d="M-136.686,874.176l11.928,4.886,6.738,15.468-4.195-17.676-11.066-4.425Z" transform="translate(171.718 -741.104)" fill="#a7dee3" opacity="0.51" style="mix-blend-mode: soft-light;isolation: isolate"/>
        <path id="Path_2185" data-name="Path 2185" d="M-219.6,996.939l6.582,15.206-1.165,4.732-6.6-4.732-5.63,19.781-10.483,7.75v-31.043l11.675-5.9Z" transform="translate(236.895 -822.086)" fill="#a7dee3" opacity="0.51" style="mix-blend-mode: soft-light;isolation: isolate"/>
        <path id="Path_2186" data-name="Path 2186" d="M-121.945,1110.1s19.129-7.027,25.8-6.834c15.261.441,25.032,5.552,25.032,5.552l-22.509,10.071Z" transform="translate(162.13 -891.238)" fill="#a7dee3" opacity="0.51" style="mix-blend-mode: soft-light;isolation: isolate"/>
        <path id="Path_2187" data-name="Path 2187" d="M-93.979,700.44l2.273,8.753-8.4-2.151Z" transform="translate(147.927 -629.239)" fill="#a7dee3" opacity="0.51" style="mix-blend-mode: soft-light;isolation: isolate"/>
        <path id="Path_2188" data-name="Path 2188" d="M-75.3,1194.762l27.926,16.432-4.427,29.4-20.991,3.147.873-14.105-.873-3.338v-12.418Z" transform="translate(131.791 -950.752)" fill="#a7dee3" opacity="0.16" style="mix-blend-mode: soft-light;isolation: isolate"/>
        <path id="Path_2189" data-name="Path 2189" d="M-65.873,1114.133s-.932.373-2.411.92a120.82,120.82,0,0,1-14.478,4.578c-4.007.838-12.347-1.037-17.845-2.493-3.11-.827-5.311-1.514-5.311-1.514s5.637-3.937,19.126-5.172S-65.873,1114.133-65.873,1114.133Z" transform="translate(151.706 -895.786)" fill="#fdcbdb"/>
        <path id="Path_2190" data-name="Path 2190" d="M-58.434,1120.792l-.012.011a120.62,120.62,0,0,1-14.478,4.578c-4.007.838-12.347-1.037-17.845-2.493l-.023-.012s5.475-3.448,17.426-3.75S-58.434,1120.792-58.434,1120.792Z" transform="translate(141.868 -901.537)" fill="#ffdede"/>
        <ellipse id="Ellipse_379" data-name="Ellipse 379" cx="32.36" cy="23.07" rx="32.36" ry="23.07" transform="translate(29.828 206.409) rotate(-10.957)" fill="url(#radial-gradient-4)" style="mix-blend-mode: screen;isolation: isolate"/>
      </g>
      <rect id="Rectangle_3" data-name="Rectangle 3" width="1013.242" height="450.33" transform="translate(-599.639 -2331.211)" fill="none"/>
      <g id="Group_42" data-name="Group 42" transform="translate(-39.694 -2008.15)">
        <g id="Group_691" data-name="Group 691" transform="translate(0 0.065)">
          <path id="Path_2205" data-name="Path 2205" d="M1681.495,1088.9l43.984,3.333,35.614-1.615-18-2.7,20.719-1.8h108.355l-41.617-3.5-8.38-9.617-14.848-3.1-7.252-1.6-11.4-2.209,5.079-51.885-1.19-3.7v-35.72l-17.632-17.561-5.768,16.751-11.567,9.423-10.36,46s-16.565,4.144-26.066,15.194l0,23.833-4.492,4.574-2.935,10.1-6.228,1.461Z" transform="translate(-1593.229 -957.234)" fill="#feb2ca"/>
          <path id="Path_2206" data-name="Path 2206" d="M1798.9,1215.791l5.069,6.836v7.238l6.041,2.51,0,22.92-9.708-4.566-1.406-11.106Z" transform="translate(-1670.964 -1128.426)" fill="#364472" opacity="0.22" style="mix-blend-mode: multiply;isolation: isolate"/>
          <path id="Path_2207" data-name="Path 2207" d="M1876.048,1080.693l12.027,5.069,3.293,35.935,3.018-54.042v-26.7l-7.978-6.262Z" transform="translate(-1722.044 -1008.522)" fill="#364472" opacity="0.3" style="mix-blend-mode: multiply;isolation: isolate"/>
          <path id="Path_2208" data-name="Path 2208" d="M1940.941,992.985l3.821,1.132-1.91,31.468,5.758-32.657-5.24-7Z" transform="translate(-1765.011 -976.234)" fill="#364472" opacity="0.2" style="mix-blend-mode: multiply;isolation: isolate"/>
          <path id="Path_2209" data-name="Path 2209" d="M1803.974,1192.855s5.031.935,15.048-1.809S1837,1175.894,1837,1175.894l-12.027-5.069s-13.114,1.934-26.066,15.194Z" transform="translate(-1670.968 -1098.654)" fill="#a7dee3" opacity="0.51" style="mix-blend-mode: soft-light;isolation: isolate"/>
          <path id="Path_2210" data-name="Path 2210" d="M1914.686,1022.494l3.589-2.912v-1.9l3.821-9.742-3.821-1.133-11.568,9.423Z" transform="translate(-1742.344 -990.058)" fill="#a7dee3" opacity="0.51" style="mix-blend-mode: soft-light;isolation: isolate"/>
          <path id="Path_2211" data-name="Path 2211" d="M1948.13,966.93l5.24,7,7.287,1.189.939-1.132h1.625l5.879.81-17.632-17.561Z" transform="translate(-1769.77 -957.234)" fill="#a7dee3" opacity="0.51" style="mix-blend-mode: soft-light;isolation: isolate"/>
          <path id="Path_2212" data-name="Path 2212" d="M1969.266,1117.368l-4.377,5.168-12.786,1.644-3.974,3.414,5.24-1.77h12.416v3.934l4.5-9.522Z" transform="translate(-1769.77 -1063.26)" fill="#a7dee3" opacity="0.51" style="mix-blend-mode: soft-light;isolation: isolate"/>
          <path id="Path_2213" data-name="Path 2213" d="M1838.316,1182.052s-2.177,7.655-8.873,11.526-18.113,3.293-18.113,3.293-3.5-2-3.384-5.026,17.2-11.714,20.674-12.171S1838.316,1182.052,1838.316,1182.052Z" transform="translate(-1676.952 -1104.479)" fill="#fdcbdb"/>
          <path id="Path_2214" data-name="Path 2214" d="M1821.208,1208.778a31.833,31.833,0,0,1,10.7-8.636,22.447,22.447,0,0,1,13.516-2.352s-1.286,3.987-7.2,7.667S1821.208,1208.778,1821.208,1208.778Z" transform="translate(-1685.734 -1116.359)" fill="#ffdede"/>
          <path id="Path_2215" data-name="Path 2215" d="M1831.786,1251.281l17.925-3.4,10.868-3.541,1.481,16.162-21.739,9.129-7.259-5.553Z" transform="translate(-1692.738 -1147.332)" fill="#a7dee3" opacity="0.16" style="mix-blend-mode: soft-light;isolation: isolate"/>
          <path id="Path_2216" data-name="Path 2216" d="M1960.657,1007.83l-1.446,17.243-5.841,7.684-5.24,5.123,5.24-31.239Z" transform="translate(-1769.77 -989.947)" fill="#a7dee3" opacity="0.16" style="mix-blend-mode: soft-light;isolation: isolate"/>
          <path id="Path_2217" data-name="Path 2217" d="M1469.471,1330.945l-15.818.626s-9.923.823-16.082,1.2h-.011a33.54,33.54,0,0,1-4.742.143c-.747-.319-11.032-1.789-12.547-2.152,0,0,7.925-5.6,12.36-8.222a10.429,10.429,0,0,1,2.733-1.328c1.789-.143,13.721.68,15.3,1.23.626.219,1.229,1.471,1.734,2.887a40.277,40.277,0,0,1,1.252,4.61Z" transform="translate(-1420.272 -1198.213)" fill="#feb2ca"/>
          <path id="Path_2218" data-name="Path 2218" d="M1437.561,1332.8a33.7,33.7,0,0,1-4.742.143c-.747-.319-11.032-1.79-12.547-2.152,0,0,7.925-5.6,12.36-8.222l2.733-1.328-1.284,4.786,1.284.889-.637,3.1Z" transform="translate(-1420.272 -1198.245)" fill="#364472" opacity="0.26" style="mix-blend-mode: multiply;isolation: isolate"/>
          <path id="Path_2219" data-name="Path 2219" d="M1479.461,1325.325c-6.059.9-18.321.67-18.321.67l1.285-4.786c1.789-.143,13.721.68,15.3,1.23C1478.352,1322.658,1478.956,1323.909,1479.461,1325.325Z" transform="translate(-1447.331 -1198.213)" fill="#a7dee3" opacity="0.51" style="mix-blend-mode: soft-light;isolation: isolate"/>
        </g>
        <ellipse id="Ellipse_380" data-name="Ellipse 380" cx="25.509" cy="25.509" rx="25.509" ry="25.509" transform="translate(122.828 61)" fill="url(#radial-gradient-5)" style="mix-blend-mode: screen;isolation: isolate"/>
      </g>
      <rect id="Rectangle_4" data-name="Rectangle 4" width="844.244" height="476.808" transform="translate(-518.996 -2390.956)" fill="none"/>
    </g>
    <g id="Group_697" data-name="Group 697" transform="translate(-6.936 14.306)">
      <g id="Objects" transform="translate(133.936 37.523)">
        <g id="Group_7" data-name="Group 7" transform="translate(121.263 69.42)">
          <path id="Path_13" data-name="Path 13" d="M224.333,112.949a15.3,15.3,0,0,1-2.688-.232.7.7,0,0,1,.263-1.366c.05.011,5.019.934,7-1.2,1.667-1.794,2.043-4.015,2.407-6.164.359-2.121.7-4.124,2.233-5.528a18.439,18.439,0,0,1,2.819-1.9c2.417-1.446,5.423-3.245,6.042-5.857a6.235,6.235,0,0,0-1.188-4.809.7.7,0,1,1,1.173-.746,7.627,7.627,0,0,1,1.369,5.875c-.754,3.184-4.04,5.151-6.681,6.731a18.058,18.058,0,0,0-2.6,1.735c-1.181,1.083-1.468,2.776-1.8,4.735-.38,2.242-.81,4.781-2.761,6.88C228.526,112.608,226.174,112.949,224.333,112.949Z" transform="translate(-221.081 -73.343)" fill="#434040"/>
          <path id="Path_14" data-name="Path 14" d="M240.641,82.668a2.378,2.378,0,0,0-1.753-.373c-.465-2.642-1.314-5.519-2.848-5.711a1.1,1.1,0,0,0-.973.352c-.21.221-.75.8-.53,3.842-.783-1.162-1.7-2.254-2.449-2.4a1.054,1.054,0,0,0-.943.262c-.545.5-.962,1.663,1.215,5.757a1.633,1.633,0,0,0-.707,1.142,3.312,3.312,0,0,0,1.268,2.705,5.893,5.893,0,0,0,3.632,1.538,4.406,4.406,0,0,0,1.13-.088c2.089-.433,3.381-4.1,3.459-5.869A1.379,1.379,0,0,0,240.641,82.668Z" transform="translate(-217.312 -76.572)" fill="#434040"/>
          <path id="Path_15" data-name="Path 15" d="M233.907,84.139l.442.131a7.678,7.678,0,0,0,1.17.23c.475.053,1.046-.024,1.156-.4a.979.979,0,0,0-.033-.74,1.536,1.536,0,0,0-.544-.53,4,4,0,0,0-1.778-.533,7.99,7.99,0,0,0-.888-.019,3.7,3.7,0,0,0-.783.118,2.592,2.592,0,0,0-.621.235,1.152,1.152,0,0,0-.388.328.8.8,0,0,0-.166.291l-.05.114-.006.007-.006-.008.019-.122a.777.777,0,0,1,.1-.346,1.313,1.313,0,0,1,.36-.447,2.183,2.183,0,0,1,.641-.377,4.8,4.8,0,0,1,1.81-.33,6.716,6.716,0,0,1,1.045.118,4.085,4.085,0,0,1,1.053.38,1.9,1.9,0,0,1,.86.923,1.624,1.624,0,0,1,.013,1.2,1.208,1.208,0,0,1-.938.75,2.778,2.778,0,0,1-.942-.013,5.245,5.245,0,0,1-1.681-.616.186.186,0,0,1-.061-.255A.193.193,0,0,1,233.907,84.139Z" transform="translate(-217.036 -74.55)" fill="#fff"/>
        </g>
        <path id="Path_16" data-name="Path 16" d="M176,156.332a.7.7,0,0,1-.683-.568c-.75-4.026.3-15.54.341-16.029a.7.7,0,0,1,.757-.629.7.7,0,0,1,.629.757c-.01.117-1.074,11.808-.359,15.646a.7.7,0,0,1-.557.811A.811.811,0,0,1,176,156.332Z" transform="translate(-117.84 17.33)" fill="#434040"/>
        <g id="Group_9" data-name="Group 9" transform="translate(50.389 144.728)">
          <path id="Path_17" data-name="Path 17" d="M208.773,152.571h0a.7.7,0,0,1-.692-.7,88.213,88.213,0,0,0-2.421-20.3.7.7,0,1,1,1.346-.355,89.715,89.715,0,0,1,2.467,20.667A.7.7,0,0,1,208.773,152.571Z" transform="translate(-156.256 -130.692)" fill="#434040"/>
          <g id="Group_8" data-name="Group 8" transform="translate(0 19.646)">
            <path id="Path_18" data-name="Path 18" d="M175.379,149.652c-2.463-.11-5.033.7-5.224,2.743a1.33,1.33,0,0,0,.333,1.021,3.536,3.536,0,0,0,2.546.854c1.965.088,5.739-.523,5.988-2.386a1.4,1.4,0,0,0-.334-1.1C177.911,149.861,176.113,149.684,175.379,149.652Z" transform="translate(-170.148 -142.919)" fill="#434040"/>
            <path id="Path_19" data-name="Path 19" d="M215.14,147.536a8.021,8.021,0,0,0-5.444-2.72c-1.643-.072-2.041.774-2.137,1.141a1.955,1.955,0,0,0,.451,1.66,9.643,9.643,0,0,0,5.816,3.161c1.293.057,1.659-.689,1.756-1.013A2.51,2.51,0,0,0,215.14,147.536Z" transform="translate(-155.52 -144.811)" fill="#434040"/>
          </g>
        </g>
        <g id="Group_10" data-name="Group 10" transform="translate(6.301 133.346)">
          <path id="Path_20" data-name="Path 20" d="M142.3,141.275a.7.7,0,0,1-.559-1.108c2.644-3.605,6.191-3.05,9.624-2.513a16.979,16.979,0,0,0,5.484.267c2.251-.4,2.841-1.961,3.771-4.923.779-2.487,1.749-5.58,4.635-8.22,6.194-5.669,13.089,1.077,13.157,1.145a.7.7,0,1,1-.982.985c-.244-.242-6.025-5.869-11.235-1.1-2.609,2.386-3.48,5.161-4.247,7.609-.859,2.734-1.668,5.316-4.858,5.876a17.958,17.958,0,0,1-5.94-.262c-3.3-.518-6.144-.962-8.286,1.961A.7.7,0,0,1,142.3,141.275Z" transform="translate(-137.235 -122.513)" fill="#434040"/>
          <path id="Path_21" data-name="Path 21" d="M143.975,134.979c-.487-.195-5.555.991-5.51,2.164s2.8-.018,2.8-.018-2.555,2.172-1.657,2.969,2.551-1.845,2.551-1.845-.641,3.226.4,3.113,1.692-3.664,1.692-3.664.43,2.263,1.464,2.025C146.153,139.621,146.692,136.068,143.975,134.979Z" transform="translate(-138.465 -117.64)" fill="#434040"/>
        </g>
        <path id="Path_22" data-name="Path 22" d="M164.349,92.749c-4.848,4.435-24.383,6.3-28.849-6.919S134.019,36,173.047,28.21s64.246,15.3,61.755,45.12-20.7,54.675-17.366,58.322,28.11-20.134,37.827-20.091c6.882.029,23.633,19.323,18.884,30-5.953,13.377-60.762,46.284-80.446,43.077s-28.644-20.322-24.921-34.152,21.858-34.575,27.738-55.528c6.466-23.039-3.267-33.986-16.908-30.687C164.676,67.882,171.036,86.632,164.349,92.749Z" transform="translate(-133.936 -26.684)" fill="#596598"/>
      </g>
      <g id="Designed_by_Freepik" data-name="Designed by Freepik" transform="translate(177.906 -1)">
        <g id="Group_11" data-name="Group 11" transform="translate(42.953 75.098)">
          <path id="Path_23" data-name="Path 23" d="M196.8,53.385l-.309,5.471a2.239,2.239,0,0,0,2.157,2.841h0a2.24,2.24,0,0,0,2.073-3.086l-3.1-5.421A.441.441,0,0,0,196.8,53.385Z" transform="translate(-196.403 -52.969)" fill="url(#linear-gradient-2)"/>
          <path id="Path_24" data-name="Path 24" d="M196.8,58.169a2.173,2.173,0,0,0,3.07.608.594.594,0,0,0,.292-.367.277.277,0,0,0-.177-.355.512.512,0,0,0-.5.075A2.248,2.248,0,0,1,196.8,58.169Z" transform="translate(-196.247 -50.991)" fill="#fff" opacity="0.51"/>
        </g>
        <g id="Group_15" data-name="Group 15">
          <path id="Path_25" data-name="Path 25" d="M177.63,26.392s-7.919-.7-9.327.192a2.325,2.325,0,0,0,0,4.056c1.752,1.151,1.81,5.22,0,5.894-2.978,1.109-4.341,6.611,0,8.337s6.786-2.32,8.41-2.7c1.275-.3,7.859,1.119,8.865,7.3s9.878,8.94,13.635,6.267,2.751-6.842,4.62-7.848,5.175-.431,7.474,3.593,7.854,3.045,8.311.589c0,0-3.863-8.051-8.89-11.579C210.729,40.493,188.079,23.623,177.63,26.392Z" transform="translate(-165.535 11.604)" fill="url(#linear-gradient-3)"/>
          <path id="Path_26" data-name="Path 26" d="M174.227,37,204.773-1l2.552,52.1S182.859,55.871,174.227,37Z" transform="translate(-162.132 1)" fill="#ffb2ca"/>
          <g id="Group_14" data-name="Group 14" transform="translate(12.095)">
            <g id="Group_13" data-name="Group 13" clip-path="url(#clip-path)">
              <g id="Group_12" data-name="Group 12" transform="translate(0.875 3.333)">
                <path id="Path_27" data-name="Path 27" d="M174.856,24.692s11.1,18.12,32.257,12.988" transform="translate(-174.856 7.726)" fill="none" stroke="#dd83a4" stroke-miterlimit="10" stroke-width="0.356"/>
                <path id="Path_28" data-name="Path 28" d="M177,22.029s11.529,14.444,29.048,11.989" transform="translate(-174.018 6.684)" fill="none" stroke="#dd83a4" stroke-miterlimit="10" stroke-width="0.356"/>
                <path id="Path_29" data-name="Path 29" d="M179.633,18.75S190.721,31.223,204.7,28.875" transform="translate(-172.986 5.4)" fill="none" stroke="#dd83a4" stroke-miterlimit="10" stroke-width="0.356"/>
                <path id="Path_30" data-name="Path 30" d="M182.61,15.047s5.654,9.821,20.544,9.716" transform="translate(-171.82 3.95)" fill="none" stroke="#dd83a4" stroke-miterlimit="10" stroke-width="0.356"/>
                <path id="Path_31" data-name="Path 31" d="M185.079,11.976s7.037,8.277,16.84,6.366" transform="translate(-170.854 2.748)" fill="none" stroke="#dd83a4" stroke-miterlimit="10" stroke-width="0.356"/>
                <path id="Path_32" data-name="Path 32" d="M200.685,13.123a12.658,12.658,0,0,1-13.251-4.077" transform="translate(-169.932 1.601)" fill="none" stroke="#dd83a4" stroke-miterlimit="10" stroke-width="0.356"/>
                <path id="Path_33" data-name="Path 33" d="M189.992,5.864s2.755,4.385,9.407,2.676" transform="translate(-168.93 0.355)" fill="none" stroke="#dd83a4" stroke-miterlimit="10" stroke-width="0.356"/>
                <path id="Path_34" data-name="Path 34" d="M192.565,2.664s1.951,2.85,5.5.493" transform="translate(-167.923 -0.898)" fill="none" stroke="#dd83a4" stroke-miterlimit="10" stroke-width="0.356"/>
                <line id="Line_1" data-name="Line 1" x1="2.067" y2="9.102" transform="translate(0 29.847)" fill="none" stroke="#dd83a4" stroke-miterlimit="10" stroke-width="0.356"/>
                <line id="Line_2" data-name="Line 2" x1="0.974" y2="16.827" transform="translate(3.808 26.47)" fill="none" stroke="#dd83a4" stroke-miterlimit="10" stroke-width="0.356"/>
                <line id="Line_3" data-name="Line 3" x2="0.146" y2="25.481" transform="translate(8.877 21.376)" fill="none" stroke="#dd83a4" stroke-miterlimit="10" stroke-width="0.356"/>
                <line id="Line_4" data-name="Line 4" x2="3.458" y2="32.757" transform="translate(12.671 16.657)" fill="none" stroke="#dd83a4" stroke-miterlimit="10" stroke-width="0.356"/>
                <line id="Line_5" data-name="Line 5" x2="6.517" y2="37.984" transform="translate(16.129 12.356)" fill="none" stroke="#dd83a4" stroke-miterlimit="10" stroke-width="0.356"/>
                <line id="Line_6" data-name="Line 6" x2="10.756" y2="41.878" transform="translate(19.387 8.303)" fill="none" stroke="#dd83a4" stroke-miterlimit="10" stroke-width="0.356"/>
                <line id="Line_7" data-name="Line 7" x2="8.994" y2="35.52" transform="translate(22.967 3.85)" fill="none" stroke="#dd83a4" stroke-miterlimit="10" stroke-width="0.356"/>
                <line id="Line_8" data-name="Line 8" x2="4.692" y2="18.05" transform="translate(26.062)" fill="none" stroke="#dd83a4" stroke-miterlimit="10" stroke-width="0.356"/>
              </g>
            </g>
          </g>
        </g>
        <g id="Group_16" data-name="Group 16" transform="translate(4.454 139.632)">
          <circle id="Ellipse_10" data-name="Ellipse 10" cx="16.535" cy="16.535" r="16.535" fill="#fff"/>
          <path id="Path_36" data-name="Path 36" d="M195.268,102.515a16.532,16.532,0,0,1-23.363,23.363,16.532,16.532,0,1,0,23.363-23.363Z" transform="translate(-167.495 -98.105)" fill="#1e2849"/>
          <circle id="Ellipse_11" data-name="Ellipse 11" cx="10.039" cy="10.039" r="10.039" transform="translate(6.201 6.791)" fill="#123535"/>
          <circle id="Ellipse_12" data-name="Ellipse 12" cx="3.396" cy="3.396" r="3.396" transform="translate(19.192 8.267)" fill="#fff"/>
          <circle id="Ellipse_13" data-name="Ellipse 13" cx="1.033" cy="1.033" r="1.033" transform="translate(15.354 13.877)" fill="#fff"/>
        </g>
        <g id="Group_17" data-name="Group 17" transform="translate(7.651 175.657)">
          <path id="Path_37" data-name="Path 37" d="M195.18,127.5a.345.345,0,0,1,.285.539l-1.451,2.3A12.933,12.933,0,0,1,183.32,136h-.081a12.931,12.931,0,0,1-10.694-5.661l-1.453-2.3a.345.345,0,0,1,.285-.539Z" transform="translate(-171.033 -124.347)" fill="#1e2849"/>
          <path id="Path_38" data-name="Path 38" d="M173.7,131.614s4.706-2.012,17.5-.4C191.205,131.216,182.671,138.92,173.7,131.614Z" transform="translate(-169.988 -123.139)" fill="#c15d8b"/>
          <path id="Path_39" data-name="Path 39" d="M174.825,134.877s4.531-3.155,6.565-6.866a5.289,5.289,0,0,1,4.63-2.776h0a5.248,5.248,0,0,1,5.087,6.561c-.121.466-.181,1.009-.341,1.517C190.766,133.313,184.419,140.536,174.825,134.877Z" transform="translate(-169.548 -125.235)" fill="#ea78a7"/>
          <path id="Path_40" data-name="Path 40" d="M183.366,134.557s-.594.331,0,1.024,1.319-.021,1.636,0c.408.028.417,1.049,1.468,1.032,1.567-.025,1.613-1.87,2.158-1.87s3.109,1.116,1.1-5.707A15.427,15.427,0,0,1,183.366,134.557Z" transform="translate(-166.308 -123.747)" fill="url(#linear-gradient-4)"/>
        </g>
      </g>
    </g>
  </g>
</svg>
