<svg xmlns="http://www.w3.org/2000/svg" xmlns:xlink="http://www.w3.org/1999/xlink" width="380" height="254" viewBox="0 0 380 254"><defs><linearGradient id="a" x1="0.5" y1="1" x2="0.5" gradientUnits="objectBoundingBox"><stop offset="0" stop-color="#ffdee9"/><stop offset="1" stop-color="#5b679a"/></linearGradient><radialGradient id="b" cx="0.5" cy="0.5" r="0.701" gradientTransform="translate(0.144 -0.1) scale(0.713 0.713)" gradientUnits="objectBoundingBox"><stop offset="0" stop-color="#feb2ca"/><stop offset="0.12" stop-color="#d092a5"/><stop offset="0.301" stop-color="#926674"/><stop offset="0.475" stop-color="#5d414a"/><stop offset="0.636" stop-color="#35252a"/><stop offset="0.782" stop-color="#181013"/><stop offset="0.908" stop-color="#060405"/><stop offset="1"/></radialGradient><radialGradient id="c" cy="0.5" r="0.5" gradientTransform="matrix(0, 1, -1, 0, -2.792, -3.117)" xlink:href="#b"/><radialGradient id="d" cy="0.5" r="0.5" gradientTransform="matrix(0, 1, -1, 0, -2.841, -3.263)" xlink:href="#b"/><radialGradient id="e" cy="0.5" r="0.701" gradientTransform="translate(0.07 2.04) scale(0.713 0.713)" xlink:href="#b"/><radialGradient id="f" cy="0.5" r="0.5" gradientTransform="translate(0)" xlink:href="#b"/><clipPath id="h"><rect width="380" height="254"/></clipPath></defs><g id="g" clip-path="url(#h)"><rect width="380" height="254" fill="#fff"/><g transform="translate(370.592 2256.442)"><rect width="951.374" height="287.397" transform="translate(-673.659 -2271.725)" fill="url(#a)"/><rect width="935.88" height="159.781" transform="translate(-629.638 -2028.264)" fill="#efa8c1"/><g transform="translate(-557.039 -2260.954)" opacity="0.81" style="mix-blend-mode:screen;isolation:isolate"><ellipse cx="0.468" cy="0.468" rx="0.468" ry="0.468" transform="translate(462.513 55.535)" fill="#a7dee3"/><ellipse cx="0.468" cy="0.468" rx="0.468" ry="0.468" transform="translate(558.222 15.113)" fill="#a7dee3"/><path d="M1940.849,501.783a.468.468,0,1,0,.469-.468A.469.469,0,0,0,1940.849,501.783Z" transform="translate(-1329.151 -475.466)" fill="#a7dee3"/><ellipse cx="0.468" cy="0.468" rx="0.468" ry="0.468" transform="translate(376.085 137.358)" fill="#a7dee3"/><path d="M826.423,953.307a.468.468,0,1,0,.469-.468A.469.469,0,0,0,826.423,953.307Z" transform="translate(-556.241 -788.621)" fill="#a7dee3"/><path d="M1313.343,954.836a.468.468,0,1,0,.468-.469A.468.468,0,0,0,1313.343,954.836Z" transform="translate(-893.944 -789.681)" fill="#a7dee3"/><path d="M650.183,809.468a.468.468,0,1,0,.469-.468A.469.469,0,0,0,650.183,809.468Z" transform="translate(-434.009 -688.861)" fill="#a7dee3"/><path d="M688.142,1026.264a.468.468,0,1,0,.468-.468A.469.469,0,0,0,688.142,1026.264Z" transform="translate(-460.336 -839.22)" fill="#a7dee3"/><path d="M762.774,759.784a.468.468,0,1,0,.468-.469A.468.468,0,0,0,762.774,759.784Z" transform="translate(-512.097 -654.403)" fill="#a7dee3"/><path d="M1862.5,1198.573a.468.468,0,1,0,.468-.468A.468.468,0,0,0,1862.5,1198.573Z" transform="translate(-1274.809 -958.725)" fill="#a7dee3"/><path d="M1710.308,1061.086a.468.468,0,1,0,.468-.468A.468.468,0,0,0,1710.308,1061.086Z" transform="translate(-1169.259 -863.371)" fill="#a7dee3"/><path d="M1724.214,1271.53a.468.468,0,1,0,.469-.468A.468.468,0,0,0,1724.214,1271.53Z" transform="translate(-1178.904 -1009.324)" fill="#a7dee3"/><path d="M1798.846,1005.051a.468.468,0,1,0,.469-.468A.468.468,0,0,0,1798.846,1005.051Z" transform="translate(-1230.665 -824.508)" fill="#a7dee3"/><path d="M1812.639,769.962a.468.468,0,1,0,.468-.468A.468.468,0,0,0,1812.639,769.962Z" transform="translate(-1240.231 -661.462)" fill="#a7dee3"/><path d="M1031.306,868.648a.468.468,0,1,0,.468-.469A.468.468,0,0,0,1031.306,868.648Z" transform="translate(-698.337 -729.906)" fill="#a7dee3"/><path d="M880.6,949.7a.468.468,0,1,0,.468-.468A.468.468,0,0,0,880.6,949.7Z" transform="translate(-593.812 -786.116)" fill="#a7dee3"/><path d="M459.69,835.5a.468.468,0,1,0,.469-.469A.468.468,0,0,0,459.69,835.5Z" transform="translate(-301.893 -706.918)" fill="#a7dee3"/><path d="M321.409,908.461a.468.468,0,1,0,.468-.468A.468.468,0,0,0,321.409,908.461Z" transform="translate(-205.988 -757.518)" fill="#a7dee3"/><ellipse cx="0.468" cy="0.468" rx="0.468" ry="0.468" transform="translate(174.398 127.011)" fill="#a7dee3"/><path d="M982.694,478.416a.765.765,0,1,0,.766-.765A.765.765,0,0,0,982.694,478.416Z" transform="translate(-664.622 -459.054)" fill="#a7dee3"/><path d="M1272,417.731a.765.765,0,1,0,.765-.766A.765.765,0,0,0,1272,417.731Z" transform="translate(-865.273 -416.966)" fill="#a7dee3"/><path d="M1123.9,633.88a.765.765,0,1,0,.765-.765A.765.765,0,0,0,1123.9,633.88Z" transform="translate(-762.557 -566.876)" fill="#a7dee3"/><circle cx="0.765" cy="0.765" r="0.765" transform="translate(173.253 90.468)" fill="#a7dee3"/><path d="M1483.608,651.714a.765.765,0,1,0,.765-.765A.765.765,0,0,0,1483.608,651.714Z" transform="translate(-1012.031 -579.245)" fill="#a7dee3"/><ellipse cx="0.468" cy="0.468" rx="0.468" ry="0.468" transform="translate(144.441 57.066)" fill="#a7dee3"/><circle cx="0.765" cy="0.765" r="0.765" transform="translate(0 20.127)" fill="#a7dee3"/><ellipse cx="0.765" cy="0.765" rx="0.765" ry="0.765" transform="translate(88.659 1.531)" fill="#a7dee3"/><circle cx="0.765" cy="0.765" r="0.765" transform="translate(43.273 67.769)" fill="#a7dee3"/><circle cx="0.765" cy="0.765" r="0.765" transform="translate(153.505 73.234)" fill="#a7dee3"/></g><path d="M1869.519,1154.659l-399.285,25.866,83.694,4.27,15.363-2.606,91.8,1.516-60.673,4.494,80.9,2.6,185.928-2.121Z" transform="translate(-1559.795 -3189.547)" fill="#5b679a" opacity="0.19" style="mix-blend-mode:multiply;isolation:isolate"/><path d="M901.849,1170.825l73.756,8.195-69.415,2.5,70.876,3.081,34.919.169,10.591-1.727,37.787,1.213-58.891,4.072-19.77.813,18.014,3.275,16.094,1.35,27.785-.666,108.117,2.663-47.6-4.32-10.2-1.371,36.9-1.888,28.514-1.133,14.817-.843,35.649-2.271,5.966-6.758-6.949-4.852Z" transform="translate(-1165.592 -3200.759)" fill="#5b679a" opacity="0.22" style="mix-blend-mode:multiply;isolation:isolate"/><g transform="translate(-382.577 -2083.323)"><path d="M246.09,884.131l2.487-1.863v3.194h2.487l4.086,2.129,8.882-5.323h3.02l1.954,2.661h5.507l4.974-14.372h2.132l2.487-11,3.286-.222,1.865-24.441h1.332l1.332,28.744,2.132.71v7.63l4.974,1.065,3.553,8.517,3.02.177V870.025l5.507-11.356v-3.016l5.329.222v1.375l3.375,3.992,3.2,16.058,1.6.71v3.016l2.132,2.307v2.484l5.862,10.291h1.954l19.719,3.017,10.3,1.141h-36.36l1.244-6.109,5.862-1.774,1.776-4.258,2.487-1.242,2.842-11.711,1.954-4.968,1.421-2.623,1.6-1.99,3.375.177V860.8l2.842-3.9v3.549H357l-2.665-10.765,2.309-1.075,2.976-3.023.577.314v8.694l1.776.532v18.631l2.665,1.242v5.855l1.6.355v4.436l2.309.71,2.665,6.033,12.257,6.21,2.845,1.674,4.974-1.674,3.731-3.726,1.244-.355v-3.9L397.5,888.3v-4.436l2.665-5.145,2.309,4.258,1.776-1.242,3.553-1.065v-6.92l8.527-6.793,1.421,3.422,1.954-.887,2.132,5.145,5.507,1.242v6.388l1.776.71,1.244,3.726,4.263,1.419,5.152,8.162,2.309,1.065v-6.033l3.02-2.307,2.487-9.227,3.2-2.129,1.244-6.387,2.487-6.565v16.856l2.487,1.774,1.421,7.275,2.132.71v-41.7l2.842-7.807,3.02-2.484v6.565H468.2l2.309,11,6.129,10.063V876.5l2.665,2.928,5.063,5.589v6.654H491.3l2.931,5.589h3.731l7.195-3.726,2.4-7.452V878.1l1.865-2.4V871.71l1.865-.532,1.6-4.22V852.015l5.063-11.711,2.129,59.961H248.22Z" transform="translate(-246.09 -833.818)" fill="#ea96b5"/><path d="M721.349,1107.622l2.665.887,1.6-.887-1.776-1.242Z" transform="translate(-630.34 -1053.317)" fill="#ea96b5" opacity="0.2" style="mix-blend-mode:overlay;isolation:isolate"/><path d="M792.78,953.692v1.774l9.415-1.708-6.573-.422v-3.549Z" transform="translate(-688.093 -926.712)" fill="#ea96b5" opacity="0.2" style="mix-blend-mode:overlay;isolation:isolate"/><path d="M825.249,889.975h.977v1.508l2.221-3.637-1.954-1.065Z" transform="translate(-714.344 -875.77)" fill="#ea96b5" opacity="0.2" style="mix-blend-mode:overlay;isolation:isolate"/><path d="M833.973,1037.814l-3.375,1.6-.711,1.686h3.464l3.286-2.04Z" transform="translate(-718.094 -997.88)" fill="#ea96b5" opacity="0.2" style="mix-blend-mode:overlay;isolation:isolate"/><path d="M853.139,1074.877h-1.421l-1.421.8,4.441-.443Z" transform="translate(-734.595 -1027.846)" fill="#ea96b5" opacity="0.2" style="mix-blend-mode:overlay;isolation:isolate"/><path d="M844.237,1099.894l-1.6.71-5.329.532h5.951l3.287-.532Z" transform="translate(-724.095 -1048.073)" fill="#ea96b5" opacity="0.2" style="mix-blend-mode:overlay;isolation:isolate"/><path d="M813.21,1135.1l-7.284,3.282H792.78l16.077,1.331,11.188-1.15Z" transform="translate(-688.093 -1076.54)" fill="#ea96b5" opacity="0.2" style="mix-blend-mode:overlay;isolation:isolate"/><path d="M684.561,1136.7h13.085l-7.816-1.594Z" transform="translate(-600.597 -1076.54)" fill="#ea96b5" opacity="0.2" style="mix-blend-mode:overlay;isolation:isolate"/><path d="M768.4,995.191l-1.6,1.99,4.974.76,6.662-1.375-5.818-.006,1.177-.77-2.021-.421Z" transform="translate(-667.092 -963.42)" fill="#ea96b5" opacity="0.2" style="mix-blend-mode:overlay;isolation:isolate"/><path d="M365.762,1096.188l9.859,3.016,8.527-1.508-12.879-1.508Z" transform="translate(-342.845 -1045.076)" fill="#ea96b5" opacity="0.2" style="mix-blend-mode:overlay;isolation:isolate"/><path d="M420.495,1021.135l4.175,2.351,6.528-.665-5.352-.51.555-.488-3.775-.687Z" transform="translate(-387.098 -984.396)" fill="#ea96b5" opacity="0.2" style="mix-blend-mode:overlay;isolation:isolate"/><path d="M466.307,985l-1.732.421-2.8.466,6.662-.177Z" transform="translate(-420.474 -955.179)" fill="#ea96b5" opacity="0.2" style="mix-blend-mode:overlay;isolation:isolate"/><path d="M444.614,962.751l1.954.643,2.6-.322-1.266-.543Z" transform="translate(-406.598 -937.012)" fill="#ea96b5" opacity="0.2" style="mix-blend-mode:overlay;isolation:isolate"/><path d="M485.033,1028.548l-2.731.366,2.731.566,4.974.133Z" transform="translate(-437.069 -990.389)" fill="#ea96b5" opacity="0.2" style="mix-blend-mode:overlay;isolation:isolate"/><path d="M534.156,1078.583l-1.643.976,5.551.355.8-.665-1.688-.488Z" transform="translate(-477.665 -1030.843)" fill="#ea96b5" opacity="0.2" style="mix-blend-mode:overlay;isolation:isolate"/><path d="M470.372,834.893l-.271,3.553,1.6-3.553Z" transform="translate(-427.205 -833.818)" fill="#ea96b5" opacity="0.2" style="mix-blend-mode:overlay;isolation:isolate"/><path d="M585.622,943.3l2.4,1.752,2.931-.155v-1.375Z" transform="translate(-520.604 -921.468)" fill="#ea96b5" opacity="0.2" style="mix-blend-mode:overlay;isolation:isolate"/><path d="M562.371,959.054l.8,1.53-2.265,6.188,1.132-.466-3.486,4.125-1.688-.022Z" transform="translate(-497.353 -934.203)" fill="#ea96b5" opacity="0.2" style="mix-blend-mode:overlay;isolation:isolate"/><path d="M620.026,1056.345l-6.573,2.066h6.573l-.8-.6,2.4-.754Z" transform="translate(-543.105 -1012.863)" fill="#ea96b5" opacity="0.2" style="mix-blend-mode:overlay;isolation:isolate"/><path d="M644.688,1075.8l-2.709,1.464,4.841.843Z" transform="translate(-566.169 -1028.595)" fill="#ea96b5" opacity="0.2" style="mix-blend-mode:overlay;isolation:isolate"/><path d="M597.179,1154.562l-23.849.887h18.964l-.977,1.065,21.44.132-13.624-2.084Z" transform="translate(-510.666 -1092.272)" fill="#ea96b5" opacity="0.2" style="mix-blend-mode:overlay;isolation:isolate"/><path d="M463.639,1135.1H467.9l-1.066.8,7.394.8-17.731.424Z" transform="translate(-416.208 -1076.54)" fill="#ea96b5" opacity="0.2" style="mix-blend-mode:overlay;isolation:isolate"/><path d="M1663.655,879.591l2.487-1.863v3.194h2.487l4.086,2.129,8.882-5.323h3.02l1.954,2.661h5.507l4.974-14.372h2.132l2.487-11,3.286-.222,1.865-24.442h1.332l1.332,28.744,2.132.71v7.63l4.974,1.065,3.553,8.517,3.02.177V865.484l5.507-11.356v-3.016l5.329.222v1.375l3.375,3.992,3.2,16.058,1.6.71v3.016l2.132,2.307v2.484l5.862,10.291h1.954l19.719,3.016,10.3,1.141h-36.36l1.244-6.109,5.862-1.774,1.776-4.258,2.487-1.242,2.842-11.711,1.954-4.968,1.421-2.623,1.6-1.99,3.375.177v-4.968l2.842-3.9V855.9h3.375v-25.55l2.309-1.075.311,11.762.577.314v8.694l1.776.532V869.21l2.665,1.242v5.855l1.6.355V881.1l2.309.71,2.665,6.033,12.258,6.21,2.845,1.674,4.974-1.674,3.731-3.726,1.244-.355v-3.9l1.243-2.307v-4.436l2.665-5.146,2.309,4.258,1.776-1.242,3.553-1.065v-6.92l8.527-6.793,1.421,3.422,1.954-.887,2.132,5.146,5.507,1.242v6.388l1.776.71,1.243,3.726,4.263,1.419,5.152,8.162,2.309,1.065v-6.033l3.02-2.307,2.487-9.227,3.2-2.129,1.243-6.388,2.487-6.565v16.856l2.487,1.774,1.421,7.275,2.132.71v-41.7l2.842-7.807,3.02-2.484v6.565h1.777l2.309,11,6.129,10.063v9.543l2.665,2.928,5.063,5.589v6.654h6.928l2.931,5.589h3.731l7.195-3.726,2.4-7.452v-7.985l1.865-2.4V867.17l1.865-.532,1.6-4.22V847.475l5.063-11.711,2.129,59.961H1665.784Z" transform="translate(-1392.201 -829.277)" fill="#ea96b5"/><path d="M1783.326,1096.188l9.859,3.016,8.527-1.508-12.879-1.508Z" transform="translate(-1488.956 -1045.076)" fill="#ea96b5" opacity="0.2" style="mix-blend-mode:overlay;isolation:isolate"/><path d="M1838.059,1021.135l4.175,2.351,6.529-.665-5.352-.51.555-.488-3.775-.687Z" transform="translate(-1533.208 -984.396)" fill="#ea96b5" opacity="0.2" style="mix-blend-mode:overlay;isolation:isolate"/><path d="M1883.871,985l-1.732.421-2.8.466,6.662-.177Z" transform="translate(-1566.585 -955.179)" fill="#ea96b5" opacity="0.2" style="mix-blend-mode:overlay;isolation:isolate"/><path d="M1862.179,962.751l1.954.643,2.6-.322-1.266-.543Z" transform="translate(-1552.709 -937.012)" fill="#ea96b5" opacity="0.2" style="mix-blend-mode:overlay;isolation:isolate"/><path d="M1902.6,1028.548l-2.731.366,2.731.566,4.974.133Z" transform="translate(-1583.179 -990.389)" fill="#ea96b5" opacity="0.2" style="mix-blend-mode:overlay;isolation:isolate"/><path d="M1951.721,1078.583l-1.643.976,5.551.355.8-.665-1.688-.488Z" transform="translate(-1623.775 -1030.843)" fill="#ea96b5" opacity="0.2" style="mix-blend-mode:overlay;isolation:isolate"/><path d="M2003.187,943.3l2.4,1.752,2.931-.155v-1.375Z" transform="translate(-1666.714 -921.468)" fill="#ea96b5" opacity="0.2" style="mix-blend-mode:overlay;isolation:isolate"/><path d="M1979.936,959.054l.8,1.53-2.265,6.188,1.133-.466-3.486,4.125-1.687-.022Z" transform="translate(-1643.464 -934.203)" fill="#ea96b5" opacity="0.2" style="mix-blend-mode:overlay;isolation:isolate"/><path d="M2014.744,1154.562l-23.849.887h18.964l-.977,1.065,21.44.132-13.624-2.084Z" transform="translate(-1656.776 -1092.272)" fill="#ea96b5" opacity="0.2" style="mix-blend-mode:overlay;isolation:isolate"/><path d="M1881.2,1135.1h4.263l-1.066.8,7.394.8-17.731.424Z" transform="translate(-1562.319 -1076.54)" fill="#ea96b5" opacity="0.2" style="mix-blend-mode:overlay;isolation:isolate"/><path d="M759.384,1067.135l4.352,1.483,4.13-.741Z" transform="translate(-661.092 -1021.587)" fill="#ea96b5" opacity="0.2" style="mix-blend-mode:overlay;isolation:isolate"/><path d="M1062.749,1076.256l6.928,1.952,9.06-2.351-10.659-1.907-3.553,1.065Z" transform="translate(-906.364 -1027.097)" fill="#ea96b5" opacity="0.2" style="mix-blend-mode:overlay;isolation:isolate"/><path d="M1090.58,1009.133h8.816l-1.466-1.042,2.6-2.329-1.421-3.422Z" transform="translate(-928.866 -969.2)" fill="#ea96b5" opacity="0.2" style="mix-blend-mode:overlay;isolation:isolate"/><path d="M1141.272,1042.446l-5.351,1.264,10.859-.022Z" transform="translate(-965.524 -1001.626)" fill="#ea96b5" opacity="0.2" style="mix-blend-mode:overlay;isolation:isolate"/><path d="M1039.438,1063.758l-2.665,5.146,3.6-1.708Z" transform="translate(-885.363 -1018.856)" fill="#ea96b5" opacity="0.2" style="mix-blend-mode:overlay;isolation:isolate"/><path d="M1031.524,1113.793l2.931,1.575,4.064.665-8.238.066Z" transform="translate(-880.113 -1059.31)" fill="#ea96b5" opacity="0.2" style="mix-blend-mode:overlay;isolation:isolate"/><path d="M1164.705,1105.454l-4.818,1.242-5.529.355,11.325.71-.733-.71,4.019-.177Z" transform="translate(-980.43 -1052.568)" fill="#ea96b5" opacity="0.2" style="mix-blend-mode:overlay;isolation:isolate"/><path d="M1181.744,1083l-4.774-.177,3-.532Z" transform="translate(-998.713 -1033.839)" fill="#ea96b5" opacity="0.2" style="mix-blend-mode:overlay;isolation:isolate"/><path d="M1269.622,1119.806l6.04-.71-2-.577,2.576-.577-3.6-.444Z" transform="translate(-1073.623 -1062.306)" fill="#ea96b5" opacity="0.2" style="mix-blend-mode:overlay;isolation:isolate"/><path d="M1450.056,1052.176l3.731,6.3.622.177,3.375,2.041Z" transform="translate(-1219.505 -1009.492)" fill="#ea96b5" opacity="0.2" style="mix-blend-mode:overlay;isolation:isolate"/><path d="M1394.05,949.789l-5.685,2.839h4.175l-1.332,1.065,5.329,1.774,3.642,4.386Z" transform="translate(-1169.627 -926.712)" fill="#ea96b5" opacity="0.2" style="mix-blend-mode:overlay;isolation:isolate"/><path d="M1324.434,1078.583l-2.4,1.419,4.885.355Z" transform="translate(-1116 -1030.843)" fill="#ea96b5" opacity="0.2" style="mix-blend-mode:overlay;isolation:isolate"/><path d="M1298.38,1060.327l4.53-1.064-1.332-1.065Z" transform="translate(-1096.874 -1014.361)" fill="#ea96b5" opacity="0.2" style="mix-blend-mode:overlay;isolation:isolate"/><path d="M1368.943,871.029l-2.842,7.807,4.264-3.9h-1.244Z" transform="translate(-1151.627 -863.034)" fill="#ea96b5" opacity="0.2" style="mix-blend-mode:overlay;isolation:isolate"/><path d="M1393.011,892.341h-.877l2.894,1.144-.24-1.144Z" transform="translate(-1172.674 -880.265)" fill="#ea96b5" opacity="0.2" style="mix-blend-mode:overlay;isolation:isolate"/><path d="M1377.234,1096.188l13.012.089-4.974,1.863-3.738-.177Z" transform="translate(-1160.627 -1045.076)" fill="#ea96b5" opacity="0.2" style="mix-blend-mode:overlay;isolation:isolate"/><path d="M1354.969,1125.838l2.132.71,7.879,1.862-7.879-.8Z" transform="translate(-1142.626 -1069.049)" fill="#ea96b5" opacity="0.2" style="mix-blend-mode:overlay;isolation:isolate"/><path d="M1462.284,1131.4l-6.662,1.507,11.325.8,2.265-2.3Z" transform="translate(-1224.005 -1073.544)" fill="#ea96b5" opacity="0.2" style="mix-blend-mode:overlay;isolation:isolate"/><path d="M1611.473,1050.4l5.6,1.686,2.4-1.686-6.129-2.4Z" transform="translate(-1350.011 -1006.121)" fill="#ea96b5" opacity="0.2" style="mix-blend-mode:overlay;isolation:isolate"/><path d="M1601.348,1102.211l4,7.893-2-.8-4.4.356Z" transform="translate(-1339.886 -1049.946)" fill="#ea96b5" opacity="0.2" style="mix-blend-mode:overlay;isolation:isolate"/><path d="M1623.079,1024.378l-1.865.532,3.731.6h4.4Z" transform="translate(-1357.887 -987.017)" fill="#ea96b5" opacity="0.2" style="mix-blend-mode:overlay;isolation:isolate"/><path d="M1639.3,874.864l4.663-2.861h-1.332l1.732-8.849Z" transform="translate(-1372.512 -856.666)" fill="#ea96b5" opacity="0.2" style="mix-blend-mode:overlay;isolation:isolate"/><path d="M1377.234,1031.106l5.747-.821,3.135.821Z" transform="translate(-1160.627 -991.793)" fill="#ea96b5" opacity="0.2" style="mix-blend-mode:overlay;isolation:isolate"/><path d="M1023.786,1146.578l5.363,1.464,2.1-.732-6.218-1.087Z" transform="translate(-874.863 -1085.53)" fill="#ea96b5" opacity="0.2" style="mix-blend-mode:overlay;isolation:isolate"/><path d="M2139.551,1107.622l2.665.887,1.6-.887-1.776-1.242Z" transform="translate(-1776.966 -1053.317)" fill="#ea96b5" opacity="0.2" style="mix-blend-mode:overlay;isolation:isolate"/><path d="M2210.983,953.692v1.774l9.415-1.708-6.573-.422v-3.549Z" transform="translate(-1834.719 -926.712)" fill="#ea96b5" opacity="0.2" style="mix-blend-mode:overlay;isolation:isolate"/><path d="M2243.452,889.975h.977v1.508l2.221-3.637-1.955-1.065Z" transform="translate(-1860.97 -875.77)" fill="#ea96b5" opacity="0.2" style="mix-blend-mode:overlay;isolation:isolate"/><path d="M2252.176,1037.814l-3.375,1.6-.71,1.686h3.464l3.286-2.04Z" transform="translate(-1864.72 -997.88)" fill="#ea96b5" opacity="0.2" style="mix-blend-mode:overlay;isolation:isolate"/><path d="M2271.341,1074.877h-1.421l-1.421.8,4.441-.443Z" transform="translate(-1881.221 -1027.846)" fill="#ea96b5" opacity="0.2" style="mix-blend-mode:overlay;isolation:isolate"/><path d="M2262.44,1099.894l-1.6.71-5.329.532h5.951l3.286-.532Z" transform="translate(-1870.721 -1048.073)" fill="#ea96b5" opacity="0.2" style="mix-blend-mode:overlay;isolation:isolate"/><path d="M2231.413,1135.1l-7.284,3.282h-13.146l16.077,1.331,11.188-1.15Z" transform="translate(-1834.719 -1076.54)" fill="#ea96b5" opacity="0.2" style="mix-blend-mode:overlay;isolation:isolate"/><path d="M2102.764,1136.7h13.084l-7.817-1.594Z" transform="translate(-1747.223 -1076.54)" fill="#ea96b5" opacity="0.2" style="mix-blend-mode:overlay;isolation:isolate"/><path d="M2186.607,995.191l-1.6,1.99,4.974.76,6.662-1.375-5.818-.006,1.177-.77-2.021-.421Z" transform="translate(-1813.718 -963.42)" fill="#ea96b5" opacity="0.2" style="mix-blend-mode:overlay;isolation:isolate"/><path d="M2015.382,1154.562l-23.849.887H2010.5l-.977,1.065,21.44.132-13.624-2.084Z" transform="translate(-1657.293 -1092.272)" fill="#ea96b5" opacity="0.2" style="mix-blend-mode:overlay;isolation:isolate"/><path d="M2177.586,1067.135l4.352,1.483,4.13-.741Z" transform="translate(-1807.718 -1021.587)" fill="#ea96b5" opacity="0.2" style="mix-blend-mode:overlay;isolation:isolate"/><path d="M2480.951,1076.256l6.928,1.952,9.06-2.351-10.659-1.907-3.553,1.065Z" transform="translate(-2052.99 -1027.097)" fill="#ea96b5" opacity="0.2" style="mix-blend-mode:overlay;isolation:isolate"/><path d="M2508.783,1009.133h8.815l-1.465-1.042,2.6-2.329-1.421-3.422Z" transform="translate(-2075.492 -969.2)" fill="#ea96b5" opacity="0.2" style="mix-blend-mode:overlay;isolation:isolate"/><path d="M2559.474,1042.446l-5.352,1.264,10.859-.022Z" transform="translate(-2112.15 -1001.626)" fill="#ea96b5" opacity="0.2" style="mix-blend-mode:overlay;isolation:isolate"/><path d="M2457.641,1063.758l-2.665,5.146,3.6-1.708Z" transform="translate(-2031.989 -1018.856)" fill="#ea96b5" opacity="0.2" style="mix-blend-mode:overlay;isolation:isolate"/><path d="M2449.726,1113.793l2.931,1.575,4.064.665-8.238.066Z" transform="translate(-2026.739 -1059.31)" fill="#ea96b5" opacity="0.2" style="mix-blend-mode:overlay;isolation:isolate"/><path d="M2534.757,1156.386l13.234-.665-4.1,1.264Z" transform="translate(-2096.493 -1093.209)" fill="#ea96b5" opacity="0.2" style="mix-blend-mode:overlay;isolation:isolate"/><path d="M2582.908,1105.454l-4.819,1.242-5.529.355,11.325.71-.733-.71,4.019-.177Z" transform="translate(-2127.057 -1052.568)" fill="#ea96b5" opacity="0.2" style="mix-blend-mode:overlay;isolation:isolate"/><path d="M2599.947,1083l-4.774-.177,3-.532Z" transform="translate(-2145.339 -1033.839)" fill="#ea96b5" opacity="0.2" style="mix-blend-mode:overlay;isolation:isolate"/><path d="M2687.825,1119.806l6.04-.71-2-.577,2.576-.577-3.6-.444Z" transform="translate(-2220.249 -1062.306)" fill="#ea96b5" opacity="0.2" style="mix-blend-mode:overlay;isolation:isolate"/><path d="M2868.259,1052.176l3.731,6.3.621.177,3.375,2.041Z" transform="translate(-2366.131 -1009.492)" fill="#ea96b5" opacity="0.2" style="mix-blend-mode:overlay;isolation:isolate"/><path d="M2812.253,949.789l-5.684,2.839h4.174l-1.332,1.065,5.329,1.774,3.642,4.386Z" transform="translate(-2316.254 -926.712)" fill="#ea96b5" opacity="0.2" style="mix-blend-mode:overlay;isolation:isolate"/><path d="M2742.637,1078.583l-2.4,1.419,4.885.355Z" transform="translate(-2262.626 -1030.843)" fill="#ea96b5" opacity="0.2" style="mix-blend-mode:overlay;isolation:isolate"/><path d="M2716.583,1060.327l4.53-1.064-1.332-1.065Z" transform="translate(-2243.5 -1014.361)" fill="#ea96b5" opacity="0.2" style="mix-blend-mode:overlay;isolation:isolate"/><path d="M2787.146,871.029l-2.842,7.807,4.263-3.9h-1.243Z" transform="translate(-2298.253 -863.034)" fill="#ea96b5" opacity="0.2" style="mix-blend-mode:overlay;isolation:isolate"/><path d="M2811.214,892.341h-.877l2.894,1.144-.24-1.144Z" transform="translate(-2319.301 -880.265)" fill="#ea96b5" opacity="0.2" style="mix-blend-mode:overlay;isolation:isolate"/><path d="M2795.436,1096.188l13.012.089-4.974,1.863-3.738-.177Z" transform="translate(-2307.253 -1045.076)" fill="#ea96b5" opacity="0.2" style="mix-blend-mode:overlay;isolation:isolate"/><path d="M2773.172,1125.838l2.132.71,7.879,1.862-7.879-.8Z" transform="translate(-2289.252 -1069.049)" fill="#ea96b5" opacity="0.2" style="mix-blend-mode:overlay;isolation:isolate"/><path d="M2880.488,1131.4l-6.662,1.507,11.325.8,2.265-2.3Z" transform="translate(-2370.632 -1073.544)" fill="#ea96b5" opacity="0.2" style="mix-blend-mode:overlay;isolation:isolate"/><path d="M3029.676,1050.4l5.6,1.686,2.4-1.686-6.129-2.4Z" transform="translate(-2496.638 -1006.121)" fill="#ea96b5" opacity="0.2" style="mix-blend-mode:overlay;isolation:isolate"/><path d="M3019.55,1102.211l4,7.893-2-.8-4.4.356Z" transform="translate(-2486.512 -1049.946)" fill="#ea96b5" opacity="0.2" style="mix-blend-mode:overlay;isolation:isolate"/><path d="M3041.281,1024.378l-1.865.532,3.73.6h4.4Z" transform="translate(-2504.513 -987.017)" fill="#ea96b5" opacity="0.2" style="mix-blend-mode:overlay;isolation:isolate"/><path d="M3057.506,874.864l4.663-2.861h-1.332l1.732-8.849Z" transform="translate(-2519.139 -856.666)" fill="#ea96b5" opacity="0.2" style="mix-blend-mode:overlay;isolation:isolate"/><path d="M2795.436,1031.106l5.748-.821,3.135.821Z" transform="translate(-2307.253 -991.793)" fill="#ea96b5" opacity="0.2" style="mix-blend-mode:overlay;isolation:isolate"/><path d="M2441.99,1146.578l5.363,1.464,2.1-.732-6.217-1.087Z" transform="translate(-2021.49 -1085.53)" fill="#ea96b5" opacity="0.2" style="mix-blend-mode:overlay;isolation:isolate"/><path d="M2152.539,1011.988l2.72-11.711,2.515-6.2.65-.724,1.931-2.661,3.375.177-3.7-1.242-3.935,5.706-2.125,6.8Z" transform="translate(-1787.467 -958.925)" fill="#ea96b5"/><path d="M648.459,1075.8l-1.816.981,3.948,1.325Z" transform="translate(-569.94 -1028.595)" fill="#ea96b5"/></g><g transform="translate(-272.827 -2057.502)" opacity="0.24"><path d="M710.682,625.428c-.021.018-.043.032-.064.05a3.056,3.056,0,0,1-.758.3,72.612,72.612,0,0,1-9.2,1.246,39.637,39.637,0,0,1-11.116-1.1c-.637-.2-.857-.382-.453-.5C690.743,624.947,711.63,624.607,710.682,625.428Z" transform="translate(-688.883 -624.932)" fill="#af6ba7" opacity="0.24"/><path d="M710.682,625.428c-.021.018-.043.032-.064.05l-.758.3a8.873,8.873,0,0,0-1.806-.552c-.439,0-9.07-.266-12.256,0s-6.231.7-6.231.7l-.028,0c-.637-.2-.857-.382-.453-.5C690.743,624.947,711.63,624.607,710.682,625.428Z" transform="translate(-688.883 -624.932)" fill="#af6ba7"/></g><g transform="translate(-302.86 -2057.328)" opacity="0.24"><path d="M617.146,626.328a9.255,9.255,0,0,1-2.663.462,10.4,10.4,0,0,1-2.648-.507l-.029-.009c-.474-.19-.687-.412-.248-.643.723-.38,5.1-.335,5.813.218C617.6,626.025,617.464,626.188,617.146,626.328Z" transform="translate(-611.319 -625.383)" fill="#af6ba7" opacity="0.24"/><path d="M617.146,626.328a11.4,11.4,0,0,0-1.558-.24,17.413,17.413,0,0,0-3.753.194l-.029-.009c-.474-.19-.687-.412-.248-.643.723-.38,5.1-.335,5.813.218C617.6,626.025,617.464,626.188,617.146,626.328Z" transform="translate(-611.319 -625.383)" fill="#af6ba7"/></g><g transform="translate(-759.319 -2187.294)"><path d="M116.617,754.9C100.39,743.878-26.631,702.2-26.631,702.2L-40.343,681.16l-3.528.8-5.4-16.649h-7.416l-29.653-74.476-7.416-3.708-6.486-22.079L-119.7,547.8c-17.959-9.845-43.3-18.254-44.876-18.772l-.074-.021s-9.782,8.29-13.372,14.42l-9.946,39.934-5.558,5.987-8.508,48.543-3.089,1.583-16.085,37.893-5.1,5.253-10.588,5.354v96.78l53.51-.247S-94.663,771.9-75.2,770.763c8.166-.476,25.6-.9,48.573-1.278,101.2-1.637,310.073-2.3,310.073-2.3Z" transform="translate(236.895 -518.786)" fill="#feb2ca"/><path d="M433.556,1063.62l3.918,1.233,2.069-1.233Z" transform="translate(-220.986 -883.897)" fill="#fff" opacity="0.2" style="mix-blend-mode:overlay;isolation:isolate"/><path d="M475.2,1081.715l7.395-8.1,29.092,8.8,7.414,11.8,2.643,4.13s-33.547-1.145-37.228-3.609S475.2,1081.715,475.2,1081.715Z" transform="translate(-249.429 -890.723)" fill="#feb2ca"/><path d="M629.476,1178.2,639.7,1129.07s14.318-3.074,22.841-2.37,15.9,10.7,17.1,12.567,0,26.689,0,26.689h2.732l2.426,10.367s-19.163,4.164-23.843,4.428S629.476,1178.2,629.476,1178.2Z" transform="translate(-354.788 -926.905)" fill="#feb2ca"/><path d="M19.229,558.977l7.659,3.961-35.918-5.7V529.007l.074.021c1.574.517,26.917,8.926,44.876,18.772l19.459,17.251Z" transform="translate(81.276 -518.786)" fill="#a7dee3" opacity="0.51" style="mix-blend-mode:soft-light;isolation:isolate"/><path d="M84.051,712.328l-9.888,10.141-32.748,7.219H51.451l-27.995,8.891,58.366-13.126,9.645-9.418Z" transform="translate(59.09 -643.984)" fill="#a7dee3" opacity="0.51" style="mix-blend-mode:soft-light;isolation:isolate"/><path d="M120.527,959.221H124.4l10.11,2.717-54.478,7.143H51.777l18.255-4.4H82.856Z" transform="translate(39.748 -812.598)" fill="#a7dee3" opacity="0.51" style="mix-blend-mode:soft-light;isolation:isolate"/><path d="M333.9,958.921l-9.74,2.812,2.324-2.812Z" transform="translate(-146.274 -812.393)" fill="#a7dee3" opacity="0.51" style="mix-blend-mode:soft-light;isolation:isolate"/><path d="M264.589,1009.7l-10.272,3.521-14.906,3.169h7.923l-13.381,5.458-19.191,2.993,31.062-3.169L268.11,1008.9Z" transform="translate(-71.562 -846.524)" fill="#a7dee3" opacity="0.51" style="mix-blend-mode:soft-light;isolation:isolate"/><path d="M426.282,1075.271l6.356,6.826,9.155,2.333,1.7-3.444Z" transform="translate(-216.018 -891.854)" fill="#a7dee3" opacity="0.51" style="mix-blend-mode:soft-light;isolation:isolate"/><path d="M498.528,1073.616l1.921,7.351s7.774,7.438,26.519,7.086l.652-5.634Z" transform="translate(-265.358 -890.723)" fill="#a7dee3" opacity="0.51" style="mix-blend-mode:soft-light;isolation:isolate"/><path d="M661.716,1129a33.792,33.792,0,0,0,5.834,6.434c3.345,2.728,21.71,7.171,26,6.843a18.314,18.314,0,0,0,8.109-3.079s-5.648-9.427-14.015-11.918S661.716,1129,661.716,1129Z" transform="translate(-376.806 -926.833)" fill="#a7dee3" opacity="0.51" style="mix-blend-mode:soft-light;isolation:isolate"/><path d="M223.623,1154.669l12.6-3.031,25.706,1.628-7.219,1.4,24.825,2.515,28.921,7.295-56.916,1.86,3.345-1.584-15.846-5.289-32.044-4.8H182.254l25.272-1.4Z" transform="translate(-49.36 -944.008)" fill="#a7dee3" opacity="0.51" style="mix-blend-mode:soft-light;isolation:isolate"/><path d="M850.309,1241.466l-12.9,3.9,94,2.916Z" transform="translate(-496.798 -1005.355)" fill="#a7dee3" opacity="0.51" style="mix-blend-mode:soft-light;isolation:isolate"/><path d="M14.293,829.277H26.178l31.78,4.666L36.126,840.9l-9.948-7.131Z" transform="translate(65.347 -723.854)" fill="#a7dee3" opacity="0.51" style="mix-blend-mode:soft-light;isolation:isolate"/><path d="M674.286,1133.468s13.466-3.7,20.776-1.606S708,1141.655,708,1142.36s-9.948,2.2-15.758.7a136.34,136.34,0,0,1-15.494-5.37C676.135,1137.342,674.286,1133.468,674.286,1133.468Z" transform="translate(-385.391 -930.064)" fill="#fdcbdb"/><path d="M509.24,1080.927c.091,1,.863,4.49,1.636,5.1s5.287,3.7,9.439,4.512,10.562.347,11.026,0-.032-1.068,0-2.355S509.24,1080.927,509.24,1080.927Z" transform="translate(-272.673 -895.716)" fill="#fdcbdb"/><path d="M383.114,955.934l-2.245-36.445s-.6-2.509-4.715-2.773-7.038,4.379-7.038,4.379l-.044,25.641L367.752,963.9s15.758,9.155,24.913,9.9l-3.081-9.288Z" transform="translate(-176.045 -783.562)" fill="#feb2ca"/><path d="M372.055,921.837A7.849,7.849,0,0,0,378,923.4a8.617,8.617,0,0,0,5.81-3.169s-1.288-3.039-5.7-2.333A8.337,8.337,0,0,0,372.055,921.837Z" transform="translate(-178.984 -784.305)" fill="#a7dee3" opacity="0.51" style="mix-blend-mode:soft-light;isolation:isolate"/><path d="M376.359,924.192a7.45,7.45,0,0,1,3.829-2.794c2.421-.66,5.546.969,5.546.969a6.115,6.115,0,0,1-4.864,2.729C377.635,925.139,376.359,924.192,376.359,924.192Z" transform="translate(-181.923 -786.659)" fill="#5b679a"/><path d="M687.367,1153.863s7.97-.024,11.837.262,14.305,4.62,14.305,4.62a30.761,30.761,0,0,1-11.332,0A152.9,152.9,0,0,1,687.367,1153.863Z" transform="translate(-394.324 -945.527)" fill="#ffdede"/><path d="M514.4,1097.02a70.509,70.509,0,0,1,10.2.679c3.7.7,8.208,4.161,8.208,4.161s-5.424.533-8.337-.218S516.812,1098.982,514.4,1097.02Z" transform="translate(-276.197 -906.707)" fill="#ffdede"/><path d="M-82.576,644.162l23.318-26.127,32.2,38.629,3.713-32.924L-31,619.778l12.688,2.132,6.522,39.147-18.241,4.021,9.067.213-27.994,8.891-10.3,5.282-21.257-3.6V652.1Z" transform="translate(131.504 -579.587)" fill="#6776a5" opacity="0.29" style="mix-blend-mode:multiply;isolation:isolate"/><path d="M74.412,974.552c-22.977.38-40.407.8-48.573,1.278C6.38,976.972-63.3,986.72-63.3,986.72l10-65.537h0a47.93,47.93,0,0,0-22.7-5.035l-12.934-73.693,32.732-13.179,11.885,4.49,9.951,7.131-8.652,43.312-1.3-29.981-4.146,19.13-4.834,6.977,1.242,9.6-4.147,19.135,53.253,25.448H21.782l14.177,29.072,2.451-25.966,15.423,1.69L69.679,944.6l-3.349,1.585.7,12.5,4.191,4.686Z" transform="translate(135.852 -723.854)" fill="#6776a5" opacity="0.29" style="mix-blend-mode:multiply;isolation:isolate"/><path d="M250.719,1049.182V1084.7l-16.1-1.4-12.693-31.175Z" transform="translate(-76.457 -874.036)" fill="#364472" opacity="0.29" style="mix-blend-mode:multiply;isolation:isolate"/><path d="M358.687,957.383l-6.206,3.557,4.842,12.417,5.722-19.191-1.47-22.235-2.888-1.381Z" transform="translate(-165.616 -793.017)" fill="#364472" opacity="0.3" style="mix-blend-mode:multiply;isolation:isolate"/><path d="M482.6,1073.616l-5.7,6.24-1.7,3.444,4.534,8.58,4.782-10.913Z" transform="translate(-249.43 -890.723)" fill="#364472" opacity="0.5" style="mix-blend-mode:multiply;isolation:isolate"/><path d="M639.7,1134.4l-10.222,49.129,18.355,1.767,2.192-18.5-2.192-2.328v-9.9l-2.3-13.733Z" transform="translate(-354.788 -932.235)" fill="#364472" opacity="0.26" style="mix-blend-mode:multiply;isolation:isolate"/><path d="M583.214,1119.162l2.242,2.316-.652-2.326Z" transform="translate(-323.194 -921.822)" fill="#3b4b7f"/><path d="M413.255,1040.436l-1.369,4.04,3.35,1.9,4.49,2.641Z" transform="translate(-206.186 -868.063)" fill="#a7dee3" opacity="0.51" style="mix-blend-mode:soft-light;isolation:isolate"/><path d="M79.062,862.989l.989,2.49,2.324-2.2Z" transform="translate(21.114 -746.877)" fill="#3b4b7f"/><path d="M-36.937,536.626s19.279,6.36,25.618,8.473,25.287,15.648,25.882,16.836-20.864.726-29.183-.462-35.272-4.236-35.272-4.236C-49.044,549.018-44.316,544.1-36.937,536.626Z" transform="translate(109.183 -523.989)" fill="#fdcbdb"/><path d="M-36.937,565.638c6.839.156,22.2,7.131,25.756,9.244s9.166,7.368,9.166,7.368a99.15,99.15,0,0,1-14.862-1.294c-8.742-1.366-33.016-3.906-33.016-3.906S-43.687,565.484-36.937,565.638Z" transform="translate(109.183 -543.801)" fill="#ffdede"/><g transform="translate(284.887 215.874)" opacity="0.5"><path d="M661.66,1179.234a4.356,4.356,0,0,1,.157-1.578l.383-.016q-.093.831-.127,1.667l-.333-.149Z" transform="translate(-661.645 -1177.64)" fill="#364472" opacity="0.15" style="mix-blend-mode:multiply;isolation:isolate"/></g><path d="M759.98,1206.473v-17.44l1.661-3.054-.985-14.745,3.53-2.366,4.579-2.3v26.689l-2.237,2.384Z" transform="translate(-443.915 -954.201)" fill="#a7dee3" opacity="0.51" style="mix-blend-mode:soft-light;isolation:isolate"/><path d="M540.732,1192.263l12.547-.125,2.595,19.643h-2.827l-3.071-.6-4.754-2.871" transform="translate(-294.181 -971.668)" fill="#a7dee3" opacity="0.16" style="mix-blend-mode:soft-light;isolation:isolate"/><ellipse cx="38.4" cy="27.376" rx="38.4" ry="27.376" transform="translate(48.355)" fill="url(#b)" style="mix-blend-mode:screen;isolation:isolate"/><ellipse cx="20.923" cy="29.349" rx="20.923" ry="29.349" transform="matrix(0.153, -0.988, 0.988, 0.153, 218.93, 206.48)" fill="url(#c)" style="mix-blend-mode:screen;isolation:isolate"/><ellipse cx="20.923" cy="29.349" rx="20.923" ry="29.349" transform="translate(273.908 225.109) rotate(-81.196)" fill="url(#d)" style="mix-blend-mode:screen;isolation:isolate"/><path d="M-136.686,874.013l10.818,4.431,6.111,14.029-3.8-16.031L-133.6,872.43Z" transform="translate(168.458 -753.325)" fill="#a7dee3" opacity="0.51" style="mix-blend-mode:soft-light;isolation:isolate"/><path d="M-221.208,996.939l5.969,13.791-1.056,4.292-5.986-4.292-5.106,17.94-9.508,7.029v-28.154l10.588-5.354Z" transform="translate(236.895 -838.357)" fill="#a7dee3" opacity="0.51" style="mix-blend-mode:soft-light;isolation:isolate"/><path d="M-121.945,1109.462s17.349-6.373,23.4-6.2c13.84.4,22.7,5.035,22.7,5.035l-20.415,9.134Z" transform="translate(158.391 -910.968)" fill="#a7dee3" opacity="0.51" style="mix-blend-mode:soft-light;isolation:isolate"/><path d="M-94.549,700.44l2.061,7.938-7.62-1.951Z" transform="translate(143.477 -635.865)" fill="#a7dee3" opacity="0.51" style="mix-blend-mode:soft-light;isolation:isolate"/><path d="M-75.3,1194.762l25.327,14.9-4.015,26.662-19.038,2.855.792-12.793-.792-3.027V1212.1Z" transform="translate(126.533 -973.459)" fill="#a7dee3" opacity="0.16" style="mix-blend-mode:soft-light;isolation:isolate"/><path d="M-69.6,1113.771s-.845.338-2.187.834a109.46,109.46,0,0,1-13.131,4.152c-3.634.76-11.2-.941-16.184-2.261-2.821-.75-4.817-1.373-4.817-1.373s5.113-3.571,17.346-4.69S-69.6,1113.771-69.6,1113.771Z" transform="translate(147.445 -915.744)" fill="#fdcbdb"/><path d="M-61.445,1120.634l-.01.01a109.438,109.438,0,0,1-13.131,4.152c-3.634.76-11.2-.94-16.184-2.261l-.021-.01s4.965-3.127,15.8-3.4S-61.445,1120.634-61.445,1120.634Z" transform="translate(137.115 -921.783)" fill="#ffdede"/><ellipse cx="29.349" cy="20.923" rx="29.349" ry="20.923" transform="translate(27.052 187.201) rotate(-10.957)" fill="url(#e)" style="mix-blend-mode:screen;isolation:isolate"/></g><rect width="918.952" height="408.423" transform="translate(-612.711 -2336.771)" fill="none"/><g transform="translate(-104.872 -2043.772)"><g transform="translate(0 0.059)"><path d="M1681.495,1076.649l39.89,3.023,32.3-1.464-16.328-2.453,18.791-1.629h98.272l-37.744-3.171-7.6-8.722-13.467-2.809-6.577-1.454-10.335-2,4.607-47.057-1.08-3.352v-32.4l-15.991-15.927L1761,972.426l-10.491,8.546-9.4,41.717s-15.023,3.758-23.64,13.78l0,21.616-4.074,4.148-2.662,9.156-5.648,1.325Z" transform="translate(-1601.443 -957.234)" fill="#feb2ca"/><path d="M1798.9,1215.791l4.6,6.2v6.564l5.479,2.277,0,20.788-8.8-4.142-1.275-10.072Z" transform="translate(-1682.869 -1136.556)" fill="#364472" opacity="0.22" style="mix-blend-mode:multiply;isolation:isolate"/><path d="M1876.048,1076.412l10.907,4.6,2.987,32.591,2.738-49.013v-24.213l-7.236-5.679Z" transform="translate(-1736.375 -1010.957)" fill="#364472" opacity="0.3" style="mix-blend-mode:multiply;isolation:isolate"/><path d="M1940.941,992.329l3.465,1.027-1.732,28.539,5.223-29.618-4.752-6.347Z" transform="translate(-1781.382 -977.137)" fill="#364472" opacity="0.2" style="mix-blend-mode:multiply;isolation:isolate"/><path d="M1803.5,1190.8s4.563.848,13.648-1.641,16.3-13.742,16.3-13.742l-10.907-4.6s-11.894,1.754-23.64,13.78Z" transform="translate(-1682.873 -1105.37)" fill="#a7dee3" opacity="0.51" style="mix-blend-mode:soft-light;isolation:isolate"/><path d="M1913.943,1021.034l3.255-2.641v-1.721l3.465-8.836-3.465-1.027-10.491,8.546Z" transform="translate(-1757.639 -991.617)" fill="#a7dee3" opacity="0.51" style="mix-blend-mode:soft-light;isolation:isolate"/><path d="M1948.13,966.028l4.752,6.347,6.609,1.079.852-1.027h1.474l5.332.734-15.991-15.927Z" transform="translate(-1786.368 -957.234)" fill="#a7dee3" opacity="0.51" style="mix-blend-mode:soft-light;isolation:isolate"/><path d="M1967.3,1117.368l-3.969,4.687-11.6,1.491-3.6,3.1,4.752-1.605h11.261v3.568l4.085-8.636Z" transform="translate(-1786.368 -1068.295)" fill="#a7dee3" opacity="0.51" style="mix-blend-mode:soft-light;isolation:isolate"/><path d="M1835.49,1181.826s-1.974,6.943-8.048,10.453-16.427,2.987-16.427,2.987-3.171-1.817-3.07-4.559,15.6-10.624,18.75-11.038S1835.49,1181.826,1835.49,1181.826Z" transform="translate(-1689.141 -1111.472)" fill="#fdcbdb"/><path d="M1821.208,1207.734a28.873,28.873,0,0,1,9.708-7.832,20.357,20.357,0,0,1,12.258-2.134s-1.166,3.616-6.532,6.954S1821.208,1207.734,1821.208,1207.734Z" transform="translate(-1698.341 -1123.916)" fill="#ffdede"/><path d="M1831.786,1250.636l16.258-3.08,9.857-3.212,1.343,14.658-19.716,8.279-6.583-5.036Z" transform="translate(-1705.678 -1156.359)" fill="#a7dee3" opacity="0.16" style="mix-blend-mode:soft-light;isolation:isolate"/><path d="M1959.491,1007.72l-1.312,15.639-5.3,6.969-4.752,4.646,4.752-28.332Z" transform="translate(-1786.368 -991.5)" fill="#a7dee3" opacity="0.16" style="mix-blend-mode:soft-light;isolation:isolate"/><path d="M1464.893,1330.038l-14.346.568s-9,.747-14.585,1.085h-.01a30.5,30.5,0,0,1-4.3.13c-.677-.289-10.005-1.623-11.379-1.952,0,0,7.188-5.077,11.21-7.457a9.472,9.472,0,0,1,2.479-1.2c1.623-.129,12.445.617,13.878,1.115.568.2,1.115,1.334,1.573,2.618a36.529,36.529,0,0,1,1.135,4.181Z" transform="translate(-1420.272 -1209.657)" fill="#feb2ca"/><path d="M1435.952,1331.724a30.48,30.48,0,0,1-4.3.13c-.677-.289-10.005-1.623-11.379-1.951,0,0,7.188-5.077,11.21-7.457l2.479-1.2-1.165,4.341,1.165.806-.577,2.807Z" transform="translate(-1420.272 -1209.691)" fill="#364472" opacity="0.26" style="mix-blend-mode:multiply;isolation:isolate"/><path d="M1477.756,1324.941c-5.5.816-16.616.607-16.616.607l1.165-4.341c1.623-.129,12.445.617,13.878,1.115C1476.75,1322.522,1477.3,1323.656,1477.756,1324.941Z" transform="translate(-1448.616 -1209.657)" fill="#a7dee3" opacity="0.51" style="mix-blend-mode:soft-light;isolation:isolate"/></g><ellipse cx="23.135" cy="23.135" rx="23.135" ry="23.135" transform="translate(109.584)" fill="url(#f)" style="mix-blend-mode:screen;isolation:isolate"/></g><rect width="765.68" height="432.438" transform="translate(-539.572 -2390.956)" fill="none"/></g><g transform="translate(-903.959 -208.208)"><g transform="translate(1049.959 277.45)"><g transform="translate(96.648 39.219)"><path d="M1120.155,330.329a.7.7,0,0,1-.111-1.381c.063-.01,6.223-1.053,9.938-4.218,8.693-7.4,7.68-14.195,7.668-14.263a.7.7,0,0,1,1.37-.236c.054.306,1.207,7.6-8.135,15.559-4.016,3.418-10.349,4.486-10.616,4.53A.784.784,0,0,1,1120.155,330.329Z" transform="translate(-1119.461 -304.09)" fill="#434040"/><path d="M1130.982,306.462c-2.67,1.922-1.153,7.2,3.43,6.393S1135.89,302.934,1130.982,306.462Z" transform="translate(-1115.476 -305.654)" fill="#434040"/></g><path d="M1165.485,355.826c12.733,22.276,10.155,68.192-36.415,82.973s-89.756-29.159-76.771-96.9,70.234-66.645,83.528-63.2c17.292,4.465,19.841,21.813,12.14,29-7.81,7.275-23.64,3.276-38.288,9.545-20.53,8.794-16.6,21.628-14,25.256s9.015-3.325,24.558-6.2C1136.645,333.273,1155.4,338.19,1165.485,355.826Zm-24.4,23.115c-.315-9.341-9.062-16.613-19.543-16.259s-18.714,8.2-18.4,17.543,9.064,16.623,19.543,16.268S1141.4,388.28,1141.083,378.941Z" transform="translate(-1049.959 -277.45)" fill="#ffb2ca"/><g transform="translate(12.167 66.231)"><path d="M1071.183,353.12c-4.3,0-9.249-1.346-11.446-6.882-4.486-11.305,7.149-20.909,7.267-21a.7.7,0,0,1,.876,1.081c-.11.089-10.958,9.061-6.85,19.411,3.773,9.5,17.128,4.92,17.261,4.87a.7.7,0,0,1,.463,1.313A25.83,25.83,0,0,1,1071.183,353.12Z" transform="translate(-1058.708 -325.079)" fill="#434040"/><path d="M1078.256,341.272c-2.249-2.4-7.285-.216-5.895,4.227S1082.387,345.684,1078.256,341.272Z" transform="translate(-1053.469 -319.14)" fill="#434040"/></g><path d="M1063.913,398.2a14.945,14.945,0,0,1-6.765-1.758.7.7,0,0,1,.63-1.24,12.076,12.076,0,0,0,9.575,1.037c5.677-1.926,8.709-8.124,8.739-8.186a.7.7,0,0,1,1.254.6c-.132.275-3.321,6.787-9.546,8.9A12.018,12.018,0,0,1,1063.913,398.2Z" transform="translate(-1047.3 -234.405)" fill="#434040"/><g transform="translate(5.164 156.847)"><path d="M1116.473,405.88h-.005a.7.7,0,0,1-.69-.7c.035-3.57-2.8-13.952-2.826-14.056a.7.7,0,1,1,1.342-.367c.118.434,2.911,10.673,2.874,14.437A.694.694,0,0,1,1116.473,405.88Z" transform="translate(-1030.529 -390.243)" fill="#434040"/><path d="M1056.365,391.338a3.231,3.231,0,0,0-2.285.98,1.334,1.334,0,0,0-.282,1.523c.534,1.192,2.859,2.052,4.5,2a2.583,2.583,0,0,0,1.793-.651,1.479,1.479,0,0,0,.307-1.709A4.564,4.564,0,0,0,1056.365,391.338Z" transform="translate(-1053.673 -389.816)" fill="#434040"/><path d="M1122.985,401.185c-.348-1.261-1.681-1.947-3.659-1.881-1.609.054-3.611.638-4.323,1.652a1.364,1.364,0,0,0-.217,1.221c.456,1.429,2.93,1.5,3.971,1.467,1.5-.051,3.346-.424,4.006-1.322A1.3,1.3,0,0,0,1122.985,401.185Z" transform="translate(-1029.827 -386.706)" fill="#434040"/></g><ellipse cx="22.435" cy="18.556" rx="22.435" ry="18.556" transform="matrix(0.968, -0.25, 0.25, 0.968, 45.787, 89.816)" fill="#441d2d"/><path d="M1090.849,343.781l5.729,7.257c2.508,3.175,6.732,1.253,7.569-3.444l1.8-10.132A25.746,25.746,0,0,0,1090.849,343.781Z" transform="translate(-1033.988 -254.011)" fill="#fff"/><path d="M1117.949,342.017l-6.608,7.445c-2.44,3.6-6.7,2.4-7.626-2.151l-2.005-9.806S1110.882,336.076,1117.949,342.017Z" transform="translate(-1029.746 -254.053)" fill="#fff"/><path d="M1105.22,366.624h.189c5.636,0,11.071-2.1,16.093-6.2-1.454-.709-9.58-2.413-16.377.729a21.1,21.1,0,0,0-15.633-.3C1093.107,364.527,1099.519,366.624,1105.22,366.624Z" transform="translate(-1034.518 -245.471)" fill="#ea78a7"/></g><g transform="translate(1078.64 278.922)"><g transform="translate(2.108 121.538)" opacity="0.3"><circle cx="1.718" cy="1.718" r="1.718" transform="translate(5.744)" fill="#441d2d"/><circle cx="1.718" cy="1.718" r="1.718" transform="translate(0 11.666)" fill="#441d2d"/><circle cx="3.136" cy="3.136" r="3.136" transform="translate(8.274 9.03)" fill="#441d2d"/><circle cx="1.005" cy="1.005" r="1.005" transform="translate(4.041 5.559)" fill="#441d2d"/></g><g transform="translate(0 19.382)" opacity="0.23"><circle cx="1.718" cy="1.718" r="1.718" transform="translate(12.516 10.429)" fill="#441d2d"/><circle cx="1.718" cy="1.718" r="1.718" transform="translate(4.75)" fill="#441d2d"/><circle cx="3.136" cy="3.136" r="3.136" transform="translate(0 7.764)" fill="#441d2d"/><circle cx="1.005" cy="1.005" r="1.005" transform="translate(10.016 6.783)" fill="#441d2d"/></g><g transform="translate(22.451)"><circle cx="16.873" cy="16.873" r="16.873" fill="#fff"/><path d="M1113.807,281.745a16.87,16.87,0,0,1-23.842,23.841,16.871,16.871,0,1,0,23.842-23.841Z" transform="translate(-1085.466 -277.245)" fill="#441d2d"/><circle cx="10.244" cy="10.244" r="10.244" transform="translate(6.327 6.93)" fill="#123535"/><circle cx="3.465" cy="3.465" r="3.465" transform="translate(19.585 8.436)" fill="#fff"/><circle cx="1.055" cy="1.055" r="1.055" transform="translate(15.668 14.161)" fill="#fff"/></g></g></g></g></svg>