<svg xmlns="http://www.w3.org/2000/svg" xmlns:xlink="http://www.w3.org/1999/xlink" width="380" height="254" viewBox="0 0 380 254">
  <defs>
    <linearGradient id="linear-gradient" x1="0.5" y1="1" x2="0.5" gradientUnits="objectBoundingBox">
      <stop offset="0" stop-color="#ffdee9"/>
      <stop offset="1" stop-color="#5b679a"/>
    </linearGradient>
    <radialGradient id="radial-gradient" cx="0.5" cy="0.5" r="0.701" gradientTransform="translate(0.144 -0.1) scale(0.713 0.713)" gradientUnits="objectBoundingBox">
      <stop offset="0" stop-color="#feb2ca"/>
      <stop offset="0.12" stop-color="#d092a5"/>
      <stop offset="0.301" stop-color="#926674"/>
      <stop offset="0.475" stop-color="#5d414a"/>
      <stop offset="0.636" stop-color="#35252a"/>
      <stop offset="0.782" stop-color="#181013"/>
      <stop offset="0.908" stop-color="#060405"/>
      <stop offset="1"/>
    </radialGradient>
    <radialGradient id="radial-gradient-2" cy="0.5" r="0.5" gradientTransform="matrix(0, 1, -1, 0, -2.792, -3.117)" xlink:href="#radial-gradient"/>
    <radialGradient id="radial-gradient-3" cy="0.5" r="0.5" gradientTransform="matrix(0, 1, -1, 0, -2.841, -3.263)" xlink:href="#radial-gradient"/>
    <radialGradient id="radial-gradient-4" cy="0.5" r="0.701" gradientTransform="translate(0.07 2.04) scale(0.713 0.713)" xlink:href="#radial-gradient"/>
    <radialGradient id="radial-gradient-5" cy="0.5" r="0.5" gradientTransform="translate(0)" xlink:href="#radial-gradient"/>
    <clipPath id="clip-grade_5">
      <rect width="380" height="254"/>
    </clipPath>
  </defs>
  <g id="grade_5" data-name="grade 5" clip-path="url(#clip-grade_5)">
    <rect width="380" height="254" fill="#fff"/>
    <g id="Group_700" data-name="Group 700" transform="translate(523.955 2174.875)">
      <rect id="Rectangle_1" data-name="Rectangle 1" width="1010.677" height="305.312" transform="translate(-668.32 -2264.292)" fill="url(#linear-gradient)"/>
      <rect id="Rectangle_2" data-name="Rectangle 2" width="994.216" height="169.741" transform="translate(-621.555 -2005.656)" fill="#efa8c1"/>
      <g id="Group_39" data-name="Group 39" transform="translate(-544.43 -2252.851)" opacity="0.81" style="mix-blend-mode: screen;isolation: isolate">
        <ellipse id="Ellipse_229" data-name="Ellipse 229" cx="0.498" cy="0.498" rx="0.498" ry="0.498" transform="translate(491.343 58.997)" fill="#a7dee3"/>
        <ellipse id="Ellipse_230" data-name="Ellipse 230" cx="0.498" cy="0.498" rx="0.498" ry="0.498" transform="translate(593.018 16.056)" fill="#a7dee3"/>
        <path id="Path_1804" data-name="Path 1804" d="M1940.849,501.812a.5.5,0,1,0,.5-.5A.5.5,0,0,0,1940.849,501.812Z" transform="translate(-1291.022 -473.855)" fill="#a7dee3"/>
        <ellipse id="Ellipse_231" data-name="Ellipse 231" cx="0.498" cy="0.498" rx="0.498" ry="0.498" transform="translate(399.528 145.92)" fill="#a7dee3"/>
        <path id="Path_1805" data-name="Path 1805" d="M826.423,953.336a.5.5,0,1,0,.5-.5A.5.5,0,0,0,826.423,953.336Z" transform="translate(-539.399 -778.384)" fill="#a7dee3"/>
        <path id="Path_1806" data-name="Path 1806" d="M1313.343,954.865a.5.5,0,1,0,.5-.5A.5.5,0,0,0,1313.343,954.865Z" transform="translate(-867.801 -779.415)" fill="#a7dee3"/>
        <path id="Path_1807" data-name="Path 1807" d="M650.183,809.5a.5.5,0,1,0,.5-.5A.5.5,0,0,0,650.183,809.5Z" transform="translate(-420.534 -681.373)" fill="#a7dee3"/>
        <path id="Path_1808" data-name="Path 1808" d="M688.142,1026.293a.5.5,0,1,0,.5-.5A.5.5,0,0,0,688.142,1026.293Z" transform="translate(-446.136 -827.59)" fill="#a7dee3"/>
        <path id="Path_1809" data-name="Path 1809" d="M762.774,759.814a.5.5,0,1,0,.5-.5A.5.5,0,0,0,762.774,759.814Z" transform="translate(-496.471 -647.863)" fill="#a7dee3"/>
        <path id="Path_1810" data-name="Path 1810" d="M1862.5,1198.6a.5.5,0,1,0,.5-.5A.5.5,0,0,0,1862.5,1198.6Z" transform="translate(-1238.176 -943.804)" fill="#a7dee3"/>
        <path id="Path_1811" data-name="Path 1811" d="M1710.308,1061.115a.5.5,0,1,0,.5-.5A.5.5,0,0,0,1710.308,1061.115Z" transform="translate(-1135.534 -851.076)" fill="#a7dee3"/>
        <path id="Path_1812" data-name="Path 1812" d="M1724.214,1271.559a.5.5,0,1,0,.5-.5A.5.5,0,0,0,1724.214,1271.559Z" transform="translate(-1144.912 -993.009)" fill="#a7dee3"/>
        <path id="Path_1813" data-name="Path 1813" d="M1798.846,1005.08a.5.5,0,1,0,.5-.5A.5.5,0,0,0,1798.846,1005.08Z" transform="translate(-1195.248 -813.283)" fill="#a7dee3"/>
        <path id="Path_1814" data-name="Path 1814" d="M1812.639,769.991a.5.5,0,1,0,.5-.5A.5.5,0,0,0,1812.639,769.991Z" transform="translate(-1204.55 -654.728)" fill="#a7dee3"/>
        <path id="Path_1815" data-name="Path 1815" d="M1031.306,868.678a.5.5,0,1,0,.5-.5A.5.5,0,0,0,1031.306,868.678Z" transform="translate(-677.582 -721.286)" fill="#a7dee3"/>
        <path id="Path_1816" data-name="Path 1816" d="M880.6,949.724a.5.5,0,1,0,.5-.5A.5.5,0,0,0,880.6,949.724Z" transform="translate(-575.936 -775.948)" fill="#a7dee3"/>
        <path id="Path_1817" data-name="Path 1817" d="M459.69,835.534a.5.5,0,1,0,.5-.5A.5.5,0,0,0,459.69,835.534Z" transform="translate(-292.057 -698.932)" fill="#a7dee3"/>
        <path id="Path_1818" data-name="Path 1818" d="M321.409,908.49a.5.5,0,1,0,.5-.5A.5.5,0,0,0,321.409,908.49Z" transform="translate(-198.793 -748.138)" fill="#a7dee3"/>
        <ellipse id="Ellipse_232" data-name="Ellipse 232" cx="0.498" cy="0.498" rx="0.498" ry="0.498" transform="translate(185.269 134.928)" fill="#a7dee3"/>
        <path id="Path_1819" data-name="Path 1819" d="M982.694,478.464a.813.813,0,1,0,.813-.813A.813.813,0,0,0,982.694,478.464Z" transform="translate(-644.796 -457.895)" fill="#a7dee3"/>
        <path id="Path_1820" data-name="Path 1820" d="M1272,417.779a.813.813,0,1,0,.813-.813A.813.813,0,0,0,1272,417.779Z" transform="translate(-839.92 -416.966)" fill="#a7dee3"/>
        <path id="Path_1821" data-name="Path 1821" d="M1123.9,633.928a.813.813,0,1,0,.813-.813A.813.813,0,0,0,1123.9,633.928Z" transform="translate(-740.033 -562.747)" fill="#a7dee3"/>
        <ellipse id="Ellipse_233" data-name="Ellipse 233" cx="0.813" cy="0.813" rx="0.813" ry="0.813" transform="translate(184.052 96.107)" fill="#a7dee3"/>
        <path id="Path_1822" data-name="Path 1822" d="M1483.608,651.762a.813.813,0,1,0,.813-.813A.813.813,0,0,0,1483.608,651.762Z" transform="translate(-982.636 -574.775)" fill="#a7dee3"/>
        <ellipse id="Ellipse_234" data-name="Ellipse 234" cx="0.498" cy="0.498" rx="0.498" ry="0.498" transform="translate(153.445 60.623)" fill="#a7dee3"/>
        <ellipse id="Ellipse_235" data-name="Ellipse 235" cx="0.813" cy="0.813" rx="0.813" ry="0.813" transform="translate(0 21.382)" fill="#a7dee3"/>
        <ellipse id="Ellipse_236" data-name="Ellipse 236" cx="0.813" cy="0.813" rx="0.813" ry="0.813" transform="translate(94.185 1.626)" fill="#a7dee3"/>
        <ellipse id="Ellipse_237" data-name="Ellipse 237" cx="0.813" cy="0.813" rx="0.813" ry="0.813" transform="translate(45.97 71.994)" fill="#a7dee3"/>
        <ellipse id="Ellipse_238" data-name="Ellipse 238" cx="0.813" cy="0.813" rx="0.813" ry="0.813" transform="translate(163.073 77.799)" fill="#a7dee3"/>
      </g>
      <path id="Path_78" data-name="Path 78" d="M1894.408,1154.659l-424.174,27.478,88.911,4.536,16.32-2.768,97.523,1.61-64.455,4.774,85.941,2.762,197.518-2.253Z" transform="translate(-1518.047 -3167.352)" fill="#5b679a" opacity="0.19" style="mix-blend-mode: multiply;isolation: isolate"/>
      <path id="Path_79" data-name="Path 79" d="M901.849,1170.825l78.354,8.705-73.742,2.661,75.294,3.273,37.1.18,11.251-1.835,40.143,1.288-62.562,4.326-21,.864,19.137,3.479,17.1,1.434,29.517-.707,114.856,2.829-50.57-4.589-10.835-1.457,39.195-2.005,30.291-1.2,15.74-.9,37.872-2.413,6.338-7.18-7.382-5.154Z" transform="translate(-1134.701 -3178.255)" fill="#5b679a" opacity="0.22" style="mix-blend-mode: multiply;isolation: isolate"/>
      <g id="Group_40" data-name="Group 40" transform="translate(-359.093 -2064.147)">
        <path id="Path_2053" data-name="Path 2053" d="M246.09,887.2l2.642-1.98v3.393h2.642l4.341,2.262,9.436-5.655h3.208l2.076,2.827h5.85l5.284-15.268h2.265l2.642-11.687,3.491-.236,1.982-25.965h1.415l1.415,30.536,2.265.754v8.105l5.284,1.131,3.774,9.048,3.208.188V872.215l5.85-12.064v-3.2l5.662.236v1.461l3.586,4.241,3.4,17.059,1.7.754v3.2l2.265,2.45v2.639L338,899.923h2.076l20.948,3.2,10.943,1.212H333.336l1.321-6.49,6.228-1.885,1.887-4.524,2.642-1.319,3.02-12.441,2.076-5.278,1.51-2.787,1.7-2.114,3.586.189v-5.278l3.02-4.147v3.77h3.586L361.078,850.6l2.453-1.142,3.162-3.212.613.334v9.236l1.887.565v19.792l2.831,1.319v6.22l1.7.377V888.8l2.453.754,2.831,6.409,13.022,6.6,3.022,1.778,5.284-1.778L404.3,898.6l1.321-.377V894.08l1.321-2.45v-4.712l2.831-5.466,2.453,4.524,1.887-1.319,3.774-1.131v-7.351l9.058-7.216,1.51,3.635,2.076-.942,2.265,5.466,5.85,1.319v6.786l1.887.754,1.321,3.958,4.529,1.508,5.473,8.671,2.453,1.131v-6.409l3.208-2.45,2.642-9.8,3.4-2.262,1.321-6.786,2.642-6.974v17.907l2.642,1.885,1.51,7.728,2.265.754v-44.3l3.02-8.294,3.208-2.639v6.974h1.887l2.453,11.687,6.511,10.691v10.138l2.831,3.11,5.378,5.938v7.068h7.36l3.114,5.938h3.963l7.643-3.958,2.548-7.917v-8.482l1.982-2.545v-4.241l1.982-.565,1.7-4.483V853.083l5.379-12.441,2.262,63.7h-288.8Z" transform="translate(-246.09 -833.75)" fill="#ea96b5"/>
        <path id="Path_2054" data-name="Path 2054" d="M721.349,1107.7l2.831.943,1.7-.943-1.887-1.319Z" transform="translate(-624.667 -1050.009)" fill="#ea96b5" opacity="0.2" style="mix-blend-mode: overlay;isolation: isolate"/>
        <path id="Path_2055" data-name="Path 2055" d="M792.78,953.936v1.885l10-1.814-6.983-.448v-3.77Z" transform="translate(-681.567 -925.273)" fill="#ea96b5" opacity="0.2" style="mix-blend-mode: overlay;isolation: isolate"/>
        <path id="Path_2056" data-name="Path 2056" d="M825.249,890.174h1.038v1.6l2.359-3.864-2.076-1.131Z" transform="translate(-707.431 -875.083)" fill="#ea96b5" opacity="0.2" style="mix-blend-mode: overlay;isolation: isolate"/>
        <path id="Path_2057" data-name="Path 2057" d="M834.228,1037.814l-3.586,1.7-.755,1.791h3.68l3.491-2.168Z" transform="translate(-711.126 -995.391)" fill="#ea96b5" opacity="0.2" style="mix-blend-mode: overlay;isolation: isolate"/>
        <path id="Path_2058" data-name="Path 2058" d="M853.316,1074.877h-1.51l-1.51.848,4.718-.471Z" transform="translate(-727.383 -1024.914)" fill="#ea96b5" opacity="0.2" style="mix-blend-mode: overlay;isolation: isolate"/>
        <path id="Path_2059" data-name="Path 2059" d="M844.669,1099.894l-1.7.754-5.661.565h6.322l3.491-.565Z" transform="translate(-717.038 -1044.843)" fill="#ea96b5" opacity="0.2" style="mix-blend-mode: overlay;isolation: isolate"/>
        <path id="Path_2060" data-name="Path 2060" d="M814.483,1135.1l-7.738,3.487H792.78L809.859,1140l11.885-1.222Z" transform="translate(-681.567 -1072.89)" fill="#ea96b5" opacity="0.2" style="mix-blend-mode: overlay;isolation: isolate"/>
        <path id="Path_2061" data-name="Path 2061" d="M684.561,1136.8h13.9l-8.3-1.694Z" transform="translate(-595.363 -1072.89)" fill="#ea96b5" opacity="0.2" style="mix-blend-mode: overlay;isolation: isolate"/>
        <path id="Path_2062" data-name="Path 2062" d="M768.5,995.191l-1.7,2.114,5.284.807,7.077-1.461-6.181-.006,1.25-.818-2.147-.448Z" transform="translate(-660.876 -961.439)" fill="#ea96b5" opacity="0.2" style="mix-blend-mode: overlay;isolation: isolate"/>
        <path id="Path_2063" data-name="Path 2063" d="M365.762,1096.188l10.474,3.2,9.058-1.6-13.682-1.6Z" transform="translate(-341.417 -1041.89)" fill="#ea96b5" opacity="0.2" style="mix-blend-mode: overlay;isolation: isolate"/>
        <path id="Path_2064" data-name="Path 2064" d="M420.495,1021.135l4.435,2.5,6.935-.707-5.685-.542.59-.518-4.01-.73Z" transform="translate(-385.016 -982.105)" fill="#ea96b5" opacity="0.2" style="mix-blend-mode: overlay;isolation: isolate"/>
        <path id="Path_2065" data-name="Path 2065" d="M466.589,985l-1.84.448-2.972.495,7.077-.188Z" transform="translate(-417.9 -953.32)" fill="#ea96b5" opacity="0.2" style="mix-blend-mode: overlay;isolation: isolate"/>
        <path id="Path_2066" data-name="Path 2066" d="M444.614,962.765l2.076.683,2.76-.342-1.345-.577Z" transform="translate(-404.229 -935.422)" fill="#ea96b5" opacity="0.2" style="mix-blend-mode: overlay;isolation: isolate"/>
        <path id="Path_2067" data-name="Path 2067" d="M485.2,1028.548l-2.9.389,2.9.6,5.284.141Z" transform="translate(-434.249 -988.01)" fill="#ea96b5" opacity="0.2" style="mix-blend-mode: overlay;isolation: isolate"/>
        <path id="Path_2068" data-name="Path 2068" d="M534.258,1078.583l-1.746,1.037,5.9.377.849-.707-1.793-.518Z" transform="translate(-474.246 -1027.867)" fill="#ea96b5" opacity="0.2" style="mix-blend-mode: overlay;isolation: isolate"/>
        <path id="Path_2069" data-name="Path 2069" d="M470.389,834.893l-.288,3.775,1.7-3.775Z" transform="translate(-424.531 -833.75)" fill="#ea96b5" opacity="0.2" style="mix-blend-mode: overlay;isolation: isolate"/>
        <path id="Path_2070" data-name="Path 2070" d="M585.622,943.3l2.548,1.861,3.114-.165v-1.461Z" transform="translate(-516.551 -920.106)" fill="#ea96b5" opacity="0.2" style="mix-blend-mode: overlay;isolation: isolate"/>
        <path id="Path_2071" data-name="Path 2071" d="M562.714,959.054l.849,1.626-2.406,6.574,1.2-.495-3.7,4.383-1.793-.024Z" transform="translate(-493.643 -932.654)" fill="#ea96b5" opacity="0.2" style="mix-blend-mode: overlay;isolation: isolate"/>
        <path id="Path_2072" data-name="Path 2072" d="M620.435,1056.345l-6.982,2.195h6.982l-.849-.64,2.548-.8Z" transform="translate(-538.72 -1010.153)" fill="#ea96b5" opacity="0.2" style="mix-blend-mode: overlay;isolation: isolate"/>
        <path id="Path_2073" data-name="Path 2073" d="M644.857,1075.8l-2.878,1.555,5.143.9Z" transform="translate(-561.443 -1025.652)" fill="#ea96b5" opacity="0.2" style="mix-blend-mode: overlay;isolation: isolate"/>
        <path id="Path_2074" data-name="Path 2074" d="M598.666,1154.562l-25.335.942h20.146l-1.038,1.131,22.777.141-14.473-2.214Z" transform="translate(-506.76 -1088.389)" fill="#ea96b5" opacity="0.2" style="mix-blend-mode: overlay;isolation: isolate"/>
        <path id="Path_2075" data-name="Path 2075" d="M464.084,1135.1h4.529l-1.132.847,7.855.847-18.836.45Z" transform="translate(-413.697 -1072.89)" fill="#ea96b5" opacity="0.2" style="mix-blend-mode: overlay;isolation: isolate"/>
        <path id="Path_2076" data-name="Path 2076" d="M1663.655,882.727l2.642-1.98v3.393h2.642l4.34,2.262,9.436-5.655h3.208l2.076,2.827h5.85l5.284-15.268h2.265l2.642-11.687,3.491-.236,1.982-25.965h1.415l1.415,30.536,2.265.754v8.105l5.284,1.131,3.774,9.048,3.208.188V867.741l5.85-12.064v-3.2l5.661.236v1.461l3.586,4.241,3.4,17.059,1.7.754v3.2l2.265,2.45v2.639l6.228,10.933h2.076l20.948,3.2,10.943,1.213H1750.9l1.321-6.49,6.228-1.885,1.887-4.524,2.642-1.319L1766,873.208l2.076-5.278,1.51-2.787,1.7-2.114,3.586.189V857.94l3.019-4.147v3.77h3.586V830.419l2.453-1.142.331,12.5.613.334v9.236l1.887.565V871.7l2.831,1.319v6.22l1.7.377v4.712l2.453.754,2.831,6.409,13.022,6.6,3.022,1.778,5.284-1.778,3.963-3.958,1.321-.377v-4.147l1.321-2.451v-4.712l2.831-5.466,2.453,4.524,1.887-1.319,3.774-1.131V871.7l9.059-7.216,1.51,3.635,2.076-.943,2.265,5.466,5.85,1.32v6.786l1.887.754,1.321,3.958,4.529,1.508,5.473,8.671,2.453,1.131V890.36l3.208-2.45,2.642-9.8,3.4-2.262,1.321-6.786,2.642-6.974v17.907l2.642,1.885,1.51,7.728,2.265.754v-44.3l3.019-8.294,3.208-2.639v6.974h1.887l2.453,11.687,6.511,10.691v10.138l2.831,3.11,5.379,5.938v7.068h7.36l3.114,5.938h3.963l7.643-3.958,2.548-7.917v-8.482l1.982-2.545v-4.241l1.981-.566,1.7-4.483V848.609l5.378-12.441,2.262,63.7h-288.8Z" transform="translate(-1375.28 -829.277)" fill="#ea96b5"/>
        <path id="Path_2077" data-name="Path 2077" d="M1783.326,1096.188l10.474,3.2,9.058-1.6-13.682-1.6Z" transform="translate(-1470.607 -1041.89)" fill="#ea96b5" opacity="0.2" style="mix-blend-mode: overlay;isolation: isolate"/>
        <path id="Path_2078" data-name="Path 2078" d="M1838.06,1021.135l4.435,2.5,6.936-.707-5.685-.542.59-.518-4.01-.73Z" transform="translate(-1514.206 -982.105)" fill="#ea96b5" opacity="0.2" style="mix-blend-mode: overlay;isolation: isolate"/>
        <path id="Path_2079" data-name="Path 2079" d="M1884.154,985l-1.84.448-2.972.495,7.077-.188Z" transform="translate(-1547.089 -953.32)" fill="#ea96b5" opacity="0.2" style="mix-blend-mode: overlay;isolation: isolate"/>
        <path id="Path_2080" data-name="Path 2080" d="M1862.179,962.765l2.076.683,2.76-.342-1.345-.577Z" transform="translate(-1533.418 -935.422)" fill="#ea96b5" opacity="0.2" style="mix-blend-mode: overlay;isolation: isolate"/>
        <path id="Path_2081" data-name="Path 2081" d="M1902.768,1028.548l-2.9.389,2.9.6,5.284.141Z" transform="translate(-1563.439 -988.01)" fill="#ea96b5" opacity="0.2" style="mix-blend-mode: overlay;isolation: isolate"/>
        <path id="Path_2082" data-name="Path 2082" d="M1951.823,1078.583l-1.746,1.037,5.9.377.849-.707-1.793-.518Z" transform="translate(-1603.436 -1027.867)" fill="#ea96b5" opacity="0.2" style="mix-blend-mode: overlay;isolation: isolate"/>
        <path id="Path_2083" data-name="Path 2083" d="M2003.187,943.3l2.548,1.861,3.114-.165v-1.461Z" transform="translate(-1645.741 -920.106)" fill="#ea96b5" opacity="0.2" style="mix-blend-mode: overlay;isolation: isolate"/>
        <path id="Path_2084" data-name="Path 2084" d="M1980.279,959.054l.849,1.626-2.406,6.574,1.2-.495-3.7,4.383-1.793-.024Z" transform="translate(-1622.833 -932.654)" fill="#ea96b5" opacity="0.2" style="mix-blend-mode: overlay;isolation: isolate"/>
        <path id="Path_2085" data-name="Path 2085" d="M2016.23,1154.562l-25.335.942h20.146l-1.038,1.131,22.777.141-14.473-2.214Z" transform="translate(-1635.95 -1088.389)" fill="#ea96b5" opacity="0.2" style="mix-blend-mode: overlay;isolation: isolate"/>
        <path id="Path_2086" data-name="Path 2086" d="M1881.649,1135.1h4.529l-1.132.847,7.855.847-18.837.45Z" transform="translate(-1542.886 -1072.89)" fill="#ea96b5" opacity="0.2" style="mix-blend-mode: overlay;isolation: isolate"/>
        <path id="Path_2087" data-name="Path 2087" d="M759.384,1067.135l4.624,1.575,4.388-.787Z" transform="translate(-654.965 -1018.747)" fill="#ea96b5" opacity="0.2" style="mix-blend-mode: overlay;isolation: isolate"/>
        <path id="Path_2088" data-name="Path 2088" d="M1062.749,1076.4l7.36,2.073,9.625-2.5-11.323-2.026-3.774,1.131Z" transform="translate(-896.616 -1024.176)" fill="#ea96b5" opacity="0.2" style="mix-blend-mode: overlay;isolation: isolate"/>
        <path id="Path_2089" data-name="Path 2089" d="M1090.58,1009.557h9.365l-1.557-1.107,2.76-2.474-1.51-3.635Z" transform="translate(-918.785 -967.134)" fill="#ea96b5" opacity="0.2" style="mix-blend-mode: overlay;isolation: isolate"/>
        <path id="Path_2090" data-name="Path 2090" d="M1141.605,1042.446l-5.685,1.343,11.535-.024Z" transform="translate(-954.902 -999.081)" fill="#ea96b5" opacity="0.2" style="mix-blend-mode: overlay;isolation: isolate"/>
        <path id="Path_2091" data-name="Path 2091" d="M1039.6,1063.758l-2.831,5.466,3.822-1.814Z" transform="translate(-875.925 -1016.057)" fill="#ea96b5" opacity="0.2" style="mix-blend-mode: overlay;isolation: isolate"/>
        <path id="Path_2092" data-name="Path 2092" d="M1031.6,1113.793l3.114,1.673,4.317.707-8.752.071Z" transform="translate(-870.753 -1055.914)" fill="#ea96b5" opacity="0.2" style="mix-blend-mode: overlay;isolation: isolate"/>
        <path id="Path_2093" data-name="Path 2093" d="M1165.35,1105.454l-5.119,1.319-5.874.377,12.031.754-.778-.754,4.27-.188Z" transform="translate(-969.589 -1049.271)" fill="#ea96b5" opacity="0.2" style="mix-blend-mode: overlay;isolation: isolate"/>
        <path id="Path_2094" data-name="Path 2094" d="M1182.042,1083.043l-5.072-.188,3.185-.565Z" transform="translate(-987.601 -1030.819)" fill="#ea96b5" opacity="0.2" style="mix-blend-mode: overlay;isolation: isolate"/>
        <path id="Path_2095" data-name="Path 2095" d="M1269.622,1119.95l6.416-.754-2.123-.613,2.736-.613-3.822-.471Z" transform="translate(-1061.405 -1058.866)" fill="#ea96b5" opacity="0.2" style="mix-blend-mode: overlay;isolation: isolate"/>
        <path id="Path_2096" data-name="Path 2096" d="M1450.056,1052.176l3.963,6.691.661.188,3.585,2.168Z" transform="translate(-1205.134 -1006.831)" fill="#ea96b5" opacity="0.2" style="mix-blend-mode: overlay;isolation: isolate"/>
        <path id="Path_2097" data-name="Path 2097" d="M1394.4,949.789l-6.039,3.016h4.435l-1.415,1.131,5.661,1.885,3.869,4.659Z" transform="translate(-1155.993 -925.273)" fill="#ea96b5" opacity="0.2" style="mix-blend-mode: overlay;isolation: isolate"/>
        <path id="Path_2098" data-name="Path 2098" d="M1324.584,1078.583l-2.548,1.508,5.19.377Z" transform="translate(-1103.157 -1027.867)" fill="#ea96b5" opacity="0.2" style="mix-blend-mode: overlay;isolation: isolate"/>
        <path id="Path_2099" data-name="Path 2099" d="M1298.38,1060.46l4.812-1.131-1.415-1.131Z" transform="translate(-1084.313 -1011.629)" fill="#ea96b5" opacity="0.2" style="mix-blend-mode: overlay;isolation: isolate"/>
        <path id="Path_2100" data-name="Path 2100" d="M1369.121,871.029l-3.02,8.294,4.529-4.147h-1.321Z" transform="translate(-1138.258 -862.536)" fill="#ea96b5" opacity="0.2" style="mix-blend-mode: overlay;isolation: isolate"/>
        <path id="Path_2101" data-name="Path 2101" d="M1393.066,892.341h-.932l3.074,1.216-.255-1.216Z" transform="translate(-1158.995 -879.512)" fill="#ea96b5" opacity="0.2" style="mix-blend-mode: overlay;isolation: isolate"/>
        <path id="Path_2102" data-name="Path 2102" d="M1377.234,1096.188l13.823.094-5.284,1.979-3.971-.189Z" transform="translate(-1147.125 -1041.89)" fill="#ea96b5" opacity="0.2" style="mix-blend-mode: overlay;isolation: isolate"/>
        <path id="Path_2103" data-name="Path 2103" d="M1354.969,1125.838l2.265.754,8.37,1.978-8.37-.847Z" transform="translate(-1129.39 -1065.509)" fill="#ea96b5" opacity="0.2" style="mix-blend-mode: overlay;isolation: isolate"/>
        <path id="Path_2104" data-name="Path 2104" d="M1462.7,1131.4l-7.077,1.6,12.031.847,2.406-2.448Z" transform="translate(-1209.567 -1069.938)" fill="#ea96b5" opacity="0.2" style="mix-blend-mode: overlay;isolation: isolate"/>
        <path id="Path_2105" data-name="Path 2105" d="M1611.473,1050.551l5.945,1.791,2.548-1.791-6.511-2.545Z" transform="translate(-1333.714 -1003.51)" fill="#ea96b5" opacity="0.2" style="mix-blend-mode: overlay;isolation: isolate"/>
        <path id="Path_2106" data-name="Path 2106" d="M1601.5,1102.211l4.246,8.385-2.123-.847-4.671.378Z" transform="translate(-1323.738 -1046.688)" fill="#ea96b5" opacity="0.2" style="mix-blend-mode: overlay;isolation: isolate"/>
        <path id="Path_2107" data-name="Path 2107" d="M1623.2,1024.378l-1.981.565,3.963.636h4.671Z" transform="translate(-1341.473 -984.689)" fill="#ea96b5" opacity="0.2" style="mix-blend-mode: overlay;isolation: isolate"/>
        <path id="Path_2108" data-name="Path 2108" d="M1639.3,875.594l4.954-3.04h-1.415l1.84-9.4Z" transform="translate(-1355.882 -856.262)" fill="#ea96b5" opacity="0.2" style="mix-blend-mode: overlay;isolation: isolate"/>
        <path id="Path_2109" data-name="Path 2109" d="M1377.234,1031.157l6.105-.872,3.33.872Z" transform="translate(-1147.125 -989.394)" fill="#ea96b5" opacity="0.2" style="mix-blend-mode: overlay;isolation: isolate"/>
        <path id="Path_2110" data-name="Path 2110" d="M1023.786,1146.6l5.7,1.555,2.229-.778-6.605-1.155Z" transform="translate(-865.58 -1081.747)" fill="#ea96b5" opacity="0.2" style="mix-blend-mode: overlay;isolation: isolate"/>
        <path id="Path_2111" data-name="Path 2111" d="M2139.551,1107.7l2.831.943,1.7-.943-1.887-1.319Z" transform="translate(-1754.365 -1050.009)" fill="#ea96b5" opacity="0.2" style="mix-blend-mode: overlay;isolation: isolate"/>
        <path id="Path_2112" data-name="Path 2112" d="M2210.983,953.936v1.885l10-1.814-6.982-.448v-3.77Z" transform="translate(-1811.266 -925.273)" fill="#ea96b5" opacity="0.2" style="mix-blend-mode: overlay;isolation: isolate"/>
        <path id="Path_2113" data-name="Path 2113" d="M2243.452,890.174h1.038v1.6l2.359-3.864-2.077-1.131Z" transform="translate(-1837.129 -875.083)" fill="#ea96b5" opacity="0.2" style="mix-blend-mode: overlay;isolation: isolate"/>
        <path id="Path_2114" data-name="Path 2114" d="M2252.431,1037.814l-3.586,1.7-.755,1.791h3.68l3.491-2.168Z" transform="translate(-1840.823 -995.391)" fill="#ea96b5" opacity="0.2" style="mix-blend-mode: overlay;isolation: isolate"/>
        <path id="Path_2115" data-name="Path 2115" d="M2271.518,1074.877h-1.51l-1.51.848,4.718-.471Z" transform="translate(-1857.08 -1024.914)" fill="#ea96b5" opacity="0.2" style="mix-blend-mode: overlay;isolation: isolate"/>
        <path id="Path_2116" data-name="Path 2116" d="M2262.872,1099.894l-1.7.754-5.661.565h6.322l3.491-.565Z" transform="translate(-1846.736 -1044.843)" fill="#ea96b5" opacity="0.2" style="mix-blend-mode: overlay;isolation: isolate"/>
        <path id="Path_2117" data-name="Path 2117" d="M2232.686,1135.1l-7.738,3.487h-13.965l17.079,1.414,11.885-1.222Z" transform="translate(-1811.266 -1072.89)" fill="#ea96b5" opacity="0.2" style="mix-blend-mode: overlay;isolation: isolate"/>
        <path id="Path_2118" data-name="Path 2118" d="M2102.764,1136.8h13.9l-8.3-1.694Z" transform="translate(-1725.061 -1072.89)" fill="#ea96b5" opacity="0.2" style="mix-blend-mode: overlay;isolation: isolate"/>
        <path id="Path_2119" data-name="Path 2119" d="M2186.707,995.191l-1.7,2.114,5.284.807,7.077-1.461-6.181-.006,1.25-.818-2.146-.448Z" transform="translate(-1790.574 -961.439)" fill="#ea96b5" opacity="0.2" style="mix-blend-mode: overlay;isolation: isolate"/>
        <path id="Path_2120" data-name="Path 2120" d="M2016.869,1154.562l-25.335.942h20.146l-1.038,1.131,22.777.141-14.473-2.214Z" transform="translate(-1636.458 -1088.389)" fill="#ea96b5" opacity="0.2" style="mix-blend-mode: overlay;isolation: isolate"/>
        <path id="Path_2121" data-name="Path 2121" d="M2177.586,1067.135l4.624,1.575,4.388-.787Z" transform="translate(-1784.662 -1018.747)" fill="#ea96b5" opacity="0.2" style="mix-blend-mode: overlay;isolation: isolate"/>
        <path id="Path_2122" data-name="Path 2122" d="M2480.951,1076.4l7.36,2.073,9.625-2.5-11.323-2.026-3.774,1.131Z" transform="translate(-2026.314 -1024.176)" fill="#ea96b5" opacity="0.2" style="mix-blend-mode: overlay;isolation: isolate"/>
        <path id="Path_2123" data-name="Path 2123" d="M2508.783,1009.557h9.365l-1.557-1.107,2.76-2.474-1.51-3.635Z" transform="translate(-2048.484 -967.134)" fill="#ea96b5" opacity="0.2" style="mix-blend-mode: overlay;isolation: isolate"/>
        <path id="Path_2124" data-name="Path 2124" d="M2559.808,1042.446l-5.685,1.343,11.536-.024Z" transform="translate(-2084.6 -999.081)" fill="#ea96b5" opacity="0.2" style="mix-blend-mode: overlay;isolation: isolate"/>
        <path id="Path_2125" data-name="Path 2125" d="M2457.807,1063.758l-2.831,5.466,3.822-1.814Z" transform="translate(-2005.623 -1016.057)" fill="#ea96b5" opacity="0.2" style="mix-blend-mode: overlay;isolation: isolate"/>
        <path id="Path_2126" data-name="Path 2126" d="M2449.8,1113.793l3.114,1.673,4.317.707-8.752.071Z" transform="translate(-2000.45 -1055.914)" fill="#ea96b5" opacity="0.2" style="mix-blend-mode: overlay;isolation: isolate"/>
        <path id="Path_2127" data-name="Path 2127" d="M2534.757,1156.427l14.06-.707-4.352,1.343Z" transform="translate(-2069.174 -1089.312)" fill="#ea96b5" opacity="0.2" style="mix-blend-mode: overlay;isolation: isolate"/>
        <path id="Path_2128" data-name="Path 2128" d="M2583.553,1105.454l-5.119,1.319-5.874.377,12.031.754-.779-.754,4.27-.188Z" transform="translate(-2099.287 -1049.271)" fill="#ea96b5" opacity="0.2" style="mix-blend-mode: overlay;isolation: isolate"/>
        <path id="Path_2129" data-name="Path 2129" d="M2600.245,1083.043l-5.072-.188,3.185-.565Z" transform="translate(-2117.299 -1030.819)" fill="#ea96b5" opacity="0.2" style="mix-blend-mode: overlay;isolation: isolate"/>
        <path id="Path_2130" data-name="Path 2130" d="M2687.825,1119.95l6.416-.754-2.123-.613,2.737-.613-3.822-.471Z" transform="translate(-2191.104 -1058.866)" fill="#ea96b5" opacity="0.2" style="mix-blend-mode: overlay;isolation: isolate"/>
        <path id="Path_2131" data-name="Path 2131" d="M2868.259,1052.176l3.963,6.691.66.188,3.585,2.168Z" transform="translate(-2334.832 -1006.831)" fill="#ea96b5" opacity="0.2" style="mix-blend-mode: overlay;isolation: isolate"/>
        <path id="Path_2132" data-name="Path 2132" d="M2812.607,949.789l-6.039,3.016H2811l-1.415,1.131,5.662,1.885,3.869,4.659Z" transform="translate(-2285.691 -925.273)" fill="#ea96b5" opacity="0.2" style="mix-blend-mode: overlay;isolation: isolate"/>
        <path id="Path_2133" data-name="Path 2133" d="M2742.787,1078.583l-2.548,1.508,5.19.377Z" transform="translate(-2232.854 -1027.867)" fill="#ea96b5" opacity="0.2" style="mix-blend-mode: overlay;isolation: isolate"/>
        <path id="Path_2134" data-name="Path 2134" d="M2716.583,1060.46l4.812-1.131-1.415-1.131Z" transform="translate(-2214.011 -1011.629)" fill="#ea96b5" opacity="0.2" style="mix-blend-mode: overlay;isolation: isolate"/>
        <path id="Path_2135" data-name="Path 2135" d="M2787.323,871.029l-3.02,8.294,4.529-4.147h-1.321Z" transform="translate(-2267.956 -862.536)" fill="#ea96b5" opacity="0.2" style="mix-blend-mode: overlay;isolation: isolate"/>
        <path id="Path_2136" data-name="Path 2136" d="M2811.269,892.341h-.932l3.074,1.216-.255-1.216Z" transform="translate(-2288.693 -879.512)" fill="#ea96b5" opacity="0.2" style="mix-blend-mode: overlay;isolation: isolate"/>
        <path id="Path_2137" data-name="Path 2137" d="M2795.436,1096.188l13.823.094-5.284,1.979-3.971-.189Z" transform="translate(-2276.823 -1041.89)" fill="#ea96b5" opacity="0.2" style="mix-blend-mode: overlay;isolation: isolate"/>
        <path id="Path_2138" data-name="Path 2138" d="M2773.172,1125.838l2.265.754,8.37,1.978-8.37-.847Z" transform="translate(-2259.088 -1065.509)" fill="#ea96b5" opacity="0.2" style="mix-blend-mode: overlay;isolation: isolate"/>
        <path id="Path_2139" data-name="Path 2139" d="M2880.9,1131.4l-7.077,1.6,12.031.847,2.406-2.448Z" transform="translate(-2339.266 -1069.938)" fill="#ea96b5" opacity="0.2" style="mix-blend-mode: overlay;isolation: isolate"/>
        <path id="Path_2140" data-name="Path 2140" d="M3029.676,1050.551l5.944,1.791,2.548-1.791-6.511-2.545Z" transform="translate(-2463.411 -1003.51)" fill="#ea96b5" opacity="0.2" style="mix-blend-mode: overlay;isolation: isolate"/>
        <path id="Path_2141" data-name="Path 2141" d="M3019.7,1102.211l4.246,8.385-2.123-.847-4.671.378Z" transform="translate(-2453.435 -1046.688)" fill="#ea96b5" opacity="0.2" style="mix-blend-mode: overlay;isolation: isolate"/>
        <path id="Path_2142" data-name="Path 2142" d="M3041.4,1024.378l-1.982.565,3.963.636h4.671Z" transform="translate(-2471.17 -984.689)" fill="#ea96b5" opacity="0.2" style="mix-blend-mode: overlay;isolation: isolate"/>
        <path id="Path_2143" data-name="Path 2143" d="M3057.506,875.594l4.954-3.04h-1.415l1.84-9.4Z" transform="translate(-2485.581 -856.262)" fill="#ea96b5" opacity="0.2" style="mix-blend-mode: overlay;isolation: isolate"/>
        <path id="Path_2144" data-name="Path 2144" d="M2795.436,1031.157l6.106-.872,3.33.872Z" transform="translate(-2276.823 -989.394)" fill="#ea96b5" opacity="0.2" style="mix-blend-mode: overlay;isolation: isolate"/>
        <path id="Path_2145" data-name="Path 2145" d="M2441.99,1146.6l5.7,1.555,2.229-.778-6.6-1.155Z" transform="translate(-1995.278 -1081.747)" fill="#ea96b5" opacity="0.2" style="mix-blend-mode: overlay;isolation: isolate"/>
        <path id="Path_2146" data-name="Path 2146" d="M2152.539,1013.382l2.89-12.441,2.671-6.582.691-.769,2.052-2.827,3.586.189-3.935-1.32-4.18,6.062-2.258,7.227Z" transform="translate(-1764.711 -957.01)" fill="#ea96b5"/>
        <path id="Path_2147" data-name="Path 2147" d="M648.572,1075.8l-1.929,1.042,4.194,1.408Z" transform="translate(-565.159 -1025.652)" fill="#ea96b5"/>
      </g>
      <g id="Group_43" data-name="Group 43" transform="translate(-242.502 -2036.717)" opacity="0.24">
        <path id="Path_793" data-name="Path 793" d="M712.041,625.459c-.023.019-.045.034-.068.053a3.246,3.246,0,0,1-.8.32,77.138,77.138,0,0,1-9.779,1.324,42.108,42.108,0,0,1-11.809-1.166c-.677-.214-.91-.406-.481-.53C690.859,624.948,713.048,624.587,712.041,625.459Z" transform="translate(-688.883 -624.932)" fill="#af6ba7" opacity="0.24"/>
        <path id="Path_794" data-name="Path 794" d="M712.041,625.459c-.023.019-.045.034-.068.053l-.8.32a9.427,9.427,0,0,0-1.918-.587c-.466,0-9.635-.282-13.02,0s-6.62.748-6.62.748l-.03,0c-.677-.214-.91-.406-.481-.53C690.859,624.948,713.048,624.587,712.041,625.459Z" transform="translate(-688.883 -624.932)" fill="#af6ba7"/>
      </g>
      <g id="Group_44" data-name="Group 44" transform="translate(-274.407 -2036.531)" opacity="0.24">
        <path id="Path_795" data-name="Path 795" d="M617.509,626.387a9.83,9.83,0,0,1-2.828.491,11.045,11.045,0,0,1-2.813-.539l-.03-.009c-.5-.2-.729-.438-.263-.683.768-.4,5.416-.356,6.176.231C617.99,626.065,617.847,626.238,617.509,626.387Z" transform="translate(-611.32 -625.383)" fill="#af6ba7" opacity="0.24"/>
        <path id="Path_796" data-name="Path 796" d="M617.509,626.387a12.116,12.116,0,0,0-1.655-.255,18.5,18.5,0,0,0-3.986.206l-.03-.009c-.5-.2-.729-.438-.263-.683.768-.4,5.416-.356,6.176.231C617.99,626.065,617.847,626.238,617.509,626.387Z" transform="translate(-611.32 -625.383)" fill="#af6ba7"/>
      </g>
      <g id="Group_41" data-name="Group 41" transform="translate(-759.319 -2174.599)">
        <path id="Path_2148" data-name="Path 2148" d="M138.652,768.977C121.415,757.272-13.524,713-13.524,713l-14.567-22.355-3.748.853-5.735-17.687h-7.878l-31.5-79.118-7.878-3.939L-91.722,567.3l-20.672-18.326c-19.078-10.459-46-19.392-47.673-19.942l-.078-.023s-10.392,8.806-14.205,15.319l-10.566,42.423-5.9,6.361-9.039,51.569-3.282,1.682-17.088,40.255-5.416,5.58-11.248,5.687V800.7l56.845-.262s94.253-13.389,114.925-14.6c8.675-.505,27.192-.954,51.6-1.358,107.511-1.739,329.4-2.446,329.4-2.446Z" transform="translate(236.895 -518.149)" fill="#feb2ca"/>
        <path id="Path_2149" data-name="Path 2149" d="M433.556,1063.62l4.162,1.309,2.2-1.309Z" transform="translate(-207.736 -872.694)" fill="#fff" opacity="0.2" style="mix-blend-mode: overlay;isolation: isolate"/>
        <path id="Path_2150" data-name="Path 2150" d="M475.2,1082.22l7.856-8.6,30.906,9.352,7.876,12.54,2.808,4.388s-35.638-1.216-39.549-3.834S475.2,1082.22,475.2,1082.22Z" transform="translate(-235.356 -879.323)" fill="#feb2ca"/>
        <path id="Path_2151" data-name="Path 2151" d="M629.476,1181.416l10.859-52.192s15.21-3.266,24.265-2.517,16.894,11.363,18.165,13.35,0,28.353,0,28.353h2.9l2.577,11.014s-20.357,4.424-25.329,4.7S629.476,1181.416,629.476,1181.416Z" transform="translate(-337.666 -914.458)" fill="#feb2ca"/>
        <path id="Path_2152" data-name="Path 2152" d="M20.99,560.845l8.137,4.208-38.157-6.06V529.007l.078.023c1.672.55,28.595,9.483,47.673,19.942L59.393,567.3Z" transform="translate(85.779 -518.149)" fill="#a7dee3" opacity="0.51" style="mix-blend-mode: soft-light;isolation: isolate"/>
        <path id="Path_2153" data-name="Path 2153" d="M87.828,712.328,77.324,723.1l-34.79,7.669H53.2l-29.74,9.446,62-13.944,10.246-10Z" transform="translate(64.235 -639.724)" fill="#a7dee3" opacity="0.51" style="mix-blend-mode: soft-light;isolation: isolate"/>
        <path id="Path_2154" data-name="Path 2154" d="M124.813,959.221h4.119l10.74,2.886L81.8,969.7H51.777l19.393-4.672H84.794Z" transform="translate(45.453 -803.458)" fill="#a7dee3" opacity="0.51" style="mix-blend-mode: soft-light;isolation: isolate"/>
        <path id="Path_2155" data-name="Path 2155" d="M334.507,958.921l-10.347,2.988,2.469-2.988Z" transform="translate(-135.186 -803.26)" fill="#a7dee3" opacity="0.51" style="mix-blend-mode: soft-light;isolation: isolate"/>
        <path id="Path_2156" data-name="Path 2156" d="M267.695,1009.747l-10.912,3.741-15.835,3.367h8.417l-14.215,5.8-20.387,3.18,33-3.367,23.676-13.569Z" transform="translate(-62.636 -836.402)" fill="#a7dee3" opacity="0.51" style="mix-blend-mode: soft-light;isolation: isolate"/>
        <path id="Path_2157" data-name="Path 2157" d="M426.282,1075.271l6.752,7.252L442.76,1085l1.8-3.659Z" transform="translate(-202.911 -880.42)" fill="#a7dee3" opacity="0.51" style="mix-blend-mode: soft-light;isolation: isolate"/>
        <path id="Path_2158" data-name="Path 2158" d="M498.528,1073.616l2.04,7.809s8.258,7.9,28.173,7.528l.693-5.985Z" transform="translate(-250.823 -879.323)" fill="#a7dee3" opacity="0.51" style="mix-blend-mode: soft-light;isolation: isolate"/>
        <path id="Path_2159" data-name="Path 2159" d="M661.716,1129.154a35.9,35.9,0,0,0,6.2,6.835c3.554,2.9,23.063,7.618,27.617,7.27a19.455,19.455,0,0,0,8.614-3.271s-6-10.014-14.889-12.66S661.716,1129.154,661.716,1129.154Z" transform="translate(-359.047 -914.388)" fill="#a7dee3" opacity="0.51" style="mix-blend-mode: soft-light;isolation: isolate"/>
        <path id="Path_2160" data-name="Path 2160" d="M226.2,1154.858l13.388-3.22,27.308,1.729-7.669,1.491,26.373,2.672,30.724,7.75-60.463,1.976,3.554-1.683-16.834-5.618-34.041-5.1H182.254l26.848-1.491Z" transform="translate(-41.077 -931.066)" fill="#a7dee3" opacity="0.51" style="mix-blend-mode: soft-light;isolation: isolate"/>
        <path id="Path_2161" data-name="Path 2161" d="M851.113,1241.466l-13.7,4.142,99.858,3.1Z" transform="translate(-475.566 -990.638)" fill="#a7dee3" opacity="0.51" style="mix-blend-mode: soft-light;isolation: isolate"/>
        <path id="Path_2162" data-name="Path 2162" d="M14.293,829.277H26.919l33.761,4.957-23.193,7.388-10.568-7.575Z" transform="translate(70.312 -717.282)" fill="#a7dee3" opacity="0.51" style="mix-blend-mode: soft-light;isolation: isolate"/>
        <path id="Path_2163" data-name="Path 2163" d="M674.286,1133.608s14.306-3.93,22.071-1.707,13.748,10.4,13.748,11.152-10.568,2.338-16.74.748a144.827,144.827,0,0,1-16.459-5.7C676.25,1137.723,674.286,1133.608,674.286,1133.608Z" transform="translate(-367.383 -917.525)" fill="#fdcbdb"/>
        <path id="Path_2164" data-name="Path 2164" d="M509.24,1080.927c.1,1.067.917,4.77,1.738,5.42s5.617,3.932,10.028,4.794,11.22.369,11.713,0-.034-1.134,0-2.5S509.24,1080.927,509.24,1080.927Z" transform="translate(-257.927 -884.172)" fill="#fdcbdb"/>
        <path id="Path_2165" data-name="Path 2165" d="M384.071,958.38l-2.385-38.717s-.639-2.666-5.009-2.946-7.477,4.652-7.477,4.652l-.046,27.239-1.4,18.236s16.74,9.726,26.466,10.521l-3.273-9.866Z" transform="translate(-164.095 -775.262)" fill="#feb2ca"/>
        <path id="Path_2166" data-name="Path 2166" d="M372.055,922.089a8.338,8.338,0,0,0,6.313,1.661,9.154,9.154,0,0,0,6.173-3.366s-1.369-3.228-6.055-2.478A8.857,8.857,0,0,0,372.055,922.089Z" transform="translate(-166.949 -775.984)" fill="#a7dee3" opacity="0.51" style="mix-blend-mode: soft-light;isolation: isolate"/>
        <path id="Path_2167" data-name="Path 2167" d="M376.359,924.376a7.915,7.915,0,0,1,4.068-2.968c2.572-.7,5.892,1.029,5.892,1.029a6.5,6.5,0,0,1-5.167,2.9C377.715,925.382,376.359,924.376,376.359,924.376Z" transform="translate(-169.803 -778.27)" fill="#5b679a"/>
        <path id="Path_2168" data-name="Path 2168" d="M687.367,1153.863s8.467-.025,12.575.279,15.2,4.908,15.2,4.908a32.68,32.68,0,0,1-12.038,0A162.429,162.429,0,0,1,687.367,1153.863Z" transform="translate(-376.058 -932.541)" fill="#ffdede"/>
        <path id="Path_2169" data-name="Path 2169" d="M514.4,1097.02a74.9,74.9,0,0,1,10.833.721c3.928.748,8.72,4.42,8.72,4.42s-5.763.567-8.857-.232S516.962,1099.1,514.4,1097.02Z" transform="translate(-261.349 -894.844)" fill="#ffdede"/>
        <path id="Path_2170" data-name="Path 2170" d="M-82.576,645.791-57.8,618.035l34.212,41.037,3.945-34.977-8.136-4.208,13.479,2.265,6.929,41.587-19.378,4.272,9.633.227-29.74,9.446L-57.8,683.294l-22.582-3.82V654.223Z" transform="translate(134.554 -577.191)" fill="#6776a5" opacity="0.29" style="mix-blend-mode: multiply;isolation: isolate"/>
        <path id="Path_2171" data-name="Path 2171" d="M84.595,983.608c-24.409.4-42.926.853-51.6,1.358-20.672,1.212-94.7,11.568-94.7,11.568l10.622-69.622h0A50.918,50.918,0,0,0-75.2,921.563l-13.741-78.286,34.772-14,12.625,4.77,10.572,7.575-9.191,46.012-1.38-31.85-4.4,20.322-5.135,7.412,1.319,10.194-4.406,20.327L2.4,941.075H28.684l15.061,30.884,2.6-27.585,16.385,1.8,16.834,5.622-3.557,1.683.748,13.276,4.453,4.978Z" transform="translate(138.776 -717.282)" fill="#6776a5" opacity="0.29" style="mix-blend-mode: multiply;isolation: isolate"/>
        <path id="Path_2172" data-name="Path 2172" d="M252.513,1049.182v37.729l-17.1-1.491L221.93,1052.3Z" transform="translate(-67.389 -863.119)" fill="#364472" opacity="0.29" style="mix-blend-mode: multiply;isolation: isolate"/>
        <path id="Path_2173" data-name="Path 2173" d="M359.074,959.056l-6.593,3.779,5.144,13.191,6.079-20.388-1.561-23.621-3.068-1.467Z" transform="translate(-153.968 -784.445)" fill="#364472" opacity="0.3" style="mix-blend-mode: multiply;isolation: isolate"/>
        <path id="Path_2174" data-name="Path 2174" d="M483.061,1073.616l-6.052,6.629-1.8,3.658,4.816,9.115,5.08-11.593Z" transform="translate(-235.356 -879.323)" fill="#364472" opacity="0.5" style="mix-blend-mode: multiply;isolation: isolate"/>
        <path id="Path_2175" data-name="Path 2175" d="M640.335,1134.4l-10.859,52.192,19.5,1.877,2.329-19.656-2.329-2.473v-10.515l-2.442-14.589Z" transform="translate(-337.665 -919.634)" fill="#364472" opacity="0.26" style="mix-blend-mode: multiply;isolation: isolate"/>
        <path id="Path_2176" data-name="Path 2176" d="M583.214,1119.163l2.381,2.46-.692-2.471Z" transform="translate(-306.986 -909.522)" fill="#3b4b7f"/>
        <path id="Path_2177" data-name="Path 2177" d="M413.34,1040.436l-1.454,4.292,3.558,2.021,4.769,2.806Z" transform="translate(-193.364 -857.318)" fill="#a7dee3" opacity="0.51" style="mix-blend-mode: soft-light;isolation: isolate"/>
        <path id="Path_2178" data-name="Path 2178" d="M79.062,862.989l1.051,2.645,2.469-2.338Z" transform="translate(27.358 -739.639)" fill="#3b4b7f"/>
        <path id="Path_2179" data-name="Path 2179" d="M-36.13,536.626s20.481,6.757,27.215,9S17.949,562.25,18.58,563.513s-22.164.772-31-.491-37.471-4.5-37.471-4.5C-48.991,549.79-43.968,544.565-36.13,536.626Z" transform="translate(112.879 -523.202)" fill="#fdcbdb"/>
        <path id="Path_2180" data-name="Path 2180" d="M-36.13,565.638c7.266.166,23.58,7.575,27.361,9.82s9.738,7.828,9.738,7.828a105.33,105.33,0,0,1-15.788-1.375c-9.286-1.451-35.074-4.149-35.074-4.149S-43.3,565.474-36.13,565.638Z" transform="translate(112.879 -542.44)" fill="#ffdede"/>
        <g id="Group_682" data-name="Group 682" transform="translate(302.645 229.33)" opacity="0.5">
          <path id="Path_2181" data-name="Path 2181" d="M661.661,1179.333a4.629,4.629,0,0,1,.167-1.676l.407-.017q-.1.883-.135,1.771l-.353-.159Z" transform="translate(-661.645 -1177.64)" fill="#364472" opacity="0.15" style="mix-blend-mode: multiply;isolation: isolate"/>
        </g>
        <path id="Path_2182" data-name="Path 2182" d="M759.98,1208.961v-18.527l1.764-3.244-1.047-15.664,3.75-2.514,4.864-2.449v28.353l-2.377,2.532Z" transform="translate(-424.214 -940.964)" fill="#a7dee3" opacity="0.51" style="mix-blend-mode: soft-light;isolation: isolate"/>
        <path id="Path_2183" data-name="Path 2183" d="M540.732,1192.271l13.329-.132,2.756,20.868h-3l-3.263-.633-5.05-3.05" transform="translate(-278.813 -957.925)" fill="#a7dee3" opacity="0.16" style="mix-blend-mode: soft-light;isolation: isolate"/>
        <ellipse id="Ellipse_376" data-name="Ellipse 376" cx="40.794" cy="29.082" rx="40.794" ry="29.082" transform="translate(51.369)" fill="url(#radial-gradient)" style="mix-blend-mode: screen;isolation: isolate"/>
        <ellipse id="Ellipse_377" data-name="Ellipse 377" cx="22.228" cy="31.178" rx="22.228" ry="31.178" transform="matrix(0.153, -0.988, 0.988, 0.153, 232.577, 219.351)" fill="url(#radial-gradient-2)" style="mix-blend-mode: screen;isolation: isolate"/>
        <ellipse id="Ellipse_378" data-name="Ellipse 378" cx="22.228" cy="31.178" rx="22.228" ry="31.178" transform="translate(290.982 239.141) rotate(-81.196)" fill="url(#radial-gradient-3)" style="mix-blend-mode: screen;isolation: isolate"/>
        <path id="Path_2184" data-name="Path 2184" d="M-136.686,874.112l11.492,4.707,6.492,14.9-4.041-17.03L-133.4,872.43Z" transform="translate(170.439 -745.9)" fill="#a7dee3" opacity="0.51" style="mix-blend-mode: soft-light;isolation: isolate"/>
        <path id="Path_2185" data-name="Path 2185" d="M-220.231,996.939l6.341,14.651-1.122,4.559-6.359-4.559-5.424,19.059-10.1,7.467v-29.909l11.248-5.687Z" transform="translate(236.895 -828.472)" fill="#a7dee3" opacity="0.51" style="mix-blend-mode: soft-light;isolation: isolate"/>
        <path id="Path_2186" data-name="Path 2186" d="M-121.945,1109.848s18.43-6.77,24.856-6.585c14.7.424,24.118,5.349,24.118,5.349l-21.687,9.7Z" transform="translate(160.662 -898.982)" fill="#a7dee3" opacity="0.51" style="mix-blend-mode: soft-light;isolation: isolate"/>
        <path id="Path_2187" data-name="Path 2187" d="M-94.2,700.44l2.19,8.433-8.095-2.072Z" transform="translate(146.18 -631.84)" fill="#a7dee3" opacity="0.51" style="mix-blend-mode: soft-light;isolation: isolate"/>
        <path id="Path_2188" data-name="Path 2188" d="M-75.3,1194.762l26.906,15.831-4.265,28.324-20.224,3.032.841-13.59-.841-3.216v-11.965Z" transform="translate(129.727 -959.665)" fill="#a7dee3" opacity="0.16" style="mix-blend-mode: soft-light;isolation: isolate"/>
        <path id="Path_2189" data-name="Path 2189" d="M-67.335,1113.991s-.9.359-2.323.886a116.3,116.3,0,0,1-13.949,4.411c-3.861.807-11.9-1-17.193-2.4-3-.8-5.117-1.459-5.117-1.459s5.432-3.793,18.427-4.983S-67.335,1113.991-67.335,1113.991Z" transform="translate(150.034 -903.62)" fill="#fdcbdb"/>
        <path id="Path_2190" data-name="Path 2190" d="M-59.616,1120.73l-.011.011a116.259,116.259,0,0,1-13.949,4.411c-3.861.808-11.9-1-17.193-2.4l-.023-.011s5.275-3.322,16.789-3.614S-59.616,1120.73-59.616,1120.73Z" transform="translate(140.002 -909.483)" fill="#ffdede"/>
        <ellipse id="Ellipse_379" data-name="Ellipse 379" cx="31.178" cy="22.228" rx="31.178" ry="22.228" transform="translate(28.739 198.87) rotate(-10.957)" fill="url(#radial-gradient-4)" style="mix-blend-mode: screen;isolation: isolate"/>
      </g>
      <rect id="Rectangle_3" data-name="Rectangle 3" width="976.234" height="433.882" transform="translate(-603.572 -2333.393)" fill="none"/>
      <g id="Group_42" data-name="Group 42" transform="translate(-64.078 -2022.131)">
        <g id="Group_691" data-name="Group 691" transform="translate(0 0.062)">
          <path id="Path_2205" data-name="Path 2205" d="M1681.495,1084.092l42.377,3.211,34.314-1.555-17.345-2.605,19.962-1.731h104.4l-40.1-3.369-8.074-9.266-14.306-2.984-6.987-1.545-10.979-2.129,4.894-49.99-1.147-3.561V974.153l-16.988-16.92-5.557,16.139-11.145,9.079-9.981,44.317s-15.96,3.992-25.114,14.639l0,22.963-4.328,4.407-2.828,9.726-6,1.407Z" transform="translate(-1596.453 -957.234)" fill="#feb2ca"/>
          <path id="Path_2206" data-name="Path 2206" d="M1798.9,1215.791l4.884,6.587v6.974l5.82,2.419,0,22.084-9.353-4.4-1.354-10.7Z" transform="translate(-1675.637 -1131.617)" fill="#364472" opacity="0.22" style="mix-blend-mode: multiply;isolation: isolate"/>
          <path id="Path_2207" data-name="Path 2207" d="M1876.048,1079.013l11.587,4.884,3.173,34.623,2.908-52.069v-25.722l-7.687-6.033Z" transform="translate(-1727.669 -1009.478)" fill="#364472" opacity="0.3" style="mix-blend-mode: multiply;isolation: isolate"/>
          <path id="Path_2208" data-name="Path 2208" d="M1940.941,992.728l3.681,1.091-1.84,30.318,5.548-31.464-5.049-6.742Z" transform="translate(-1771.436 -976.588)" fill="#364472" opacity="0.2" style="mix-blend-mode: multiply;isolation: isolate"/>
          <path id="Path_2209" data-name="Path 2209" d="M1803.789,1192.05s4.847.9,14.5-1.744,17.319-14.6,17.319-14.6l-11.587-4.884s-12.635,1.864-25.114,14.639Z" transform="translate(-1675.64 -1101.29)" fill="#a7dee3" opacity="0.51" style="mix-blend-mode: soft-light;isolation: isolate"/>
          <path id="Path_2210" data-name="Path 2210" d="M1914.394,1021.921l3.458-2.805v-1.829l3.681-9.386-3.681-1.091-11.145,9.079Z" transform="translate(-1748.347 -990.67)" fill="#a7dee3" opacity="0.51" style="mix-blend-mode: soft-light;isolation: isolate"/>
          <path id="Path_2211" data-name="Path 2211" d="M1948.13,966.576l5.049,6.742,7.021,1.146.9-1.091h1.566l5.664.78-16.988-16.919Z" transform="translate(-1776.284 -957.234)" fill="#a7dee3" opacity="0.51" style="mix-blend-mode: soft-light;isolation: isolate"/>
          <path id="Path_2212" data-name="Path 2212" d="M1968.494,1117.368l-4.217,4.98-12.319,1.584-3.829,3.29,5.049-1.706h11.963v3.791l4.34-9.175Z" transform="translate(-1776.284 -1065.236)" fill="#a7dee3" opacity="0.51" style="mix-blend-mode: soft-light;isolation: isolate"/>
          <path id="Path_2213" data-name="Path 2213" d="M1837.207,1181.963s-2.1,7.376-8.549,11.1-17.451,3.173-17.451,3.173-3.368-1.93-3.261-4.843,16.57-11.286,19.919-11.726S1837.207,1181.963,1837.207,1181.963Z" transform="translate(-1681.736 -1107.224)" fill="#fdcbdb"/>
          <path id="Path_2214" data-name="Path 2214" d="M1821.208,1208.368a30.674,30.674,0,0,1,10.314-8.321,21.626,21.626,0,0,1,13.022-2.266s-1.238,3.841-6.939,7.388S1821.208,1208.368,1821.208,1208.368Z" transform="translate(-1690.682 -1119.325)" fill="#ffdede"/>
          <path id="Path_2215" data-name="Path 2215" d="M1831.786,1251.028l17.271-3.272,10.471-3.412,1.427,15.572-20.945,8.8-6.994-5.35Z" transform="translate(-1697.817 -1150.875)" fill="#a7dee3" opacity="0.16" style="mix-blend-mode: soft-light;isolation: isolate"/>
          <path id="Path_2216" data-name="Path 2216" d="M1960.2,1007.787l-1.394,16.614-5.627,7.4-5.049,4.936,5.049-30.1Z" transform="translate(-1776.284 -990.557)" fill="#a7dee3" opacity="0.16" style="mix-blend-mode: soft-light;isolation: isolate"/>
          <path id="Path_2217" data-name="Path 2217" d="M1467.674,1330.589l-15.24.6s-9.561.793-15.494,1.153h-.01a32.38,32.38,0,0,1-4.569.138c-.719-.307-10.629-1.724-12.088-2.073,0,0,7.636-5.394,11.909-7.922a10.06,10.06,0,0,1,2.633-1.28c1.724-.137,13.22.656,14.743,1.185.6.212,1.185,1.417,1.671,2.782a38.821,38.821,0,0,1,1.206,4.442Z" transform="translate(-1420.272 -1202.705)" fill="#feb2ca"/>
          <path id="Path_2218" data-name="Path 2218" d="M1436.929,1332.378a32.38,32.38,0,0,1-4.569.138c-.719-.307-10.629-1.724-12.088-2.073,0,0,7.636-5.394,11.909-7.922l2.633-1.28-1.237,4.611,1.237.856-.613,2.982Z" transform="translate(-1420.272 -1202.738)" fill="#364472" opacity="0.26" style="mix-blend-mode: multiply;isolation: isolate"/>
          <path id="Path_2219" data-name="Path 2219" d="M1478.792,1325.174c-5.838.867-17.652.645-17.652.645l1.237-4.612c1.724-.137,13.22.656,14.743,1.185C1477.723,1322.6,1478.305,1323.81,1478.792,1325.174Z" transform="translate(-1447.835 -1202.705)" fill="#a7dee3" opacity="0.51" style="mix-blend-mode: soft-light;isolation: isolate"/>
        </g>
        <ellipse id="Ellipse_380" data-name="Ellipse 380" cx="24.577" cy="24.577" rx="24.577" ry="24.577" transform="translate(116.415)" fill="url(#radial-gradient-5)" style="mix-blend-mode: screen;isolation: isolate"/>
      </g>
      <rect id="Rectangle_4" data-name="Rectangle 4" width="813.408" height="459.393" transform="translate(-525.875 -2390.956)" fill="none"/>
    </g>
    <g id="Group_739" data-name="Group 739" transform="translate(-726.054 -245.84)">
      <g id="Objects" transform="translate(856.054 292.678)">
        <g id="Group_734" data-name="Group 734" transform="translate(83.864 13.226)">
          <path id="Path_2293" data-name="Path 2293" d="M915.207,333.071a.718.718,0,0,1-.241-1.394c.748-.267,18.286-6.793,16.136-27.677a.718.718,0,1,1,1.428-.146c2.267,22.024-16.889,29.107-17.083,29.176A.7.7,0,0,1,915.207,333.071Z" transform="translate(-914.489 -295.3)" fill="#434040"/>
          <path id="Path_2294" data-name="Path 2294" d="M929.029,307.282c-2.061,1.586-7.3-.365-7.027-2.873.159-1.438,2.823.319,2.823.319s-1.7-5.59-.267-6.547,2.075,5.111,2.075,5.111.64-5.751,2.236-5.59-.159,5.749-.159,5.749,2.236-2.875,3.354-2.077S931.105,305.686,929.029,307.282Z" transform="translate(-911.224 -297.698)" fill="#434040"/>
        </g>
        <g id="Group_735" data-name="Group 735" transform="translate(80.983 156.004)">
          <path id="Path_2295" data-name="Path 2295" d="M915.859,412.349a.718.718,0,0,1-.715-.656,90.864,90.864,0,0,0-2.636-13.6.718.718,0,1,1,1.382-.386,92.026,92.026,0,0,1,2.684,13.864.716.716,0,0,1-.652.776Z" transform="translate(-912.482 -397.182)" fill="#434040"/>
          <path id="Path_2296" data-name="Path 2296" d="M921.854,405.809a2.714,2.714,0,0,0-2.427-1.391,6.472,6.472,0,0,0-4.413,2.4,2.4,2.4,0,0,0-.733,1.877c.089.475.485,1.039,1.863,1.039,1.748,0,4.923-.937,5.722-2.352A1.5,1.5,0,0,0,921.854,405.809Z" transform="translate(-911.708 -394.033)" fill="#434040"/>
        </g>
        <path id="Path_2297" data-name="Path 2297" d="M939.782,316.459c4.626-2.734,3.621-27.043-5.962-27.682s-61.754-1.279-68.355,10.008-8.515,47.272,7.668,50.679,38.754-1.277,49.827,18.735c10.96,19.811-5.963,44.819-28.534,35.77-15.742-6.31-12.35-15.331-21.292-16.183s-21.785,11.047-15.332,29.382c4.669,13.274,18.8,29.606,46.42,32.794,22.145,2.556,45.143-7.24,56.216-23,25.245-35.921,3.232-77.316-13.735-87.084-21.08-12.139-37.464-7.193-39.5-10.86-1.065-1.916-1.063-7.879,3.2-8.305C915.489,320.21,935.1,319.226,939.782,316.459Z" transform="translate(-856.054 -288.482)" fill="#596598"/>
        <g id="Group_736" data-name="Group 736" transform="translate(32.229 157.121)">
          <path id="Path_2298" data-name="Path 2298" d="M883.6,415.71l-.063,0a.717.717,0,0,1-.653-.776c.532-6.127,3.489-16.038,3.614-16.457a.718.718,0,0,1,1.375.412c-.03.1-3.04,10.188-3.558,16.169A.718.718,0,0,1,883.6,415.71Z" transform="translate(-876.608 -397.96)" fill="#434040"/>
          <path id="Path_2299" data-name="Path 2299" d="M881.165,406.994a2.716,2.716,0,0,0-2.427,1.391,1.508,1.508,0,0,0-.011,1.573c.8,1.414,3.974,2.351,5.722,2.351h0c1.378,0,1.774-.564,1.863-1.039a2.4,2.4,0,0,0-.735-1.877A6.471,6.471,0,0,0,881.165,406.994Z" transform="translate(-878.511 -394.029)" fill="#434040"/>
        </g>
        <g id="Group_737" data-name="Group 737" transform="translate(31.254 57.71)">
          <path id="Path_2300" data-name="Path 2300" d="M881.33,355.888a.718.718,0,0,1-.664-.445c-7.126-17.379,1.388-26.175,1.754-26.541a.717.717,0,0,1,1.016,1.013c-.083.085-8.186,8.536-1.442,24.982a.718.718,0,0,1-.391.937A.736.736,0,0,1,881.33,355.888Z" transform="translate(-877.831 -328.693)" fill="#434040"/>
          <path id="Path_2301" data-name="Path 2301" d="M883.3,347.007c-1.284-.2-3.193.319-3.62,1.649s-.845,5.266-.095,5.577c1.158.479,1.757-3.114,1.757-3.114s.7,3.521,1.4,3.473c1.2-.08.479-3.713.479-3.713s2.13,2.435,2.714,2.117-1.556-3.914-1.556-3.914,2.648.692,2.648-.32S884.684,347.219,883.3,347.007Z" transform="translate(-877.247 -320.742)" fill="#434040"/>
        </g>
      </g>
      <g id="Designed_by_Freepik" data-name="Designed by Freepik" transform="translate(860.345 278.84)">
        <g id="Group_738" data-name="Group 738" transform="translate(11.105 25.93)">
          <circle id="Ellipse_418" data-name="Ellipse 418" cx="15.66" cy="15.66" r="15.66" fill="#fff"/>
          <path id="Path_2302" data-name="Path 2302" d="M891.818,299.818a15.657,15.657,0,0,1-22.126,22.126,15.657,15.657,0,1,0,22.126-22.126Z" transform="translate(-865.515 -295.641)" fill="#1e2849"/>
          <circle id="Ellipse_419" data-name="Ellipse 419" cx="9.508" cy="9.508" r="9.508" transform="translate(5.872 6.432)" fill="#123535"/>
          <circle id="Ellipse_420" data-name="Ellipse 420" cx="3.216" cy="3.216" r="3.216" transform="translate(18.177 7.83)" fill="#fff"/>
          <circle id="Ellipse_421" data-name="Ellipse 421" cx="0.979" cy="0.979" r="0.979" transform="translate(14.541 13.143)" fill="#fff"/>
        </g>
        <path id="Path_2303" data-name="Path 2303" d="M878.659,294.375l-1.233-7.786a2.983,2.983,0,0,0-5.012-1.688c-4.252,4.093-9.692,10.953-5.7,16.467C866.711,301.368,872.121,296.054,878.659,294.375Z" transform="translate(-856.312 -276.565)" fill="#3c5082"/>
        <path id="Path_2304" data-name="Path 2304" d="M868.439,298.817l-2.316-5.3a1.954,1.954,0,0,0-3.423-.29c-2.546,3.853-6.006,10.676-1.392,14.085A33.838,33.838,0,0,1,868.439,298.817Z" transform="translate(-859.044 -272.962)" fill="#3c5082"/>
        <path id="Path_2305" data-name="Path 2305" d="M890.975,294.432l-.57-13.36a2.324,2.324,0,0,0-3.476-1.922c-4.9,2.809-13.3,8.928-11.334,17.077C875.6,296.227,883.559,293.133,890.975,294.432Z" transform="translate(-851.968 -278.84)" fill="#3c5082"/>
        <circle id="Ellipse_422" data-name="Ellipse 422" cx="3.771" cy="3.771" r="3.771" transform="translate(3.248 129.087)" fill="#4d5b87"/>
        <circle id="Ellipse_423" data-name="Ellipse 423" cx="1.257" cy="1.257" r="1.257" transform="translate(13.934 136.629)" fill="#4d5b87"/>
        <circle id="Ellipse_424" data-name="Ellipse 424" cx="2.514" cy="2.514" r="2.514" transform="translate(13.934 144.172)" fill="#4d5b87"/>
        <circle id="Ellipse_425" data-name="Ellipse 425" cx="3.771" cy="3.771" r="3.771" transform="translate(88.116 101.627)" fill="#4d5b87"/>
        <circle id="Ellipse_426" data-name="Ellipse 426" cx="1.257" cy="1.257" r="1.257" transform="translate(98.802 102.324)" fill="#4d5b87"/>
        <circle id="Ellipse_427" data-name="Ellipse 427" cx="2.514" cy="2.514" r="2.514" transform="translate(96.288 91.304)" fill="#4d5b87"/>
      </g>
    </g>
  </g>
</svg>
